<?xml version="1.0" encoding="UTF-8" standalone="no"?>
<!-- Generator: Adobe Illustrator 16.0.0, SVG Export Plug-In . SVG Version: 6.00 Build 0)  -->

<svg
   xmlns:dc="http://purl.org/dc/elements/1.1/"
   xmlns:cc="http://creativecommons.org/ns#"
   xmlns:rdf="http://www.w3.org/1999/02/22-rdf-syntax-ns#"
   xmlns:svg="http://www.w3.org/2000/svg"
   xmlns="http://www.w3.org/2000/svg"
   xmlns:sodipodi="http://sodipodi.sourceforge.net/DTD/sodipodi-0.dtd"
   xmlns:inkscape="http://www.inkscape.org/namespaces/inkscape"
   version="1.1"
   id="svg645"
   sodipodi:docname="eagle (2).svg"
   inkscape:version="0.92.4 (5da689c313, 2019-01-14)"
   x="0px"
   y="0px"
   width="1152px"
   height="648px"
   viewBox="0 0 1152 648"
   enable-background="new 0 0 1152 648"
   xml:space="preserve"><metadata
   id="metadata329"><rdf:RDF><cc:Work
       rdf:about=""><dc:format>image/svg+xml</dc:format><dc:type
         rdf:resource="http://purl.org/dc/dcmitype/StillImage" /></cc:Work></rdf:RDF></metadata><defs
   id="defs327"><linearGradient
     id="circle15_1_"
     gradientUnits="userSpaceOnUse"
     x1="89.603996"
     y1="343.00101"
     x2="702.39648"
     y2="343.00101"
     gradientTransform="matrix(1,0,0,-1,180,667)"><stop
       offset="0"
       style="stop-color:#FFFFFF"
       id="stop3-9" /><stop
       offset="1"
       style="stop-color:#155FFF"
       id="stop5-9" /></linearGradient></defs>
<sodipodi:namedview
   id="namedview647"
   bordercolor="#666666"
   pagecolor="#ffffff"
   borderopacity="1"
   objecttolerance="10"
   gridtolerance="10"
   guidetolerance="10"
   showgrid="false"
   inkscape:zoom="0.49305556"
   inkscape:cx="332.52424"
   inkscape:cy="324"
   inkscape:pageopacity="0"
   inkscape:window-width="1366"
   inkscape:window-maximized="1"
   inkscape:current-layer="svg645"
   inkscape:pageshadow="2"
   inkscape:window-height="705"
   inkscape:window-x="-8"
   inkscape:window-y="-8"
   inkscape:snap-global="false">
	</sodipodi:namedview>

<g
   id="Layer_4"
   transform="translate(-38.535214,-0.50603904)"><g
     id="g17"><linearGradient
       id="linearGradient394"
       gradientUnits="userSpaceOnUse"
       x1="89.603996"
       y1="343.00101"
       x2="702.39648"
       y2="343.00101"
       gradientTransform="matrix(1,0,0,-1,180,667)"><stop
         offset="0"
         style="stop-color:#FFFFFF"
         id="stop390" /><stop
         offset="1"
         style="stop-color:#155FFF"
         id="stop392" /></linearGradient><path
       id="circle15"
       inkscape:connector-curvature="0"
       d="m 882.396,323.999 c 0,169.218 -137.18,306.396 -306.396,306.396 v 0 c -169.218,0 -306.396,-137.178 -306.396,-306.396 v 0 C 269.604,154.781 406.782,17.603 576,17.603 c 169.218,0 306.396,137.178 306.396,306.396 z"
       style="fill:url(#circle15_1_)" /></g></g><path
   id="path4"
   inkscape:connector-curvature="0"
   d="M833.86,321.971c-0.2,89.194-40.793,173.696-109.646,230.244  c-69.002,56.668-162.978,78.275-249.996,59.404c-85.793-18.606-159.551-75.909-200.131-153.537  c-41.423-79.24-43.823-176.542-6.964-257.931c36.114-79.75,107.022-140.469,191.332-163.928  c86.951-24.194,181.439-6.229,254.279,46.639c70.996,51.53,115.732,134.856,120.67,222.251  C833.722,310.727,833.848,316.349,833.86,321.971c0.028,12.896,20.028,12.898,20,0c-0.206-91.362-40.333-179.519-109.479-239.326  C673.922,21.701,579.549-4.436,487.679,9.536c-89.232,13.571-169.326,67.56-217.694,143.372  c-49.766,78.003-61.999,176.938-34.103,264.997c27.073,85.458,91.357,157.056,173.306,193.309  c85.476,37.814,184.728,35.49,268.578-5.604c80.596-39.495,141.458-114.203,165.09-200.61c7.375-26.971,10.941-55.084,11.006-83.026  C853.89,309.072,833.89,309.075,833.86,321.971z" />
<path
   id="path11"
   inkscape:connector-curvature="0"
   fill="#0000FF"
   stroke="#FFFFFF"
   stroke-width="2"
   stroke-miterlimit="10"
   d="  M434.48,156.121c-1.791,1.041-3.586,2.082-5.514,3.201c-0.058-0.113-0.104-0.238-0.179-0.344c-1.736-2.455-4.207-3.281-7.088-3.135  c-0.646,0.033-1.3,0.151-1.921,0.327c-2.69,0.765-4.463,2.505-5.279,5.176c-0.592,1.941-0.584,3.912-0.023,5.86  c0.896,3.106,3.459,5.211,6.691,5.514c1.41,0.132,2.808,0.077,4.164-0.421c1.36-0.499,2.486-1.295,3.337-2.476  c0.104-0.143,0.221-0.277,0.384-0.479c1.816,1.052,3.609,2.091,5.479,3.174c-0.18,0.283-0.316,0.524-0.478,0.748  c-1.842,2.578-4.312,4.291-7.334,5.172c-3.524,1.027-7.027,0.866-10.399-0.594c-4.655-2.014-7.405-5.618-8.392-10.558  c-0.6-3.009-0.359-5.99,0.837-8.822c2.134-5.053,5.995-7.943,11.402-8.745c3.351-0.497,6.54,0.052,9.512,1.718  c1.754,0.983,3.22,2.295,4.388,3.936c0.106,0.148,0.207,0.3,0.303,0.456C434.408,155.894,434.425,155.971,434.48,156.121  L434.48,156.121z" />
<path
   id="path13"
   inkscape:connector-curvature="0"
   fill="#0000FF"
   stroke="#FFFFFF"
   stroke-width="2"
   stroke-miterlimit="10"
   d="  M476.292,159.888c0-0.504,0-1.031,0-1.529c0.778-0.19,5.38-0.181,6.017-0.005c0,6.659,0,13.326,0,19.986  c-0.556,0.171-4.902,0.216-5.967,0.058c-0.025-0.51-0.051-1.036-0.082-1.676c-0.222,0.167-0.347,0.244-0.453,0.342  c-1.838,1.691-4.059,2.194-6.453,1.94c-3.5-0.371-5.977-2.295-7.566-5.365c-2.094-4.042-1.554-9.192,1.336-12.556  c2.585-3.009,5.865-3.998,9.716-3.06c1.08,0.262,2.03,0.8,2.857,1.549c0.135,0.121,0.279,0.231,0.422,0.342  C476.132,159.926,476.166,159.909,476.292,159.888L476.292,159.888z M471.282,163.383c-0.231,0.03-0.705,0.048-1.155,0.159  c-2.138,0.525-3.479,2.223-3.557,4.558c-0.058,1.721,0.435,3.239,1.868,4.331c2.251,1.714,7.038,1.316,7.777-3.012  C476.786,166.082,474.845,163.433,471.282,163.383L471.282,163.383z" />
<path
   id="path15"
   inkscape:connector-curvature="0"
   fill="#0000FF"
   stroke="#FFFFFF"
   stroke-width="2"
   stroke-miterlimit="10"
   d="  M443.89,178.456c-2.048,0-3.946,0-5.935,0c-0.026-0.261-0.07-0.508-0.07-0.754c-0.004-8.917-0.003-17.833,0-26.75  c0-0.229,0.032-0.458,0.047-0.67c0.652-0.194,5.086-0.216,5.959-0.017c0,3.185,0,6.396,0,9.755c0.236-0.174,0.344-0.231,0.424-0.315  c1.153-1.217,2.624-1.77,4.24-1.958c1.091-0.126,2.189-0.112,3.259,0.197c3.094,0.892,4.737,3.056,5.32,6.124  c0.111,0.585,0.159,1.191,0.16,1.787c0.015,3.963,0.01,7.926,0.007,11.889c0,0.206-0.019,0.411-0.033,0.7  c-1.963,0.079-3.903,0.021-5.951,0.039c-0.014-0.343-0.032-0.642-0.032-0.943c-0.003-3.389,0.007-6.778-0.011-10.167  c-0.003-0.594-0.035-1.209-0.191-1.776c-0.366-1.338-1.299-2.114-2.664-2.304c-0.533-0.075-1.098-0.061-1.631,0.02  c-1.469,0.222-2.517,1.333-2.772,2.897c-0.08,0.486-0.116,0.985-0.119,1.478c-0.01,3.258-0.005,6.518-0.005,9.777  C443.89,177.77,443.89,178.076,443.89,178.456z" />
<path
   id="path17"
   inkscape:connector-curvature="0"
   fill="#0000FF"
   stroke="#FFFFFF"
   stroke-width="2"
   stroke-miterlimit="10"
   d="  M310.144,150.17c5.726,0,11.375,0,17.082,0c0,2.031,0,4.021,0,6.103c-3.528,0-7.035,0-10.506,0c-0.234,0.613-0.3,4.221-0.119,5.53  c0.278,0.02,0.578,0.058,0.878,0.059c2.869,0.004,5.736,0.003,8.604,0.003c0.306,0,0.612,0,0.967,0c0,2.076,0,4.045,0,6.108  c-0.296,0.019-0.596,0.053-0.896,0.053c-2.868,0.005-5.736,0.001-8.604,0.005c-0.305,0-0.609,0.026-1.023,0.046  c-0.021,3.468,0.003,6.873-0.014,10.259c-0.617,0.18-4.563,0.237-6.277,0.106c-0.013-0.015-0.03-0.034-0.048-0.054  c-0.017-0.019-0.047-0.039-0.047-0.058c-0.014-9.203-0.026-18.405-0.036-27.607C310.105,150.571,310.126,150.418,310.144,150.17z" />
<path
   id="path19"
   inkscape:connector-curvature="0"
   fill="#0000FF"
   stroke="#FFFFFF"
   stroke-width="2"
   stroke-miterlimit="10"
   d="  M392.961,178.454c-2.043,0-3.968,0-5.89,0c-0.171-0.55-0.233-27.012-0.069-28.187c0.628-0.188,5.179-0.199,5.949,0.007  c0,5.495,0,11.01,0,16.588c0.406-0.096,0.501-0.387,0.649-0.602c1.686-2.447,3.378-4.889,5.029-7.358  c0.348-0.519,0.725-0.707,1.338-0.694c1.746,0.039,3.493,0.012,5.24,0.016c0.247,0,0.496,0.023,0.898,0.044  c-2.496,3.434-4.896,6.734-7.346,10.104c2.483,3.324,4.957,6.634,7.498,10.035c-0.282,0.033-0.469,0.073-0.656,0.073  c-1.826,0.005-3.65-0.011-5.475,0.013c-0.468,0.007-0.753-0.15-1.024-0.53c-1.803-2.523-3.629-5.03-5.45-7.541  c-0.16-0.221-0.339-0.429-0.596-0.617C392.955,172.674,392.974,175.521,392.961,178.454L392.961,178.454z" />
<path
   id="path21"
   inkscape:connector-curvature="0"
   fill="#0000FF"
   stroke="#FFFFFF"
   stroke-width="2"
   stroke-miterlimit="10"
   d="  M340.584,168.398c-0.018-6.019,4.666-10.703,10.708-10.709c6.002-0.006,10.71,4.653,10.729,10.616  c0.02,6.023-4.67,10.752-10.674,10.764C345.312,179.08,340.602,174.411,340.584,168.398L340.584,168.398z M355.988,168.349  c0.099-2.586-1.918-5.318-5.663-4.713c-2.278,0.368-3.808,2.417-3.729,4.876c0.069,2.123,1.182,3.745,3.024,4.399  C352.624,173.978,356.058,172.08,355.988,168.349z" />
<path
   id="path23"
   inkscape:connector-curvature="0"
   fill="#0000FF"
   stroke="#FFFFFF"
   stroke-width="2"
   stroke-miterlimit="10"
   d="  M516.838,178.448c-1.995,0-3.918,0-5.948,0c-0.011-0.304-0.028-0.603-0.028-0.903c-0.003-3.415,0.004-6.83-0.008-10.245  c-0.003-0.491-0.043-0.992-0.144-1.473c-0.298-1.43-1.352-2.405-2.802-2.542c-0.611-0.057-1.262-0.042-1.855,0.1  c-1.509,0.361-2.393,1.565-2.566,3.354c-0.03,0.31-0.024,0.625-0.024,0.938c-0.001,3.285-0.001,6.569-0.001,9.854  c0,0.282,0,0.563,0,0.896c-2.016,0-3.958,0-5.904,0c-0.162-0.547-0.233-18.516-0.078-20.045c0.514-0.196,4.886-0.251,5.946-0.062  c0.022,0.509,0.046,1.036,0.073,1.655c0.166-0.109,0.258-0.147,0.321-0.214c1.181-1.272,2.696-1.839,4.371-2.02  c1.064-0.116,2.136-0.097,3.181,0.203c2.859,0.815,4.533,2.756,5.204,5.587c0.197,0.829,0.283,1.701,0.29,2.555  c0.031,3.831,0.014,7.665,0.012,11.496C516.878,177.861,516.854,178.14,516.838,178.448L516.838,178.448z" />
<path
   id="path25"
   inkscape:connector-curvature="0"
   fill="#0000FF"
   stroke="#FFFFFF"
   stroke-width="2"
   stroke-miterlimit="10"
   d="  M384.382,162.848c-1.751,1.015-3.457,2.003-5.211,3.021c-0.867-1.469-2.146-2.173-3.764-2.243c-1.333-0.059-2.525,0.337-3.492,1.287  c-1.891,1.859-1.765,5.348,0.191,7.109c1.555,1.4,5.249,1.826,7.094-1.135c1.721,0.985,3.444,1.972,5.165,2.957  c-1.736,3.457-6.371,6.106-11.645,4.943c-4.651-1.026-8.013-5.144-8.176-9.914c-0.177-5.166,2.909-9.503,7.732-10.807  C377.04,156.778,382.215,158.802,384.382,162.848z" />
<path
   id="path27"
   inkscape:connector-curvature="0"
   fill="#0000FF"
   stroke="#FFFFFF"
   stroke-width="2"
   stroke-miterlimit="10"
   d="  M331.132,148.975c1.969,0,3.886,0,5.859,0c0,9.833,0,19.616,0,29.453c-1.958,0-3.875,0-5.809,0c-0.005-0.005-0.025-0.021-0.043-0.04  c-0.018-0.018-0.044-0.037-0.047-0.058c-0.021-0.129-0.048-0.257-0.048-0.385c0.001-9.565,0.005-19.13,0.012-28.695  C331.055,149.177,331.095,149.104,331.132,148.975z" />
<path
   id="path29"
   inkscape:connector-curvature="0"
   fill="#0000FF"
   stroke="#FFFFFF"
   stroke-width="2"
   stroke-miterlimit="10"
   d="  M486.964,158.278c1.944,0,3.884,0,5.877,0c0,6.732,0,13.415,0,20.15c-1.96,0-3.878,0-5.811,0c-0.006-0.006-0.025-0.022-0.044-0.041  c-0.018-0.018-0.044-0.036-0.048-0.058c-0.019-0.127-0.047-0.257-0.047-0.385c-0.002-6.437,0-12.874,0.004-19.311  C486.896,158.532,486.934,158.432,486.964,158.278L486.964,158.278z" />
<path
   id="path31"
   inkscape:connector-curvature="0"
   fill="#0000FF"
   stroke="#FFFFFF"
   stroke-width="0.75"
   stroke-miterlimit="10"
   d="  M486.658,137.12c0-1.108,0.013-2.125-0.007-3.141c-0.008-0.441,0.15-0.735,0.541-0.949c0.73-0.4,1.454-0.819,2.166-1.251  c0.349-0.212,0.655-0.242,1.016-0.022c0.734,0.448,1.48,0.876,2.232,1.293c0.361,0.2,0.515,0.467,0.508,0.883  c-0.02,1.042-0.006,2.084-0.006,3.114c0.037,0.053,0.057,0.108,0.097,0.134c1.024,0.67,1.024,0.669,2.063,0.07  c0.43-0.248,0.864-0.486,1.285-0.744c0.297-0.18,0.572-0.201,0.878-0.022c0.786,0.463,1.578,0.917,2.37,1.369  c0.275,0.157,0.405,0.374,0.401,0.699c-0.011,0.938-0.01,1.877,0,2.816c0.005,0.324-0.122,0.534-0.404,0.689  c-0.615,0.341-1.225,0.695-1.827,1.057c-0.692,0.417-0.708,1.574-0.025,1.989c0.579,0.351,1.164,0.695,1.762,1.015  c0.365,0.196,0.514,0.459,0.502,0.877c-0.025,0.86-0.026,1.722,0.001,2.581c0.012,0.423-0.149,0.674-0.512,0.87  c-0.71,0.385-1.415,0.783-2.1,1.211c-0.404,0.253-0.754,0.264-1.159,0.01c-0.596-0.374-1.209-0.722-1.825-1.058  c-0.631-0.344-1.481,0.144-1.501,0.86c-0.017,0.678-0.021,1.356,0.003,2.034c0.016,0.442-0.136,0.735-0.53,0.949  c-0.755,0.411-1.495,0.851-2.235,1.289c-0.293,0.174-0.561,0.218-0.873,0.03c-0.782-0.471-1.571-0.928-2.37-1.37  c-0.344-0.192-0.456-0.468-0.449-0.837c0.008-0.652,0.008-1.304,0-1.957c-0.011-0.905-0.809-1.384-1.587-0.951  c-0.615,0.343-1.226,0.692-1.827,1.056c-0.326,0.196-0.617,0.206-0.949,0.007c-0.761-0.454-1.53-0.895-2.305-1.326  c-0.309-0.171-0.436-0.402-0.43-0.757c0.018-0.913,0.02-1.826,0-2.738c-0.009-0.366,0.15-0.581,0.449-0.748  c0.615-0.344,1.229-0.688,1.83-1.054c0.627-0.384,0.628-1.581,0.002-1.964c-0.579-0.352-1.164-0.692-1.762-1.012  c-0.362-0.192-0.533-0.442-0.521-0.867c0.025-0.886,0.019-1.773,0.003-2.66c-0.007-0.356,0.128-0.587,0.435-0.759  c0.771-0.434,1.541-0.875,2.302-1.33c0.33-0.197,0.62-0.19,0.946,0.01c0.554,0.341,1.141,0.633,1.686,0.989  c0.404,0.263,0.757,0.276,1.139-0.014C486.25,137.355,486.457,137.246,486.658,137.12L486.658,137.12z M492.578,141.899  c1.226-0.572,1.226-0.572,1.226-1.791c0-1.541-0.005-1.532-1.359-2.239c-0.291-0.152-0.521-0.159-0.795,0.012  c-0.419,0.262-0.86,0.487-1.279,0.747c-0.321,0.199-0.62,0.234-0.942,0.012c-0.149-0.103-0.315-0.18-0.475-0.271  c-1.345-0.775-1.339-0.768-2.614,0.069c-0.271,0.178-0.391,0.381-0.38,0.702c0.017,0.546-0.011,1.093,0.008,1.639  c0.025,0.733,0.986,1.251,1.639,0.889c0.523-0.29,1.057-0.566,1.551-0.899c0.494-0.332,0.923-0.352,1.433-0.017  C491.237,141.18,491.934,141.533,492.578,141.899z M489.406,148.171c0.116-0.489-0.112-0.773-0.537-0.988  c-0.531-0.271-1.025-0.616-1.56-0.881c-0.479-0.238-0.69-0.569-0.66-1.112c0.036-0.648,0.021-1.3,0.004-1.949  c-0.019-0.707-0.943-1.246-1.563-0.914c-0.479,0.258-0.954,0.531-1.419,0.816c-0.626,0.386-0.62,1.568,0.011,1.952  c0.576,0.352,1.157,0.698,1.755,1.011c0.401,0.208,0.551,0.496,0.532,0.939c-0.028,0.597-0.012,1.195-0.005,1.793  c0.011,0.92,0.916,1.462,1.705,1.023c0.409-0.227,0.8-0.49,1.218-0.696C489.322,148.955,489.521,148.651,489.406,148.171  L489.406,148.171z M496.499,144.08c0.127-0.524-0.117-0.827-0.573-1.046c-0.42-0.203-0.809-0.471-1.219-0.692  c-0.659-0.358-1.578,0.187-1.595,0.945c-0.014,0.572-0.041,1.147,0.006,1.715c0.054,0.649-0.151,1.08-0.76,1.366  c-0.563,0.264-1.094,0.601-1.623,0.929c-0.571,0.355-0.578,1.41-0.01,1.766c0.483,0.304,0.983,0.583,1.486,0.855  c0.616,0.333,1.566-0.198,1.587-0.891c0.02-0.675,0.025-1.354-0.003-2.027c-0.017-0.42,0.144-0.679,0.507-0.873  c0.527-0.279,1.021-0.625,1.557-0.886C496.369,144.993,496.645,144.663,496.499,144.08L496.499,144.08z M491.652,150.735  c-0.585-0.34-1.044-0.623-1.52-0.873c-0.12-0.063-0.324-0.081-0.438-0.022c-0.497,0.255-0.976,0.547-1.594,0.902  c0.619,0.34,1.087,0.613,1.571,0.851c0.12,0.061,0.32,0.056,0.44-0.004C490.595,151.344,491.059,151.068,491.652,150.735  L491.652,150.735z M498.777,146.727c-0.611-0.358-1.067-0.636-1.536-0.892c-0.102-0.055-0.272-0.085-0.366-0.038  c-0.52,0.257-1.047,0.512-1.584,0.957c0.576,0.317,1.043,0.584,1.521,0.83c0.099,0.051,0.265,0.064,0.36,0.017  C497.67,147.347,498.154,147.069,498.777,146.727z M495.26,138.388c0.668,0.38,1.215,0.691,1.764,1.004  c0.576-0.336,1.099-0.641,1.727-1.008c-0.58-0.343-1.013-0.619-1.467-0.853c-0.14-0.072-0.37-0.089-0.504-0.021  C496.303,137.751,495.851,138.04,495.26,138.388z M484.521,146.715c-0.617-0.355-1.096-0.643-1.59-0.905  c-0.096-0.051-0.268-0.043-0.365,0.009c-0.489,0.262-0.964,0.548-1.576,0.903c0.689,0.381,1.225,0.677,1.779,0.984  C483.324,147.394,483.854,147.093,484.521,146.715z M484.498,138.388c-0.566-0.338-0.996-0.623-1.454-0.85  c-0.155-0.077-0.413-0.075-0.569,0.003c-0.457,0.226-0.888,0.508-1.457,0.845c0.593,0.339,1.073,0.625,1.565,0.888  c0.095,0.05,0.262,0.05,0.356,0C483.432,139.011,483.91,138.725,484.498,138.388L484.498,138.388z M480.489,139.228  c0,0.701-0.007,1.189,0.005,1.677c0.004,0.121,0.032,0.292,0.113,0.35c0.486,0.348,0.977,0.701,1.652,0.886  c0-0.592,0.018-1.081-0.01-1.566c-0.01-0.158-0.092-0.373-0.213-0.453C481.592,139.832,481.12,139.586,480.489,139.228  L480.489,139.228L480.489,139.228z M491.618,142.494c-0.594-0.35-1.029-0.621-1.481-0.862c-0.12-0.064-0.324-0.094-0.434-0.035  c-0.483,0.264-0.996,0.494-1.504,0.933c0.544,0.315,0.979,0.588,1.435,0.816c0.135,0.068,0.361,0.07,0.495,0.003  C490.584,143.119,491.018,142.844,491.618,142.494L491.618,142.494z M487.652,143.346c0,0.709-0.003,1.243,0.003,1.777  c0.001,0.074,0.027,0.154,0.063,0.22c0.144,0.252,1.246,0.79,1.701,0.819c0-0.467,0.015-0.933-0.008-1.396  c-0.009-0.166-0.059-0.401-0.175-0.479C488.775,143.975,488.279,143.712,487.652,143.346z M490.354,146.308  c0.649-0.233,1.114-0.551,1.584-0.851c0.091-0.058,0.164-0.211,0.168-0.324c0.017-0.535,0.008-1.071,0.008-1.777  c-0.616,0.356-1.105,0.626-1.577,0.922c-0.092,0.058-0.171,0.21-0.175,0.323C490.344,145.134,490.354,145.667,490.354,146.308z   M487.65,151.588c0,0.703-0.009,1.215,0.007,1.728c0.003,0.116,0.054,0.282,0.14,0.337c0.488,0.313,0.953,0.686,1.621,0.819  c0-0.568,0.02-1.082-0.013-1.593c-0.009-0.15-0.128-0.345-0.257-0.428C488.722,152.173,488.269,151.938,487.65,151.588z   M492.116,151.58c-0.635,0.365-1.088,0.61-1.521,0.887c-0.113,0.073-0.225,0.241-0.23,0.371c-0.026,0.532-0.011,1.065-0.011,1.766  c0.626-0.359,1.102-0.613,1.554-0.903c0.108-0.069,0.193-0.253,0.199-0.389C492.13,152.8,492.116,152.286,492.116,151.58z   M497.497,142.269c0.628-0.369,1.114-0.642,1.584-0.941c0.091-0.059,0.165-0.213,0.169-0.325c0.018-0.529,0.007-1.06,0.007-1.777  c-0.636,0.371-1.121,0.642-1.592,0.939c-0.089,0.056-0.156,0.213-0.159,0.326C497.487,141.023,497.497,141.556,497.497,142.269z   M491.521,133.668c-0.446-0.481-0.993-0.67-1.471-0.958c-0.075-0.045-0.219-0.055-0.292-0.013c-0.5,0.288-1.069,0.478-1.5,0.985  c0.47,0.276,0.881,0.546,1.318,0.762c0.159,0.079,0.418,0.098,0.572,0.022C490.605,134.242,491.034,133.958,491.521,133.668z   M499.221,147.575c-0.578,0.331-1.049,0.584-1.497,0.87c-0.111,0.07-0.21,0.245-0.217,0.377c-0.023,0.531-0.01,1.064-0.01,1.624  c1.599-0.497,1.799-0.758,1.77-2.214C499.263,148.078,499.245,147.925,499.221,147.575z M482.255,150.522  c0-0.662,0.01-1.199-0.008-1.735c-0.004-0.112-0.081-0.264-0.172-0.322c-0.471-0.296-0.935-0.612-1.478-0.814  c-0.335,1.67-0.246,1.877,1.083,2.598C481.813,150.323,481.954,150.381,482.255,150.522z M489.404,135.555  c-0.579-0.427-1.064-0.784-1.71-0.946c-0.069,0.634-0.086,1.21,0.022,1.917C488.327,136.174,488.829,135.885,489.404,135.555  L489.404,135.555z M492.065,136.515c0-0.718,0-1.292,0-1.945c-0.632,0.27-1.174,0.517-1.67,1.011  C490.965,135.9,491.469,136.182,492.065,136.515z M488.833,137.093c0.996,0.793,1.153,0.792,2.069,0.011  C490.014,136.289,489.88,136.286,488.833,137.093z M484.586,149.821c-0.51-0.288-0.806-0.613-1.274-0.618c0,0.439,0,0.83,0,1.327  C483.751,150.285,484.097,150.093,484.586,149.821z M496.044,139.952c-0.5-0.269-0.823-0.443-1.237-0.668c0,0.5,0,0.863,0,1.358  C495.231,140.404,495.554,140.225,496.044,139.952z M496.437,150.519c0-0.513,0-0.921,0-1.446c-0.448,0.271-0.785,0.472-1.239,0.746  C495.684,150.093,496.031,150.289,496.437,150.519z M484.985,139.241c-0.466,0.277-0.779,0.463-1.235,0.733  c0.487,0.252,0.826,0.427,1.235,0.639C484.985,140.124,484.985,139.773,484.985,139.241z M495.274,141.533  c0.455,0.256,0.785,0.441,1.177,0.663c0-0.497,0-0.86,0-1.34C496.035,141.095,495.72,141.277,495.274,141.533z M483.307,140.841  c0,0.516,0,0.883,0,1.39c0.426-0.264,0.749-0.463,1.158-0.717C484.039,141.268,483.736,141.091,483.307,140.841z M483.85,148.235  c0.42,0.229,0.735,0.401,1.112,0.605c0-0.458,0-0.793,0-1.254C484.56,147.821,484.262,147.995,483.85,148.235z M495.942,148.223  c-0.46-0.247-0.762-0.41-1.116-0.601c0,0.459,0,0.795,0,1.248C495.221,148.642,495.504,148.478,495.942,148.223z" />
<g
   id="g2314"
   transform="matrix(1.1636238,0,0,1.1636238,-77.974587,264.65962)">
	<path
   id="path34"
   inkscape:connector-curvature="0"
   fill="#FBB03B"
   d="M577.321,193.902l-1.015,4.816l0.391,9.76l1.015,6.31   l2.227,5.662l1.678,3.516l1.951,1.301l3.213,1.386l4.994,0.604l7.411-0.168l5.854-2.342c0,0,2.343-0.195,2.733,0   c0.39,0.196,5.468,1.773,5.468,1.773l3.124,2.91l3.122,2.928v2.54l-1.991,2.677l-2.89,2.007l-3.104,1.95l-3.729,0.783l-2.957,1.198   l-1.372,2.535l-2.463,1.053c0,0-3.821-0.354-4.426-0.543c-0.603-0.189-4.007-1.512-4.007-1.512s-3.752-1.851-4.645-2.341   c-0.892-0.488-5.896-3.123-5.896-3.123l-5.7-0.587h-6.402c0,0-5.86,1.016-5.857,1.015c0.003-0.003-3.673-0.428-3.673-0.428   l-2.572-1.427l-3.514-2.535v-4.238l2.147-2.846c0,0,4.88-0.313,5.661,0c0.781,0.309,6.052,0.536,6.052,0.536l3.997-0.536v-3.789   l-1.146-6.43l-2.852-6.065l-5.031-10.339l-1.801-5.536l-4.099-5.464l-15.423-27.068l-14.834-2.54l-20.303,17.372l-3.122,16.398   l-0.359,3.73l-2.124,7.943c0,0-2.529,10.695-2.523,10.643c0.006-0.052,0.321,6.672,0.321,6.672l0.78,3.417l3.515,1.595l3.513,1.918   l1.758,0.391l2.146-0.711l2.059-2.135l2.626-0.871l2.837,0.203c0,0,0.258-0.316,1.456,1.205c1.201,1.521,1.172,2.309,1.172,2.309   l0.586,2.324l0.976,1.914c0,0-0.39,1.383-1.172,1.5c-0.78,0.119-2.732,2.461-2.732,2.461l-2.733,1.752l-3.302,0.712   c0,0-4.579,0.243-4.549,0.243c0.03,0-3.118-0.519-3.081-0.51c0.036,0.013-1.394-1.264-1.562-0.243   c-0.169,1.021-1.873,1.981-1.873,1.981s-1.738,0.237-3.119,0.233c-1.385-0.003-2.317,0.018-3.006-0.233   c-0.689-0.253-0.965-0.271-1.771-0.809c-0.808-0.535-2.865-2.385-2.865-2.385l-2.11-0.381l-2.299,1.595l-4.429,1.95   c0,0-3.073,0.629-3.216,0.029c-0.14-0.6-3.814-1.227-3.814-1.227s-1.876-1.51-2.241-1.882c-1.049-1.073-1.663-5.703-1.663-5.703   l2.344-4.1l2.289-0.389l6.738,0.78l5.416-0.431l0.971-2.025l0.223-3.27l-0.125-5.73l-0.243-8.444l0.248-8.211l-0.206-4.686   l-1.258-5.076l0.391-4.432c0,0,10.15-23.485,11.321-23.873c1.17-0.389,31.864-9.175,31.864-9.175l30.6,8.588l11.907,9.369   l4.101,8.199v12.104H577.321L577.321,193.902z" />
	<path
   id="path36"
   inkscape:connector-curvature="0"
   fill="#333333"
   d="M631.979,241.533l-5.372-4.21l-5.561-1.18l-2.1-0.52   l-2.584-1.914l-1.758-1.404l-0.586-1.928l-2.927-1.838l-2.106-0.668l-2.321,0.643l-1.625-3.764l6.246-0.78l7.223,2.469l3.292,2.101   c0,0,1.37,2.875,2.368,2.846c1.003-0.029,2.54,2.325,2.54,2.325l4.348,3.414L631.979,241.533z" />
	<polygon
   id="polygon38"
   fill="#333333"
   points="614.605,246.013 614.605,246.977 610.595,244.265 607.773,242.316 603.869,242.316    600.656,241.328 597.636,238.996 597.636,236.125 599.185,235.676 605.04,236.465 609.725,239.582 611.5,241.533  " />
	<path
   id="path40"
   inkscape:connector-curvature="0"
   fill="#333333"
   d="M556.434,235.621h-5.27l-3.123,1.699l-2.928,4.007   l-2.982,2.42l0.775-4.064l2.207-4.195l3.708-2.739l3.408-2.375l3.445-0.834l2.902,0.563l1.131,2.646   C559.709,232.75,558.582,236.736,556.434,235.621L556.434,235.621z" />
	<path
   id="path42"
   inkscape:connector-curvature="0"
   fill="#333333"
   d="M520.711,231.383h2.732h3.241l2.219,1.367l2.943,2.871   l1.224,1.699l1.005,2.26l1.177,2.734l0.29,1.949l-1.469-2.24l-3.364-3.525c0,0-2.584-2.125-3.172-2.375   c-0.583-0.252-4.099-0.504-4.099-0.504h-1.171l-1.914-1.914L520.711,231.383z" />
	<path
   id="path44"
   inkscape:connector-curvature="0"
   fill="#333333"
   d="M497.287,230.992l2.992,2.715l1.341,2.436l0.388,3.438   l-0.424,2.706l-0.799,2.759l-0.734,1.93l-0.859,1.975l-1.514,3.123l-0.076-4.293l-0.919-3.516l-0.895-2.937   c0,0-1.111-2.918-0.979-3.502c0.135-0.586-0.423-2.205-0.423-2.205l0.411-2.871L497.287,230.992z" />
	<polygon
   id="polygon46"
   fill="#333333"
   points="465.28,236.143 467.955,232.75 470.932,230.992 474.252,230.992 475.372,232.453    475.372,235.17 472.401,237.576 466.757,241.328 463.582,245.047 463.508,246.977 463.508,242.276  " />
	<polygon
   id="polygon48"
   fill="#E6E6E6"
   points="451.153,221.627 445.363,223.184 437.359,223.993 431.502,223.993 413.544,225.267    404.762,226.215 397.732,227.089 394.413,225.668 392.371,225.267 401.488,219.539 420.18,211.096 427.024,205.008    432.253,200.342 437.359,195.076 470.738,165.6 478.454,169.699 485.183,172.434 487.527,177.117 487.527,188.691 488.503,199.561    488.412,209.13 487.917,212.252 486.355,216.135 483.993,219.539 480.89,221.883 478.454,221.883 475.372,221.883 473.862,221.231    470.738,222.814 467.225,223.445 463.163,223.914 460.588,222.525 458.246,220.451 455.904,219.754  " />
	<path
   id="path50"
   inkscape:connector-curvature="0"
   fill="#5A4031"
   d="M500.995,195.076h-5.031l-6.485-1.561l-3.015-1.955   l-1.281-1.955l-1.109-2.73l-0.825-1.668l-2.358-1.846l-2.148-2.341l-0.287-2.341l0.246-3.125l0.416-3.119l16.217-60.514   l56.805-67.932l8.394-17.569L559.561-38l6.262-4.313l1.814-6.033l18.667-8.394l38.259,12.103l23.036,9.37l7.809,10.541l3.123,7.027   l3.668,5.289l4.54,6.814l4.704,7.435l6.925,12.133l4.033,8.761l1.731,5.827l0.193,2.948l-1.203,1.933c0,0-0.216,0.025-0.388,1.175   s0,6.637,0,6.637l-2.672,14.951l-3.323,10.036l-3.256,5.857l-2.04,2.221l-3.153,0.511h-1.562L665.322,76l-2.988,3.267l-4.664,5.231   l-4.764,5.504l-6.285,5.91l-19.106,25.589l-21.105,23.211l-8.977,6.637l-4.18,3.898l-0.7,2.738l-0.391,6.051l-4.49,17.915   l-2.731,7.656l-4.999,3.514c0,0-3.085,1.704-3.63,1.438c-0.547-0.269-4.162,1.782-4.162,1.782l-3.021,2.361l-3.904,1.258   l-3.318,0.578l-4.101-0.391l-1.365-0.188l-3.506-1.764h-3.131l-2.931-2.342l-1.752-4.297l-2.949-6.354l-1.576-5.748l-1.917-4.685   l-1.952-4.257l-2.641-0.817l-2.284,7.205l-3.78,8.413c0,0-2.896,4.2-3.409,4.672c-0.514,0.469-2.344,1.572-2.344,1.572h-3.795   l-2.827-2.341l-5.077,2.813l-5.855,2.216L500.995,195.076z" />
	<path
   id="path52"
   inkscape:connector-curvature="0"
   fill="#6F4F3C"
   d="M472.401,176.531l27.228-21.865l22.63-18.709l5.089-3.549   l17.765-7.021l25.788-28.303l7.863-12.493l15.148-29.865l6.807-22.448V20.173L598.963,7.68c0,0-1.73-7.417-1.535-8.003   c0.195-0.585-0.858-7.223-0.858-7.223L590.206-25.7l-7.614-8.784l-7.613-5.271l-9.159-2.556h-8.408l-15.226,4.302l-5.466,2.798   l-11.055,5.565L503.052-14.29L488.649,1.433L465.49,38.648l-10.702,22.518l-5.222,18.311l-5.075,25.401l-0.541,9.388l0.314,4.514   l-0.635,5.88c0,0-4.085,6.669-3.192,7.951c0.893,1.281-0.932,8.004-0.932,8.004v5.076l0.185,3.317l0.747,4.101l1.282,3.32   l2.08-0.78l-2.08,6.83v5.467l1.104,3.318l0.977,2.409l-7.724,8.82l-4.964,6.201l-1.236,6.946l1.236,4.236l3.905,0.088l5.42-1.764   l17.809-10.542L472.401,176.531z" />
	<path
   id="path54"
   inkscape:connector-curvature="0"
   fill="#FFFFFF"
   d="M660.088-18.869l-4.581-9.525l-6.158-16.77l-1.405-8.854   v-13.55l1.925-10.914l3.18-10.708l0.762-8.357l-1.622-7.64l-4.244-6.6l-3.349-5.005l-8.451-6.243l-15.676-4.438l-16.657,1.83   l-10.624,5.15l-9.484,9.2l-4.429,7.315l-4.294,9.37l-0.049,4.039l1.042,2.653l-1.042,3.725l-3.224,9.154L566.837-63l-2.939,7.84   l0.015,2.862l2.478-4.173l1.561,7.151l2.537,0.194c0,0,4.88-2.537,4.88-1.952c0,0.586-0.195,5.076-0.195,5.076l1.172,1.171   l1.366-0.92l1.203,3.44l1.14,1.775l1.334,0.781l2.18,0.391l1.368-0.781l2.146,2.732l0.195,2.538l1.95,1.366l1.758-1.172   l2.146-3.708l1.953,5.271c0,0,1.563,2.147,1.951,1.562c0.39-0.586,2.341-2.733,2.341-2.733c1.172,0.781,2.539,0.976,3.124,0.781   c0.587-0.195,1.757-1.172,1.757-1.172v2.538l-0.78,4.099l0.587,3.318c1.172,0.391,2.927-0.976,2.927-0.976l2.733-2.733l3.123-4.099   l-0.854,7.808l2.025,5.076l3.515-0.977l0.947,1.757l3.542,1.171l0.78-2.147l0.585-1.562l2.034,3.709c0,0,1.287,0.781,2.065,0.586   c0.782-0.195,3.6,0.781,3.654-0.586c0.057-1.366,0.446-2.928,0.446-2.928l0.194,8.003l2.148,3.514l0.976,0.976l2.733-4.685   l0.813-4.88l0.552-4.49l2.241,6.247l1.859,2.733l1.562,2.928l0.041-5.661l-0.235-5.271l0.391-5.661l2.927,6.247l2.466,2.928   l1.7,2.733l1.299-3.709l-2.146-3.123l-1.375-2.929l-1.943-4.294l-0.391-2.342l6.44,6.153l2.77,3.201L660.088-18.869z" />
	<g
   id="g61"
   transform="translate(-22.309859,-206.87324)">
		<g
   id="g59">
			<path
   id="path57"
   inkscape:connector-curvature="0"
   d="M682.734,188.743c-3.53-9.367-8.008-18.257-10.436-28.028     c-2.832-11.393-1.241-24.594,2.29-35.644c4.689-14.678,2.524-28.579-9.353-39.103c-11.362-10.068-28.179-11.3-42.001-6.245     c-16.095,5.886-23.563,21.094-27.351,36.719c-0.164,0.676,0.304,5.331,1.64,3.518c0.77-1.046,1.579-2.058,2.349-3.104     c-0.551-1.183-1.104-2.365-1.653-3.548c-3.007,14.92-10.816,28.236-14.934,42.822c-0.222,0.785,0.547,5.918,1.812,3.887     c2.693-4.328,5.102-8.815,8.203-12.875c-0.546-1.496-1.091-2.992-1.637-4.488c-1.641,4.832-3.439,9.607-5.078,14.439     c-0.201,0.596-0.067,6.213,1.347,4.801c1.563-1.562,3.124-3.123,4.685-4.684c-0.368-1.754-0.735-3.508-1.104-5.262     c-0.705,1.019-1.247,2.102-1.954,3.123c-0.645,0.933-1.131,4.821,0.431,5.28c3.511,1.031,6.64,0.213,9.263-2.357     c-0.368-1.756-0.735-3.512-1.104-5.268c-2.248,3.213-3.115,6.444-2.456,10.312c0.089,0.519,0.406,2.219,1.271,2.097     c3.239-0.457,5.068-2.522,6.878-5.094c-0.549-1.506-1.097-3.011-1.647-4.517c-1.512,3.783-3.107,8.066-1.674,12.109     c1.766,4.985,6.421,4.185,9.176,0.61c-0.655-0.82-1.313-1.641-1.969-2.461c-0.042,2.737-0.384,8.719,2.853,10.077     c2.98,1.25,5.855-5.144,6.779-6.902c-0.739-0.667-1.479-1.335-2.217-2.003c-0.06,3.769,0.026,7.143,1.603,10.619     c0.224,0.493,0.658,1.026,1.243,0.711c2.224-1.195,3.615-2.892,4.972-5.003c-0.625-0.555-1.25-1.109-1.877-1.664     c0.086,0.921,0.196,1.839,0.332,2.755c0.063,0.764,0.298,3.283,1.642,2.707c2.412-1.035,3.918-2.451,5.359-4.609     c-0.593-1.274-1.188-2.548-1.781-3.823c-1.284,5.332-1.887,10.364-1.222,15.83c0.084,0.692,0.514,2.377,1.537,1.902     c4.185-1.938,6.309-6.495,8.86-10.086c-0.617-0.771-1.234-1.542-1.851-2.313c-0.023,2.676-1.519,13.627,1.725,15.062     c5.464,2.416,5.663-8.108,5.69-11.216c0.029-3.164-2.199-3.025-2.297,0.057c-0.133,4.146-1.285,10.514,2.294,13.585     c3.578,3.07,6.05-8.981,6.168-10.632c0.156-2.177-1.739-4.686-2.138-1.277c-0.421,3.616-0.869,10.954,3.208,12.807     c4.509,2.05,5.768-9.209,6.438-11.3c-0.592-0.75-1.185-1.501-1.776-2.252c-1.223,7.958-1.905,16.236,3.605,22.815     c0.366,0.437,0.825,0.44,1.167-0.029c4.106-5.629,3.742-13.39,4.729-19.979c-0.725-0.206-1.448-0.411-2.174-0.616     c-0.138,6.826,2.43,12.604,5.422,18.605c0.854,1.712,1.751-0.148,1.855-1.185c0.689-6.878-0.248-13.717-0.335-20.599     c-0.645,0.642-1.288,1.284-1.933,1.925c2.789,5.865,6.115,11.396,9.6,16.868c0.678,1.063,1.497-0.397,1.604-1.018     c0.541-3.133,0.527-6.271-0.702-9.266c-1.767-4.307-6.193-8.4-6.288-13.192c-0.532,0.737-1.064,1.473-1.597,2.21     c5.138,4.868,8.973,10.887,14.11,15.756c1.383,1.31,1.485-2.398,1.254-3.076c-0.187-0.547-0.372-1.043-0.629-1.561     c-0.112,1.232-0.222,2.465-0.336,3.698c0.024-0.014,0.05-0.029,0.073-0.043c1.164-0.697,0.593-4.967-0.617-4.242     c-0.023,0.014-0.048,0.029-0.072,0.043c-1.01,0.605-0.741,2.845-0.335,3.698c0.099,0.231,0.196,0.462,0.295,0.694     c0.419-1.025,0.837-2.05,1.255-3.076c-5.107-5.044-8.889-11.213-13.997-16.257c-1.232-1.218-1.604,1.478-1.597,2.21     c0.021,2.627,0.617,4.956,1.68,7.352c1.687,3.801,6.142,7.851,5.383,12.354c0.534-0.339,1.068-0.679,1.604-1.018     c-3.323-5.164-6.477-10.389-9.139-15.927c-1.051-2.185-1.946,0.965-1.933,1.925c0.103,6.411,1.068,12.816,0.446,19.224     c0.619-0.395,1.235-0.79,1.855-1.185c-2.43-4.817-4.826-9.417-4.73-14.97c0.039-2.293-1.763-3.419-2.173-0.616     c-0.621,4.251-0.776,8.535-1.783,12.729c-0.296,1.161-0.778,2.237-1.446,3.229c-0.096,0.153-2.361-4.454-2.489-4.872     c-1.081-3.53-0.165-7.836,0.385-11.402c0.139-0.895-1.018-4.486-1.776-2.252c-0.753,2.214-1.089,4.539-1.813,6.765     c-0.426,1.31-1.721,4.08-3.511,2.405c-1.268-1.187-0.825-4.547-0.649-6.101c-0.713-0.426-1.425-0.852-2.138-1.277     c-0.104,1.485-1.15,7.772-3.557,6.941c-1.529-0.528-0.546-6.608-0.496-7.972c-0.758-0.215-1.516-0.429-2.273-0.644     c-0.015,1.034-0.112,2.056-0.23,3.083c-0.191,1.633-2.279,5.025-2.498,1.565c-0.181-2.864-0.041-5.743-0.006-8.609     c0.008-0.653-0.733-3.872-1.852-2.313c-2.411,3.357-4.392,7.646-8.317,9.434c0.513,0.634,1.026,1.268,1.538,1.902     c-0.473-3.995,0.175-7.637,1.12-11.498c0.177-0.723-0.427-5.832-1.781-3.823c-1.302,1.93-2.673,3.087-4.791,3.98     c0.547,0.902,1.094,1.805,1.642,2.707c-0.113-1.433-0.306-2.844-0.448-4.273c-0.067-0.671-0.963-3.073-1.876-1.664     c-1.198,1.848-2.409,3.315-4.397,4.367c0.415,0.237,0.828,0.474,1.244,0.711c-0.98-2.185-0.777-4.31-0.744-6.56     c0.02-1.247-1.037-4.249-2.217-2.003c-0.921,1.749-1.898,3.503-3.401,4.821c-2.183,1.911-1.813-3.054-1.799-3.989     c0.013-0.743-0.734-4.063-1.969-2.461c-1.287,1.67-2.752,2.782-4.904,1.936c-1.82-0.715,0.269-4.546,0.695-5.613     c0.383-0.958-0.191-6.586-1.646-4.517c-1.533,2.182-2.843,3.882-5.62,4.275c0.425,0.699,0.849,1.398,1.272,2.097     c-0.141-1.448,0.344-2.695,1.451-3.743c0.718-1.027,0.156-6.504-1.104-5.268c-2.185,2.143-4.863,3.224-7.917,2.329     c0.144,1.76,0.287,3.52,0.431,5.28c0.704-1.019,1.246-2.104,1.952-3.125c0.714-1.033,0.133-6.498-1.103-5.262     c-1.562,1.562-3.123,3.125-4.686,4.687c0.449,1.6,0.898,3.2,1.347,4.801c1.639-4.836,3.435-9.616,5.073-14.452     c0.292-0.861-0.039-6.58-1.636-4.488c-3.1,4.065-5.505,8.558-8.196,12.892c0.603,1.295,1.207,2.591,1.812,3.887     c4.124-14.647,11.798-28.056,14.738-43.07c0.123-0.629-0.3-5.417-1.653-3.548c-0.767,1.059-1.572,2.083-2.339,3.142     c0.547,1.172,1.094,2.345,1.641,3.518c2.034-8.601,4.749-16.52,10.398-23.423c4.884-5.967,11.749-10.07,19.081-12.241     c14.542-4.306,30.869-0.43,41.006,10.986c6.276,7.069,7.759,15.686,5.31,24.659c-1.099,4.026-2.637,7.871-3.396,11.989     c-0.822,4.462-0.938,9.169-1.116,13.694c-0.306,7.804,0.773,15.29,3.288,22.673c2.68,7.866,6.727,15.222,9.582,23.034     C682.475,191.516,682.955,189.328,682.734,188.743L682.734,188.743z" />
		</g>
	</g>
	<g
   id="g67"
   transform="translate(-22.309859,-206.87324)">
		<g
   id="g65">
			<path
   id="path63"
   inkscape:connector-curvature="0"
   d="M680.615,189.719c3.905,8.418,9.723,16.099,14.398,24.106     c2.794,4.784,5.469,9.645,7.735,14.703c0.932,2.081,4.497,8.588,1.929,10.465c-1.717,1.255-0.059,6.203,0.99,4.725     c0.926-1.303,0.544-2.942,0.169-4.361c-0.052-0.196-0.267-0.706-0.561-0.498c0.094,0.125,0.188,0.25,0.282,0.375     c-0.052,1.584-0.104,3.168-0.154,4.753c7.518-5.52-2.279-21.839-5.187-27.242c-3.352-6.227-7.092-12.352-11.195-18.11     c-2.456-3.448-4.856-7.445-8.115-10.196C680.51,188.103,680.536,189.548,680.615,189.719L680.615,189.719z" />
		</g>
	</g>
	<g
   id="g73"
   transform="translate(-22.309859,-206.87324)">
		<g
   id="g71">
			<path
   id="path69"
   inkscape:connector-curvature="0"
   d="M692.3,214.903c2.306,7.134,7.198,13.057,9.752,20.086     c2.188,6.023,2.01,12.061,0.992,18.243c-1.402,8.528-3.79,23.613-13.247,26.826c0.541,0.669,1.082,1.338,1.623,2.007     c-0.271-1.318-0.366-2.654-0.476-3.996c-0.047-0.575-0.117-2.195-0.874-2.428c0.065,0.195,0.132,0.389,0.197,0.584     c0.034-1.229-0.945-1.21-0.904,0.022c-0.027-0.844-0.626,1.515-0.636,1.876c-0.048,1.862-0.02,3.715,0.265,5.559     c0.095,0.612,0.392,2.142,1.286,2.12c4.851-0.12,7.811-6.334,9.532-10.057c2.938-6.348,4.478-13.526,5.528-20.405     c0.951-6.232,1.219-12.102-0.488-18.253c-2.219-7.998-7.848-16.109-12.166-23.13C692.394,213.484,692.239,214.717,692.3,214.903     L692.3,214.903z" />
		</g>
	</g>
	<g
   id="g79"
   transform="translate(-22.309859,-206.87324)">
		<g
   id="g77">
			<path
   id="path75"
   inkscape:connector-curvature="0"
   d="M699.473,247.499c-1.693,6.016-2.955,12.069-5.234,17.917     c-1.334,3.416-2.968,6.698-5.273,9.562c-1.851,2.297-4.633,2.493-6.497,4.416c-0.517,0.53-0.326,1.971,0.197,2.423     c4.838,4.167,11.28-9.702,12.471-12.555c2.704-6.481,4.723-13.803,5.374-20.809C700.579,247.703,699.895,246,699.473,247.499     L699.473,247.499z" />
		</g>
	</g>
	<g
   id="g85"
   transform="translate(-22.309859,-206.87324)">
		<g
   id="g83">
			<path
   id="path81"
   inkscape:connector-curvature="0"
   d="M685.546,266.012c-1.981,7.15-7.673,13.766-13.858,17.65     c-0.488,0.308-0.537,2.488,0.198,2.375c4.002-0.616,6.899-4.497,9.131-7.585c2.47-3.417,4.475-7.347,5.26-11.511     C686.382,266.38,685.881,264.804,685.546,266.012L685.546,266.012z" />
		</g>
	</g>
	<g
   id="g91"
   transform="translate(-22.309859,-206.87324)">
		<g
   id="g89">
			<path
   id="path87"
   inkscape:connector-curvature="0"
   d="M665.84,273.996c0.179-0.436,0.347-0.875,0.503-1.319     c0.084-0.228,0.094-2.22-0.488-1.742c-3.921,3.221-6.326,7.466-8.67,11.893c-1.57,2.968-3.2,5.861-5.099,8.63     c-0.722,1.053-1.569,2.394-2.902,2.676c-1.845,0.389-2.204-5.522-2.356-6.675c-0.053-0.399-0.599-1.928-1.167-1.035     c-2.968,4.656-5.26,9.253-9.616,12.835c0.377,0.467,0.754,0.932,1.132,1.4c-0.849-4.659,1.797-9.62,3.088-14.02     c0.26-0.887-0.524-4.512-1.489-2.487c-1.789,3.756-4.801,7.488-8.058,10.042c-4.962,3.892-3.577-6.894-3.513-9.392     c0.01-0.356-0.451-3.038-1.354-2.232c-2.248,2.005-4.82,3.423-7.384,4.978c-3.063,1.856-5.192,5.044-7.766,7.471     c-2.703,2.55-6.481,3.846-10.023,4.633c-1.698,0.377-4.088,1.26-5.609,0.68c-0.927-0.352-0.804,2.157-0.246,2.568     c1.104,0.812,0.853,2.543,2.962,2.287c3.511-0.426,6.777-1.216,9.96-2.766c3.39-1.651,5.799-4.706,8.243-7.463     c2.947-3.328,7.238-4.912,10.519-7.87c-0.451-0.745-0.902-1.49-1.355-2.233c-0.091,3.947-2.044,13.369,3.422,14.71     c4.231,1.039,10.184-9.602,11.557-12.498c-0.496-0.829-0.994-1.658-1.49-2.487c-1.631,5.594-4.26,11.263-3.161,17.211     c0.058,0.315,0.457,1.96,1.132,1.4c4.55-3.775,7.048-8.637,9.905-13.712c-0.389-0.345-0.778-0.69-1.167-1.035     c0.573,3.715,1.587,12.047,6.652,7.357c2.493-2.308,4.064-6.184,5.634-9.167c2.521-4.793,4.8-9.865,8.617-13.79     c-0.232-0.389-0.467-0.778-0.702-1.167c-0.091,0.548-0.172,1.099-0.243,1.65C665.273,273.586,665.576,274.659,665.84,273.996     L665.84,273.996z" />
		</g>
	</g>
	<g
   id="g97"
   transform="translate(-22.309859,-206.87324)">
		<g
   id="g95">
			<path
   id="path93"
   inkscape:connector-curvature="0"
   d="M465.979,331.102c0.131,0.07,0.264,0.141,0.394,0.213     c0.187,0.1,0.375,0.012,0.483-0.158c1.579-2.5,0.375-7.257,0.222-9.976c-0.493-8.668,2.272-17.699,4.053-26.13     c3.262-15.438,7.818-30.172,15.587-43.975c7.15-12.706,15.34-25.099,23.246-37.347c7.405-11.475,18.05-20.589,29.426-27.956     c5.38-3.484,11.114-6.226,16.824-9.104c6.945-3.501,13.583-7.495,21.366-8.811c5.941-1.004,12.604-1.688,18.177,1.048     c5.969,2.93,10.626,9.161,14.359,14.462c4.31,6.118,6.664,12.679,7.908,20.021c1.285,7.58,2.928,15.366,3.457,23.03     c1.057,15.273-4.605,30.163-11.083,43.695c-11.347,23.708-25.766,46.25-47.989,61.06c-3.382,2.254-10.013,6.664-14.307,5.09     c0.686,0.25,0.123,0.795,0.843-0.766c0.446-0.963,1.031-1.871,1.587-2.77c1.021-1.654,2.169-3.234,3.313-4.806     c6.616-9.094,14.625-17.004,21.455-25.919c0.666-0.869,0.499-6.064-1.041-4.965c-3.871,2.762-7.066,6.34-10.907,9.15     c-2.364,1.73-4.826,2.596-7.755,2.439c-3.482-0.187,0.004-4.433,0.909-6.032c0.446-0.791,0.889-5.343-0.956-4.565     c-4.077,1.725-5.126,0.144-4.242-3.834c0.584-2.623,1.569-5.187,2.67-7.633c0.382-0.85-0.096-5.586-1.409-3.867     c-2.253,2.949-4.445,5.643-7.959,7.076c0.475,0.587,0.95,1.176,1.425,1.762c-0.906-5.609,4.92-11.782,6.168-17.163     c0.238-1.03-0.535-5.526-1.817-3.035c-1.414,2.747-3.328,5.275-5.27,7.663c-1.308,1.609-10.157,9.142-8.495,2.056     c2.22-9.454,8.121-17.617,9.285-27.369c0.016-0.133-0.161-0.711-0.28-0.352c-2.341,7.061-6.667,13.319-9.007,20.451     c-1.318,4.016-3.092,7.793-1.851,12.074c2.905,10.023,15.428-7.567,17.058-10.567c-0.535-1.146-1.068-2.292-1.603-3.438     c-1.867,7.431-7.698,12.961-6.324,21.1c0.112,0.66,0.447,2.178,1.424,1.762c3.746-1.594,6.064-4.573,8.439-7.76     c-0.47-1.289-0.939-2.578-1.409-3.867c-2.253,5.14-8.184,24.304,3.893,19.768c-0.319-1.522-0.639-3.042-0.956-4.563     c-2.43,4.026-6.665,11.013-1.852,14.964c6.551,5.377,17.224-7.853,21.577-10.971c-0.347-1.655-0.693-3.31-1.04-4.965     c-7.209,9.437-15.506,17.937-22.551,27.523c-2.852,3.881-8.461,11.391-4.534,16.303c1.966,2.459,7.071,0.105,9.266-0.674     c6.513-2.314,12.047-7.066,17.297-11.404c10.388-8.59,18.566-19.082,25.63-30.508c13.654-22.082,27.581-48.043,25.098-74.836     c-0.64-6.879-2.112-13.698-3.099-20.54c-0.963-6.666-2.466-13.188-5.635-19.174c-4.848-9.156-12.794-20.418-23.32-23.247     c-7.687-2.066-17.229,0.199-24.393,3.1c-9.058,3.667-18.188,8.649-26.595,13.626c-16.416,9.719-28.348,22.968-37.913,39.278     c-10.585,18.048-22.509,34.669-28.785,54.878c-3.05,9.823-4.873,19.977-6.829,30.057c-0.995,5.118-1.948,10.193-2.279,15.405     c-0.076,1.229-0.373,10.696,0.896,11.235C465.339,327.961,465.252,330.707,465.979,331.102L465.979,331.102z" />
		</g>
	</g>
	<g
   id="g103"
   transform="translate(-22.309859,-206.87324)">
		<g
   id="g101">
			<path
   id="path99"
   inkscape:connector-curvature="0"
   d="M579.531,218.176c-1.19,2.2-2.528,3.53-5.056,4.214     c-4.08,1.104-2.224-6.912-1.831-7.827c0.467-1.088-0.369-5.378-1.467-3.146c-2.081,4.231-7.654,8.888-12.474,9.23     c-7.01,0.498,4.586-17.699,5.949-20.476c0.499-1.017-0.105-6.443-1.636-4.488c-2.367,3.025-5.951,5.257-9.402,6.843     c-0.261,0.12-3.837,1.26-3.685,0.34c0.433-2.611,1.629-9.859,4.822-10.157c0.921-0.086-0.074-2.474-0.331-1.197     c-0.864,4.292-5.782,5.501-6.616,9.857c-0.351,1.833-0.443,5.589,1.555,6.69c4.661,2.569,12.39-4.101,15.05-7.432     c-0.546-1.496-1.091-2.992-1.636-4.488c-3.64,7.262-14.944,20.573-7.059,28.87c5.184,5.453,15.178-6.309,16.929-10.446     c-0.489-1.049-0.978-2.098-1.467-3.146c-1.382,4.339-0.394,8.04,0.229,12.451c0.041,0.294,0.159,0.845,0.535,0.882     c3.943,0.392,7.144-1.647,8.082-5.517C580.073,219.028,579.837,217.61,579.531,218.176L579.531,218.176z" />
		</g>
	</g>
	<g
   id="g109"
   transform="translate(-22.309859,-206.87324)">
		<g
   id="g107">
			<path
   id="path105"
   inkscape:connector-curvature="0"
   d="M482.606,274.891c-0.429,8.481-6.241,15.649-8.47,23.7     c-2.673,9.658-6.147,19.056-8.731,28.759c-1.954,7.332-4.166,14.676-4.924,22.252c-0.345,3.451-0.009,16.932,6.075,15.156     c0.862-0.252,0.939-1.523,0.923-2.266c0.023-0.102,0.049-0.203,0.074-0.307c0.2-0.725-0.544-3.709-1.215-2.028     c0.226-0.566-2.48-3.798-2.633-4.107c-0.677-1.377-0.423-3.264-0.329-4.717c0.239-3.673,1.169-7.316,2.033-10.882     c1.861-7.677,3.376-15.43,5.293-23.094c2.168-8.667,3.724-18.072,7.474-26.183c2.371-5.129,5.294-10.296,5.02-16.114     C483.169,274.471,482.646,274.092,482.606,274.891L482.606,274.891z" />
		</g>
	</g>
	<g
   id="g115"
   transform="translate(-22.309859,-206.87324)">
		<g
   id="g113">
			<path
   id="path111"
   inkscape:connector-curvature="0"
   d="M482.705,334.5c-8.996,14.027-21.146,27.5-19.986,45.229     c0.065,0.989,0.205,3.074,1.52,3.26c1.432,0.206,1.308,0.332,2.356-0.34c1.242-0.793,1.226-4.643-0.131-5.34     c-0.627-0.361-1.294-0.629-2.002-0.801c0.378,1.049,0.756,2.1,1.134,3.15c-1.167-16.41,10.566-30.109,17.564-43.912     C483.316,335.438,483.053,333.957,482.705,334.5L482.705,334.5z" />
		</g>
	</g>
	<g
   id="g121"
   transform="translate(-22.309859,-206.87324)">
		<g
   id="g119">
			<path
   id="path117"
   inkscape:connector-curvature="0"
   d="M493.201,341.439c0.013,7.478-8.4,15.881-12.824,21.308     c-6.523,8.002-14.389,14.615-21.196,22.331c-3.839,4.352-7.284,9.844-8.449,15.588c-1.17,5.764,1.258,10.883,7.706,9.813     c8.268-1.371,15.309-8.619,22.167-12.924c9.869-6.197,19.146-13.038,27.48-21.224c7.545-7.412,13.145-15.98,18.788-24.85     c2.545-3.998,4.795-8.444,7.019-12.645c1.919-3.617,3.581-7.144,4.013-11.248c0.078-0.738-0.637-1.516-0.701-0.42     c-0.608,10.494-7.917,16.721-13.707,24.494c-5.695,7.645-11.669,14.923-18.676,21.426c-7.285,6.76-15.278,12.545-23.782,17.652     c-7.125,4.279-13.67,10.365-21.699,12.908c-2.91,0.922-6.739,1.156-5.336-2.686c1.072-2.936,2.78-5.652,4.492-8.252     c5.026-7.627,11.919-13.967,17.414-21.255c4.146-5.5,8.51-10.852,12.364-16.564c2.601-3.854,5.861-8.723,5.393-13.609     C493.605,340.646,493.2,340.971,493.201,341.439L493.201,341.439z" />
		</g>
	</g>
	<g
   id="g127"
   transform="translate(-22.309859,-206.87324)">
		<g
   id="g125">
			<path
   id="path123"
   inkscape:connector-curvature="0"
   d="M549.105,337.186c-7.846,4.891-14.051,12.547-21.369,18.212     c-6.285,4.865-16.256,9.723-19.358,17.436c-0.113,0.281-0.227,1.494,0.308,1.494c3.134-0.008,6.426-4.705,8.759-6.648     c3.903-3.252,8.285-5.846,12.289-8.969c7.149-5.576,14.328-12.14,19.818-19.393C549.826,338.951,549.823,336.736,549.105,337.186     L549.105,337.186z" />
		</g>
	</g>
	<g
   id="g133"
   transform="translate(-22.309859,-206.87324)">
		<g
   id="g131">
			<path
   id="path129"
   inkscape:connector-curvature="0"
   d="M571.049,355.314c-7.807,6.877-13.553,17.607-17.774,26.996     c-2.309,5.135-7.727,18.875-14.745,11.236c-1.627-1.771-2.286,3.871-1.167,5.09c6.584,7.166,11.968-0.461,15.02-6.742     c2.086-4.293,3.163-9.01,5.027-13.396c3.485-8.199,9.34-14.582,13.863-22.117C571.38,356.201,571.352,355.049,571.049,355.314z" />
		</g>
	</g>
	<g
   id="g139"
   transform="translate(-22.309859,-206.87324)">
		<g
   id="g137">
			<path
   id="path135"
   inkscape:connector-curvature="0"
   d="M544.156,384.244c-4.248,8.912-13.521,14.977-23.302,15.912     c-4.792,0.459-10.418-1.047-12.775-5.584c-1.958-3.773-0.052-9.205-0.426-13.291c-0.079-0.863-0.791-1.342-1.067-0.293     c-2.66,10.154-1.711,21.963,10.673,23.729c11.285,1.609,24.912-8.143,27.833-18.908     C545.241,385.262,544.768,382.963,544.156,384.244L544.156,384.244z" />
		</g>
	</g>
	<g
   id="g145"
   transform="translate(-22.309859,-206.87324)">
		<g
   id="g143">
			<path
   id="path141"
   inkscape:connector-curvature="0"
   d="M506.845,390.811c-1.937-0.989-3.719-1.772-4.659-3.871     c-0.799-1.783-0.097-3.578,0.349-5.322c0.154-0.604-0.333-4.744-1.454-3.119c-2.689,3.9-1.417,18.188,5.831,15.061     C507.618,393.256,507.475,391.133,506.845,390.811L506.845,390.811z" />
		</g>
	</g>
	<g
   id="g151"
   transform="translate(-22.309859,-206.87324)">
		<g
   id="g149">
			<path
   id="path147"
   inkscape:connector-curvature="0"
   d="M689.651,279.405c-5.887,4.167-10.519,10.073-15.242,15.454     c-5.724,6.52-11.195,13.252-16.62,20.022c-9.405,11.738-18.086,24.226-29.209,34.448c-10.979,10.084-25.109,16.839-38.975,22     c-6.288,2.341-12.89,3.871-19.534,4.764c-4,0.537-8.04,0.098-11.85,0.166c-0.431,0.008-0.444,0.84-0.451,1.105     c-0.223,9.393,19.672,3.4,24.476,2.195c14.897-3.725,30.459-11.313,42.571-20.707c11.831-9.176,20.746-21.547,29.77-33.324     c5.673-7.406,11.582-14.628,17.481-21.853c5.998-7.346,12.717-14.273,18.031-22.14     C690.339,281.181,690.342,278.917,689.651,279.405L689.651,279.405z" />
		</g>
	</g>
	<g
   id="g157"
   transform="translate(-22.309859,-206.87324)">
		<g
   id="g155">
			<path
   id="path153"
   inkscape:connector-curvature="0"
   d="M614.124,363.799c-3.647,10.908-1.535,29.725-14.872,34.367     c-1.331,0.463-1.146,5.343,0.445,5.324c7.132-0.08,10.355-9.648,12.047-15.145c2.24-7.287,3.751-15.672,3.734-23.323     C615.477,364.414,614.64,362.256,614.124,363.799L614.124,363.799z" />
		</g>
	</g>
	<g
   id="g163"
   transform="translate(-22.309859,-206.87324)">
		<g
   id="g161">
			<path
   id="path159"
   inkscape:connector-curvature="0"
   d="M599.8,401.939c0.096-0.096,0.193-0.19,0.289-0.287     c0.377-0.381,0.406-0.992,0.333-1.498c-0.023-0.159-0.299-1.191-0.671-0.828c-0.096,0.094-0.193,0.189-0.289,0.284     c-0.379,0.378-0.405,0.996-0.333,1.498C599.152,401.268,599.431,402.307,599.8,401.939z" />
		</g>
	</g>
	<g
   id="g169"
   transform="translate(-22.309859,-206.87324)">
		<g
   id="g167">
			<path
   id="path165"
   inkscape:connector-curvature="0"
   d="M604.709,385.057c-1.63,6.826-3.89,13.197-10.442,16.637     c-3.422,1.797-7.362,0.857-10.343-1.227c-2.324-1.625-6.594-4.591-8.042-7.006c-0.109-0.184-0.302,0.402-0.133,0.577     c1.442,1.479,2.186,4.404,3.314,6.205c1.276,2.031,2.564,3.996,4.346,5.609c3.358,3.041,7.688,3.197,11.672,1.454     c7.083-3.102,9.619-14.672,10.44-21.502C605.594,385.211,604.99,383.879,604.709,385.057L604.709,385.057z" />
		</g>
	</g>
	<g
   id="g175"
   transform="translate(-22.309859,-206.87324)">
		<g
   id="g173">
			<path
   id="path171"
   inkscape:connector-curvature="0"
   d="M586.422,404.764c-1.12-0.652-1.987-0.346-3.265-0.246     c-1.479,0.115-3.042-0.016-4.494-0.295c-1.813-0.35-3.461-1.623-4.775-2.844c-0.836-0.777-1.584-1.92-2.779-1.869     c-0.409,0.018-0.38,0.877-0.343,1.121c0.558,3.631,2.954,6.496,6.322,7.912c3.127,1.313,7.651,0.596,9.442-2.461     C586.709,405.775,586.8,404.982,586.422,404.764z" />
		</g>
	</g>
	<g
   id="g181"
   transform="translate(-22.309859,-206.87324)">
		<g
   id="g179">
			<path
   id="path177"
   inkscape:connector-curvature="0"
   d="M575.931,405.814c-10.719-5.578-10.013-17.119-14.256-27.04     c-1.017-2.378-1.822,2.271-1.389,3.404c2.738,7.141,4.641,26.557,15.56,26.095C576.629,408.24,576.485,406.104,575.931,405.814     L575.931,405.814z" />
		</g>
	</g>
	<g
   id="g187"
   transform="translate(-22.309859,-206.87324)">
		<g
   id="g185">
			<path
   id="path183"
   inkscape:connector-curvature="0"
   d="M598.847,401.883c-1.981,5.938-1.184,12.725-0.036,18.746     c0.645,3.373,2.764,14.877,7.102,15.56c0.753,0.117,0.593-1.866,0.491-2.19c-1.502-4.768-4.266-8.867-5.504-13.858     c-1.381-5.564-1.673-11.41-1.141-17.102C599.797,402.623,599.239,400.705,598.847,401.883z" />
		</g>
	</g>
	<g
   id="g193"
   transform="translate(-22.309859,-206.87324)">
		<g
   id="g191">
			<path
   id="path189"
   inkscape:connector-curvature="0"
   d="M603.79,431.434c4.451,5.744,17.981,5.01,23.833,2.066     c-0.329-0.291-0.657-0.584-0.986-0.875c0.483,1.887,0.728,2.383,2.054,3.518c-0.066-0.473-0.133-0.943-0.198-1.416     c0.068-0.098,0.137-0.197,0.205-0.297c-1.315,0.857,0.258,3.955,0.719,2.563c0.702-2.129-0.752-4.811-1.496-6.768     c-0.107-0.284-0.492-0.754-0.843-0.482c-5.114,3.99-17.946,5.379-23.015,0.504C603.624,429.826,603.582,431.166,603.79,431.434     L603.79,431.434z" />
		</g>
	</g>
	<g
   id="g199"
   transform="translate(-22.309859,-206.87324)">
		<g
   id="g197">
			<path
   id="path195"
   inkscape:connector-curvature="0"
   d="M614.776,437.936c3.182,1.277,6.575,1.308,9.916,0.535     c3.426-0.793,7.112-4.236,10.164-0.718c1.445,1.664,1.611,3.969,3.28,5.542c1.12,1.057,2.934,0.279,3.481,0.718     c0.043-1.254,0.087-2.509,0.13-3.764c-0.288,0.027-0.628,0.013-0.796,0.305c-1.449,2.55-3.598,3.045-6.037,4.23     c-0.817,0.398-0.77,3.355,0.286,3.408c3.642,0.184,4.764-2.576,6.913-4.226c0.807-0.618,1.043-4.769-0.375-4.48     c-4.63,0.955-4.526-4.805-8.29-6.121c-1.971-0.689-4.628,0.712-6.366,1.484c-4.137,1.838-7.851,1.617-12.247,1.357     C614.318,436.178,614.363,437.77,614.776,437.936L614.776,437.936z" />
		</g>
	</g>
	<g
   id="g205"
   transform="translate(-22.309859,-206.87324)">
		<g
   id="g203">
			<path
   id="path201"
   inkscape:connector-curvature="0"
   d="M634.801,447.783c0.812,0,0.77-2.656-0.064-2.656     C633.924,445.127,633.968,447.783,634.801,447.783z" />
		</g>
	</g>
	<g
   id="g211"
   transform="translate(-22.309859,-206.87324)">
		<g
   id="g209">
			<path
   id="path207"
   inkscape:connector-curvature="0"
   d="M606.996,441.164c4.781,1.936,9.84,1.889,14.933,2.054     c-0.102-1.203-0.201-2.404-0.302-3.607c-2.371,1.758-3.415,4.158-2.584,7.104c1.002,3.553,5.211,4.377,8.362,4.352     c-0.342-0.949-0.686-1.898-1.026-2.85c-0.989,9.018-17.305-1.57-21.124-3.469c-3.414-1.694-7.794-0.809-11.416-0.519     c-3.5,0.279-11.95,1.99-13.851-2.123c-0.114,1.264-0.229,2.527-0.343,3.791c5.003-3.801,4.492-12.691-3.104-11.822     c0.036,1.488,0.073,2.975,0.109,4.461c3.637-1.176,24.315,2.318,22.209-4.699c-0.055-0.189-0.147-0.436-0.373-0.465     c-2.697-0.368-6.248,0.668-9.105,0.611c-4.025-0.082-8.932-1.15-12.84,0.092c-1.302,0.416-1.266,4.611,0.109,4.461     c2.192-0.24,5.386,0.736,2.362,3.015c-0.995,0.748-0.789,2.814-0.343,3.789c2.07,4.512,7.724,3.991,11.89,3.578     c5.437-0.539,10.876-2.033,15.904,0.719c6.428,3.516,20.446,12.699,21.856-0.259c0.068-0.631,0.029-2.858-1.026-2.85     c-2.415,0.023-7.726-0.373-4.966-3.569c0.478-0.556,0.66-3.451-0.489-3.417c-4.925,0.152-9.915-0.182-14.804,0.471     C606.686,440.059,606.706,441.047,606.996,441.164L606.996,441.164z" />
		</g>
	</g>
	<g
   id="g217"
   transform="translate(-22.309859,-206.87324)">
		<g
   id="g215">
			<path
   id="path213"
   inkscape:connector-curvature="0"
   d="M592.773,437.469c4.882-2.689,2.146-11.523,0.768-15.436     c-1.337-3.791-3.153-7.398-5.05-10.936c-0.825-1.537-2.28-5.732-4.137-6.146c-0.587-0.131-0.815,1.232-0.835,1.543     c-0.086,1.354-0.23,2.35,1.3,2.639c0.492,0.094,0.546-1.699,0.063-1.844c0.136,0.088,0.272,0.176,0.408,0.264     c-0.581,0.016-1.161,0.029-1.744,0.043c0.655,3.84,3.795,7.598,5.553,11.043c2.329,4.566,6.332,11.682,3.213,16.627     C592.084,435.629,591.957,437.918,592.773,437.469L592.773,437.469z" />
		</g>
	</g>
	<g
   id="g223"
   transform="translate(-22.309859,-206.87324)">
		<g
   id="g221">
			<path
   id="path219"
   inkscape:connector-curvature="0"
   d="M525.064,402.047c0.06,0,0.057-0.196-0.005-0.196     C525,401.852,525.002,402.047,525.064,402.047z" />
		</g>
	</g>
	<g
   id="g229"
   transform="translate(-22.309859,-206.87324)">
		<g
   id="g227">
			<path
   id="path225"
   inkscape:connector-curvature="0"
   d="M525.222,401.965c-0.084,6.887-4.08,13.957-5.213,20.771     c-0.745,4.473-1.224,12.064,2.869,15.246c2.602,2.021,5.46,3.48,8.81,2.854c0.617-0.115,1.255-0.594,1.609-1.105     c1.232-1.777,2.495-2.43,4.661-2.936c3.295-0.771,3.181,2.707,3.847,4.918c0.624,2.074,1.834,3.623,3.735,4.638     c-0.037-1.488-0.072-2.977-0.107-4.461c-2.728,2.453-6.045,3.699-9.593,4.502c-3.571,0.809-6.982-0.387-10.423,0.16     c-0.915,0.146-0.69,2.247-0.255,2.736c4.751,5.348,16.441,1.072,20.916-2.949c0.906-0.814,1.135-3.797-0.108-4.463     c-3.802-2.035-1.836-7.252-5.132-9.221c-1.715-1.023-3.505-0.439-5.289,0.154c-2.146,0.713-2.802,3.137-4.915,3.516     c-3.271,0.584-7.642-2.295-8.639-5.277c-1.305-3.904,0.171-8.711,1.147-12.535c1.399-5.477,3.492-10.844,3.325-16.578     C526.417,400.23,525.242,400.281,525.222,401.965L525.222,401.965z" />
		</g>
	</g>
	<g
   id="g235"
   transform="translate(-22.309859,-206.87324)">
		<g
   id="g233">
			<path
   id="path231"
   inkscape:connector-curvature="0"
   d="M525.514,450.887c1.514,0,1.435-4.959-0.122-4.959     C523.878,445.928,523.958,450.887,525.514,450.887z" />
		</g>
	</g>
	<g
   id="g241"
   transform="translate(-22.309859,-206.87324)">
		<g
   id="g239">
			<path
   id="path237"
   inkscape:connector-curvature="0"
   d="M524.397,451.35c3.829,1.078,3.198-7.875,2.919-9.74     c-0.833-5.583-5.635-9.26-11.248-8.229c-5.136,0.943-8.154,4.838-6.878,10.088c0.64,2.629,2.154,4.828,4.059,6.709     c1.026,1.012,2.21,1.904,3.592,2.336c0.842,0.264,1.547-1.113,2.13-0.799c0.782,0.422,0.864-2.613-0.054-2.185     c-0.216,0.102-1.976-1.72-2.326-1.915c-1.619-0.901-2.916-1.993-4.106-3.427c-2.995-3.604,0.217-5.436,3.689-6.246     c6.285-1.47,12.369,4.983,7.986,10.554C523.786,448.979,523.578,451.117,524.397,451.35L524.397,451.35z" />
		</g>
	</g>
	<g
   id="g247"
   transform="translate(-22.309859,-206.87324)">
		<g
   id="g245">
			<path
   id="path243"
   inkscape:connector-curvature="0"
   d="M511.75,444.541c-3.836,1.198-6.616,4.555-10.924,2.982     c-2.825-1.031-4.694-2.584-7.833-2.564c0.201,1.41,0.404,2.82,0.605,4.23c1.818-3.178,4.868-4.512,5.792-8.256     c0.224-0.908,0.246-2.697-0.668-3.292c-1.12-0.729-2.009-1.623-3.122-2.348c-0.051,1.48-0.102,2.958-0.153,4.435     c4.432-1.277,9.68,2.137,13.853,0.305c2.996-1.316,2.665-5.355,2.728-8.115c0.112-4.902-0.525-9.777-0.338-14.683     c0.222-5.818,0.755-11.863-0.989-17.507c-0.901-2.912-2.167,0.937-1.71,2.408c2.326,7.434,0.53,16.365,0.916,24.146     c0.159,3.203,1.595,9.258-2.733,9.539c-3.981,0.258-7.87-1.751-11.835-0.602c-1.395,0.404-1.22,3.742-0.153,4.434     c1.119,0.728,2.01,1.621,3.122,2.342c-0.223-1.098-0.446-2.195-0.668-3.293c-0.665,2.711-3.773,4.25-5.14,6.578     c-0.445,0.758-0.935,4.216,0.605,4.232c3.647,0.041,6.221,2.539,9.71,3.15c3.544,0.621,7.235-2.93,9.342-5.293     C512.504,446.982,512.604,444.275,511.75,444.541L511.75,444.541z" />
		</g>
	</g>
	<g
   id="g253"
   transform="translate(-22.309859,-206.87324)">
		<g
   id="g251">
			<path
   id="path249"
   inkscape:connector-curvature="0"
   d="M509.896,418.416c-1.493,4.132-6.774,11.248-11.629,7.541     c-1.025-0.781-1.026,2.936-0.562,3.539c-0.413-1.305-0.519-1.533-0.319-0.684c0.138,0.483,0.41,0.801,0.713,1.197     c0.516,0.672,1.339,1.4,2.188,1.572c1.753,0.355,3.296-0.379,4.67-1.424c3.148-2.394,5.022-6.73,5.665-10.529     C510.686,419.252,510.275,417.363,509.896,418.416L509.896,418.416z" />
		</g>
	</g>
	<g
   id="g259"
   transform="translate(-22.309859,-206.87324)">
		<g
   id="g257">
			<path
   id="path255"
   inkscape:connector-curvature="0"
   d="M509.493,404.336c-2.383,6.723-5.491,13.038-10.198,18.457     c-3.314,3.818-14.336,9.318-18.005,3.123c-1.443-2.439-2.021,2.678-1.235,3.988c3.881,6.479,13.895,2.908,18.301-1.061     c6.229-5.611,10.658-15.307,11.932-23.502C510.35,404.941,509.847,403.338,509.493,404.336L509.493,404.336z" />
		</g>
	</g>
	<g
   id="g265"
   transform="translate(-22.309859,-206.87324)">
		<g
   id="g263">
			<path
   id="path261"
   inkscape:connector-curvature="0"
   d="M480.596,428.982c1.015,0,0.96-3.318-0.081-3.318     C479.5,425.664,479.555,428.982,480.596,428.982z" />
		</g>
	</g>
	<g
   id="g271"
   transform="translate(-22.309859,-206.87324)">
		<g
   id="g269">
			<path
   id="path267"
   inkscape:connector-curvature="0"
   d="M507.286,397.697c-7.95,8.924-14.574,18.374-25.197,24.418     c-5.345,3.041-11.15,4.685-17.127,5.922c-2.973,0.615-5.933,1.232-8.945,1.652c-1.468,0.205-2.938,0.253-4.417,0.273     c-1.678,0.021-3.472,0.557-5.036,0.564c-0.733,0.004-0.481,1.857-0.074,2.15c2.823,2.037,2.963,2.469,6.671,2.412     c3.528-0.057,7.074-0.91,10.509-1.637c6.288-1.328,12.25-2.805,17.908-5.957c11.16-6.219,20.004-17.332,26.124-28.324     C507.884,398.844,507.811,397.107,507.286,397.697L507.286,397.697z" />
		</g>
	</g>
	<g
   id="g277"
   transform="translate(-22.309859,-206.87324)">
		<g
   id="g275">
			<path
   id="path273"
   inkscape:connector-curvature="0"
   d="M503.893,389.635c-5.443,5.283-9.899,11.354-15.625,16.442     c-6.419,5.703-13.235,11.412-20.683,15.727c-7.907,4.581-17.033,6.443-26,7.518c-4.362,0.521-8.763,0.723-13.15,0.881     c-4.953,0.18-10.197,0.889-15.099,0.109c0.157,1.877,0.314,3.754,0.471,5.629c9.411-7.552,21.599-10.332,31.112-17.506     c3.354-2.529,12.888-7.951,11.086-13.355c-0.933-2.801-2.124,0.91-1.651,2.328c0.012,0.037,0.023,0.07,0.037,0.107     c0.17-1.113,0.339-2.227,0.509-3.342c-3.796,3.498-7.959,6.961-12.216,9.898c-9.38,6.473-20.787,8.881-29.678,16.35     c-1.143,0.959-1.453,5.33,0.471,5.629c4.42,0.686,8.991,0.021,13.448-0.109c4.946-0.144,9.88-0.449,14.799-0.988     c9.3-1.015,18.395-3.525,26.602-8.061c7.486-4.137,14.426-10.301,20.624-16.137c6.032-5.68,12.596-12.061,15.236-20.084     C504.226,390.547,504.208,389.328,503.893,389.635L503.893,389.635z" />
		</g>
	</g>
	<g
   id="g283"
   transform="translate(-22.309859,-206.87324)">
		<g
   id="g281">
			<path
   id="path279"
   inkscape:connector-curvature="0"
   d="M541.769,438.715c0.222,0.18,0.444,0.357,0.667,0.535     c0.135,0.078,0.267,0.076,0.397-0.008c3.148-1.617,6.424,0.096,8.924,2.115c2.365,1.912,5.634,6.111,5.386,9.355     c0.399-0.256,0.8-0.512,1.2-0.77c-1.24-2.992-3.998-5.395-6.53-7.295c-1.403-1.053-2.956-1.803-4.636-2.289     c-0.692-0.201-1.352-0.313-2.068-0.358c-0.14-0.008-1.781,0.598-1.591,0.652c-1.073-0.314-0.627,2.928,0.172,2.104     c0.189-0.196,2.479,0.234,2.743,0.277c1.609,0.266,3.128,1.434,4.427,2.342c2.759,1.929,4.743,4.512,6.664,7.211     c0.83,1.167,1.057-1.898,0.942-2.309c-2.245-7.938-6.941-14.458-15.914-14.401c-0.162,0.021-0.286,0.102-0.372,0.243     c-0.181,0.33-0.363,0.66-0.542,0.988C541.4,437.543,541.339,438.371,541.769,438.715L541.769,438.715z" />
		</g>
	</g>
	<g
   id="g289"
   transform="translate(-22.309859,-206.87324)">
		<g
   id="g287">
			<path
   id="path285"
   inkscape:connector-curvature="0"
   d="M519.912,439.439c6.421,4.555,2.579,12.177-0.441,17.672     c0.405,1.111,0.81,2.223,1.215,3.334c1.109-3.32,0.149-6.846-0.767-10.1c-0.625-2.215-1.345-4.398-1.91-6.633     c-0.654-2.588-0.042-2.799,1.812-4.31c0.703-0.572,0.715-2.57-0.076-3.088c-3.704-2.422-4.359,3.929-4.073,6.309     c0.311,2.582,1.073,5.066,1.841,7.541c0.681,2.195,2.25,5.406,1.641,7.721c-0.232,0.889,0.573,4.672,1.531,2.559     c2.796-6.168,8.726-18.982-0.622-22.592C519.499,437.637,519.557,439.188,519.912,439.439L519.912,439.439z" />
		</g>
	</g>
	<g
   id="g295"
   transform="translate(-22.309859,-206.87324)">
		<g
   id="g293">
			<path
   id="path291"
   inkscape:connector-curvature="0"
   d="M496.139,442.395c-5.69-0.363-10.173,6.941-10.893,11.796     c0.479-0.156,0.958-0.313,1.437-0.469c-1.369-3.923,0.231-7.927,2.764-10.963c2.076-2.489,5.561-2.199,7.465-4.434     c0.533-0.625,0.376-2.111-0.217-2.637c-3.204-2.85-8.323,3.566-9.752,6.045c-2.353,4.082-2.404,8.9-1.673,13.422     c0.262,1.616,1.31,1.535,1.527-0.039c0.735-5.332,5.334-7.886,9.56-10.119C496.972,444.674,496.956,442.447,496.139,442.395z" />
		</g>
	</g>
	<g
   id="g301"
   transform="translate(-22.309859,-206.87324)">
		<g
   id="g299">
			<path
   id="path297"
   inkscape:connector-curvature="0"
   d="M497.013,439.566c1.514,0,1.435-4.959-0.122-4.959     C495.377,434.607,495.457,439.566,497.013,439.566z" />
		</g>
	</g>
	<g
   id="g307"
   transform="translate(-22.309859,-206.87324)">
		<g
   id="g305">
			<path
   id="path303"
   inkscape:connector-curvature="0"
   d="M628.454,432.318c0.146,0.06,0.289,0.135,0.447,0.143     c0.509,0.027,0.488-1.71-0.042-1.684c-0.154,0.008-0.3,0.091-0.441,0.146C628.077,431.064,628.12,432.186,628.454,432.318z" />
		</g>
	</g>
	<g
   id="g313"
   transform="translate(-22.309859,-206.87324)">
		<g
   id="g311">
			<path
   id="path309"
   inkscape:connector-curvature="0"
   d="M636.352,437.613c4.583,0.086,7.972,0.404,11.901,2.904     c3.65,2.322,5.785,6.572,7.44,10.406c0.308-0.994,0.615-1.986,0.923-2.98c-2.439-3.416-11.822-9.911-15.461-5.5     c-0.284,0.344-0.368,1.678,0.154,1.889c2.47,0.979,5.181,0.697,7.755,1.803c2.534,1.088,5.192,2.811,6.802,5.078     c0.937,1.32,1.184-2.373,0.923-2.979c-3.731-8.701-10.322-15.248-20.482-12.457C635.765,435.926,635.76,437.602,636.352,437.613     L636.352,437.613z" />
		</g>
	</g>
	<g
   id="g319"
   transform="translate(-22.309859,-206.87324)">
		<g
   id="g317">
			<path
   id="path315"
   inkscape:connector-curvature="0"
   d="M627.283,431.928c2.453,1.156,5.987,0.817,8.679,1.318     c4.482,0.833,7.17,2.963,10.276,6.061c0.802,0.799,0.734-1.553,0.594-1.918c-2.085-5.396-14.669-11.182-19.583-6.855     C626.974,430.777,626.887,431.74,627.283,431.928z" />
		</g>
	</g>
	<g
   id="g325"
   transform="translate(-22.309859,-206.87324)">
		<g
   id="g323">
			<path
   id="path321"
   inkscape:connector-curvature="0"
   d="M646.505,438.881c0.619,0,0.587-2.031-0.051-2.031     C645.835,436.85,645.867,438.881,646.505,438.881z" />
		</g>
	</g>
	<g
   id="g331"
   transform="translate(-22.309859,-206.87324)">
		<g
   id="g329">
			<path
   id="path327"
   inkscape:connector-curvature="0"
   d="M621.514,443.291c8.203,0.832,12.754,7.39,16.596,13.914     c0.316-1.02,0.633-2.041,0.948-3.061c-1.877-2.951-5.538-4.809-8.629-6.178c-1.431-0.635-2.972-1.125-4.534-1.271     c-0.412-0.039-1.021-0.051-1.292,0.33c-0.427,0.604-0.614,1.141-0.4,1.107c-1.098,0.159-0.081,2.918,0.369,1.793     c-0.369,0.921,1.63,0.656,1.931,0.684c1.477,0.138,2.932,0.813,4.271,1.406c2.689,1.191,5.896,2.943,7.516,5.488     c0.786,1.236,1.412-2.273,0.948-3.062c-2.018-3.428-4.024-6.854-6.875-9.671c-3.226-3.187-6.521-3.875-10.885-2.965     C621.021,441.902,621.042,443.244,621.514,443.291L621.514,443.291z" />
		</g>
	</g>
	<g
   id="g337"
   transform="translate(-22.309859,-206.87324)">
		<g
   id="g335">
			<path
   id="path333"
   inkscape:connector-curvature="0"
   d="M580.206,436.475c-9.613-3.349-16.259,6.412-16.949,14.939     c-0.14,1.732,1.342,3.703,1.693,1.012c0.292-2.238,4.01-4.287,5.766-5.188c2.456-1.258,5.444-2.84,8.251-1.479     c0.365,0.178,0.621,0.016,0.854-0.277c1.059-1.336,0.966-4.133-0.829-4.84c-2.057-0.812-4.458,0.076-6.371,0.871     c-4.127,1.719-8.817,5.09-9.364,9.9c0.564,0.338,1.13,0.676,1.694,1.012c0.521-8.105,6.523-15.473,15.185-13.916     C580.69,438.609,580.723,436.654,580.206,436.475L580.206,436.475z" />
		</g>
	</g>
	<g
   id="g343"
   transform="translate(-22.309859,-206.87324)">
		<g
   id="g341">
			<path
   id="path339"
   inkscape:connector-curvature="0"
   d="M518.355,324.497c-4.159,8.888-9.396,17.117-15.325,24.923     c-0.232,0.307-0.029,1.66,0.342,1.207c6.38-7.826,11.219-16.539,15.125-25.829C518.539,324.693,518.455,324.283,518.355,324.497     L518.355,324.497z" />
		</g>
	</g>
	<g
   id="g349"
   transform="translate(-22.309859,-206.87324)">
		<g
   id="g347">
			<path
   id="path345"
   inkscape:connector-curvature="0"
   d="M512.083,291.257c-4.636,10.525-8.998,21.168-13.634,31.692     c-0.043,0.099,0.042,0.466,0.128,0.273c4.659-10.479,9.039-21.077,13.696-31.556C512.34,291.519,512.21,290.969,512.083,291.257     L512.083,291.257z" />
		</g>
	</g>
	<g
   id="g355"
   transform="translate(-22.309859,-206.87324)">
		<g
   id="g353">
			<path
   id="path351"
   inkscape:connector-curvature="0"
   d="M489.536,339.533c0.031,0,0.029-0.1-0.003-0.1     C489.503,339.434,489.505,339.533,489.536,339.533z" />
		</g>
	</g>
	<g
   id="g361"
   transform="translate(-22.309859,-206.87324)">
		<g
   id="g359">
			<path
   id="path357"
   inkscape:connector-curvature="0"
   d="M493.804,300.777c-2.743,6.304-5.389,12.657-8.583,18.753     c-0.015,0.029,0.008,0.138,0.038,0.081c3.198-6.087,5.847-12.428,8.596-18.726C493.872,300.847,493.836,300.7,493.804,300.777     L493.804,300.777z" />
		</g>
	</g>
	<g
   id="g367"
   transform="translate(-22.309859,-206.87324)">
		<g
   id="g365">
			<path
   id="path363"
   inkscape:connector-curvature="0"
   d="M505.126,247.292c-8.862,18.397-17.137,37.163-23.891,56.447     c-0.055,0.154,0.086,0.752,0.204,0.436c7.195-19.25,14.941-38.192,23.738-56.772     C505.195,247.362,505.163,247.215,505.126,247.292L505.126,247.292z" />
		</g>
	</g>
	<g
   id="g373"
   transform="translate(-22.309859,-206.87324)">
		<g
   id="g371">
			<path
   id="path369"
   inkscape:connector-curvature="0"
   d="M602.319,243.346c-8.504,23.699-12.323,49.042-25.39,70.949     c-0.065,0.111,0.018,0.557,0.112,0.402c13.331-21.671,17.682-47.243,25.366-71.16     C602.43,243.471,602.369,243.208,602.319,243.346z" />
		</g>
	</g>
	<g
   id="g379"
   transform="translate(-22.309859,-206.87324)">
		<g
   id="g377">
			<path
   id="path375"
   inkscape:connector-curvature="0"
   d="M634.702,320.12c-6.024,7.804-13.182,14.578-20.279,21.386     c-0.15,0.145-0.04,0.762,0.091,0.64c7.248-6.75,14.328-13.641,20.322-21.556C634.927,320.466,634.838,319.944,634.702,320.12z" />
		</g>
	</g>
	<g
   id="g385"
   transform="translate(-22.309859,-206.87324)">
		<g
   id="g383">
			<path
   id="path381"
   inkscape:connector-curvature="0"
   d="M595.699,320.167c-12.176,9.158-22.764,20.206-33.204,31.251     c-0.075,0.078-0.022,0.453,0.094,0.336c10.66-10.861,20.977-22.014,33.165-31.211     C595.852,320.468,595.792,320.097,595.699,320.167z" />
		</g>
	</g>
	<g
   id="g391"
   transform="translate(-22.309859,-206.87324)">
		<g
   id="g389">
			<path
   id="path387"
   inkscape:connector-curvature="0"
   d="M532.856,358.174c-4.819,6.086-8.037,13.092-11.72,19.875     c-0.026,0.049,0.012,0.232,0.047,0.168c3.743-6.77,6.898-13.821,11.702-19.943C532.905,358.248,532.886,358.135,532.856,358.174     L532.856,358.174z" />
		</g>
	</g>
	<g
   id="g397"
   transform="translate(-22.309859,-206.87324)">
		<g
   id="g395">
			<path
   id="path393"
   inkscape:connector-curvature="0"
   d="M556.057,354.715c0.431,8.148-3.616,15.247-6.634,22.521     c-0.109,0.262,0.107,1.635,0.41,1.125c4.1-6.889,7.329-15.534,6.701-23.658C556.484,354.063,556.021,354.059,556.057,354.715z" />
		</g>
	</g>
	<g
   id="g403"
   transform="translate(-22.309859,-206.87324)">
		<g
   id="g401">
			<path
   id="path399"
   inkscape:connector-curvature="0"
   d="M533.461,378.896c-2.405,5.218-5.125,10.236-7.76,15.334     c-0.086,0.17,0.056,0.959,0.244,0.671c3.086-4.76,5.497-10.057,7.896-15.184C533.981,379.42,533.726,378.322,533.461,378.896z" />
		</g>
	</g>
	<g
   id="g409"
   transform="translate(-22.309859,-206.87324)">
		<g
   id="g407">
			<path
   id="path405"
   inkscape:connector-curvature="0"
   d="M679.579,219.357c3.056,11.599,2.867,24.566-3.532,35.039     c-0.119,0.194,0.015,1.024,0.207,0.737c6.985-10.412,6.737-24.333,3.495-36.016C679.669,218.821,679.541,219.212,679.579,219.357     L679.579,219.357z" />
		</g>
	</g>
	<g
   id="g415"
   transform="translate(-22.309859,-206.87324)">
		<g
   id="g413">
			<path
   id="path411"
   inkscape:connector-curvature="0"
   d="M642.81,203.451c1.748,6.213,1.909,12.663,2.703,19.034     c0.076,0.61,0.415,0.141,0.373-0.248c-0.699-6.477-0.888-12.942-2.764-19.227C642.961,202.471,642.734,203.185,642.81,203.451z" />
		</g>
	</g>
	<g
   id="g421"
   transform="translate(-22.309859,-206.87324)">
		<g
   id="g419">
			<path
   id="path417"
   inkscape:connector-curvature="0"
   d="M646.603,237.036c-0.857,9.761-2.489,19.458-9.237,27.002     c-0.206,0.23-0.065,1.317,0.273,0.972c7.176-7.315,8.653-17.872,9.5-27.655C647.184,236.804,646.678,236.189,646.603,237.036     L646.603,237.036z" />
		</g>
	</g>
	<g
   id="g427"
   transform="translate(-22.309859,-206.87324)">
		<g
   id="g425">
			<path
   id="path423"
   inkscape:connector-curvature="0"
   d="M660.892,293.688c-2.166,2.592-3.908,5.474-5.846,8.23     c-0.031,0.045,0.003,0.232,0.047,0.169c1.943-2.736,3.693-5.599,5.865-8.167C661.008,293.864,660.964,293.603,660.892,293.688z" />
		</g>
	</g>
	<g
   id="g433"
   transform="translate(-22.309859,-206.87324)">
		<g
   id="g431">
			<path
   id="path429"
   inkscape:connector-curvature="0"
   d="M599.993,201.177c-3.852,4.612-7.543,9.357-11.331,14.021     c-0.055,0.067-0.008,0.367,0.076,0.269c3.889-4.6,7.486-9.437,11.312-14.089C600.092,201.328,600.055,201.103,599.993,201.177     L599.993,201.177z" />
		</g>
	</g>
	<g
   id="g439"
   transform="translate(-22.309859,-206.87324)">
		<g
   id="g437">
			<path
   id="path435"
   inkscape:connector-curvature="0"
   d="M564.428,181.697c-8.808,4.603-16.776,9.874-23.067,17.667     c-0.143,0.176-0.025,0.964,0.198,0.704c6.461-7.534,14.297-12.852,22.999-17.47C564.809,182.465,564.704,181.553,564.428,181.697     z" />
		</g>
	</g>
	<g
   id="g445"
   transform="translate(-22.309859,-206.87324)">
		<g
   id="g443">
			<path
   id="path441"
   inkscape:connector-curvature="0"
   d="M532.813,203.029c-6.575,7.695-14.228,14.477-19.251,23.379     c-0.187,0.332,0.034,1.777,0.358,1.273c5.599-8.697,12.613-16.161,19.006-24.25C533.006,203.331,532.941,202.879,532.813,203.029     z" />
		</g>
	</g>
	<g
   id="g451"
   transform="translate(-22.309859,-206.87324)">
		<g
   id="g449">
			<path
   id="path447"
   inkscape:connector-curvature="0"
   d="M546.053,216.646c-6.319,5.845-11.3,12.806-16.094,19.913     c-0.218,0.323-0.019,1.765,0.357,1.273c5.19-6.75,9.865-13.873,15.921-19.91C546.523,217.639,546.325,216.395,546.053,216.646z" />
		</g>
	</g>
	<g
   id="g457"
   transform="translate(-22.309859,-206.87324)">
		<g
   id="g455">
			<path
   id="path453"
   inkscape:connector-curvature="0"
   d="M534.752,242.41c-4.813,8.199-9.661,16.404-13.426,25.15     c-0.143,0.331,0.112,1.634,0.445,0.956c4.242-8.611,8.478-17.2,13.123-25.604C534.97,242.775,534.867,242.214,534.752,242.41     L534.752,242.41z" />
		</g>
	</g>
	<g
   id="g463"
   transform="translate(-22.309859,-206.87324)">
		<g
   id="g461">
			<path
   id="path459"
   inkscape:connector-curvature="0"
   d="M568.69,242.925c-2.505,8.217-6.389,15.802-9.796,23.655     c-0.086,0.201,0.076,0.98,0.269,0.573c3.687-7.797,7.294-15.685,9.726-23.976C568.935,243.016,568.787,242.608,568.69,242.925     L568.69,242.925z" />
		</g>
	</g>
	<g
   id="g469"
   transform="translate(-22.309859,-206.87324)">
		<g
   id="g467">
			<path
   id="path465"
   inkscape:connector-curvature="0"
   d="M579.912,250.827c-5.63,14.85-10.861,29.76-18.299,43.834     c-0.096,0.184,0.077,0.998,0.255,0.699c8.123-13.612,12.921-28.918,18.438-43.688     C580.422,251.368,580.143,250.222,579.912,250.827z" />
		</g>
	</g>
	<g
   id="g475"
   transform="translate(-22.309859,-206.87324)">
		<g
   id="g473">
			<path
   id="path471"
   inkscape:connector-curvature="0"
   d="M591.245,153.467c-0.867,1.672-1.458,3.507-2.271,5.214     c-0.759,1.591-1.565,3.149-1.805,4.908c-0.086,0.626,0.123,3.899,1.475,3.16c1.307-0.717,1.83-3.594,2.226-4.903     c0.672-2.229,1.359-4.542,1.569-6.867C592.492,154.362,591.99,152.031,591.245,153.467L591.245,153.467z" />
		</g>
	</g>
	<g
   id="g481"
   transform="translate(-22.309859,-206.87324)">
		<g
   id="g479">
			<path
   id="path477"
   inkscape:connector-curvature="0"
   d="M495.329,391.367c-2.319,2.029-4.642,4.02-7.029,5.967     c-0.203,0.166-0.14,1.068,0.131,0.9c2.613-1.605,4.768-3.949,7.024-6.004C495.66,392.043,495.519,391.199,495.329,391.367z" />
		</g>
	</g>
	<g
   id="g487"
   transform="translate(-22.309859,-206.87324)">
		<g
   id="g485">
			<path
   id="path483"
   inkscape:connector-curvature="0"
   d="M481.499,405.24c-8.679,8.951-17.312,16.527-29.329,20.527     c-0.39,0.133-0.33,1.365,0.031,1.289c12.386-2.607,21.259-12.161,29.496-21.113C481.851,405.777,481.741,404.99,481.499,405.24z" />
		</g>
	</g>
	<g
   id="g493"
   transform="translate(-22.309859,-206.87324)">
		<g
   id="g491">
			<path
   id="path489"
   inkscape:connector-curvature="0"
   d="M478.126,399.787c-14.132,11.768-26.713,24.592-44.687,30.277     c-0.161,0.049-0.117,0.543,0.013,0.508c17.636-4.697,31.287-18.139,44.849-29.584C478.602,400.736,478.4,399.561,478.126,399.787     z" />
		</g>
	</g>
	<g
   id="g499"
   transform="translate(-22.309859,-206.87324)">
		<g
   id="g497">
			<path
   id="path495"
   inkscape:connector-curvature="0"
   d="M499.49,403.016c-8.658,8.982-16.938,18.084-27.358,25.082     c-0.332,0.223-0.208,1.539,0.19,1.314c11.117-6.221,19.125-16.432,27.299-25.928C499.718,403.371,499.652,402.846,499.49,403.016     z" />
		</g>
	</g>
	<g
   id="g505"
   transform="translate(-22.309859,-206.87324)">
		<g
   id="g503">
			<path
   id="path501"
   inkscape:connector-curvature="0"
   d="M503.651,409.607c-1.59,4.082-5.295,7.285-7.823,10.82     c-2.857,3.996-5.904,7.562-9.384,11.037c-0.253,0.256-0.206,1.626,0.196,1.352c4.055-2.762,6.813-7.104,9.555-11.084     c2.65-3.845,6.273-7.317,7.609-11.869C503.832,409.77,503.733,409.396,503.651,409.607z" />
		</g>
	</g>
	<g
   id="g511"
   transform="translate(-22.309859,-206.87324)">
		<g
   id="g509">
			<path
   id="path507"
   inkscape:connector-curvature="0"
   d="M605.496,119.5c-0.001,0.363,0.005,0.707-0.248,0.992     c-0.003,0.004-0.001,0.023,0.004,0.017c0.264-0.294,0.253-0.632,0.253-1.008C605.504,119.488,605.496,119.489,605.496,119.5     L605.496,119.5z" />
		</g>
	</g>
	<g
   id="g517"
   transform="translate(-22.309859,-206.87324)">
		<g
   id="g515">
			<path
   id="path513"
   inkscape:connector-curvature="0"
   d="M602.462,128.952c-0.54,2.336-1.222,4.638-1.499,7.026     c-0.01,0.078,0.059,0.163,0.074,0.045c0.318-2.361,0.979-4.654,1.501-6.974C602.552,128.987,602.49,128.828,602.462,128.952     L602.462,128.952z" />
		</g>
	</g>
	<g
   id="g523"
   transform="translate(-22.309859,-206.87324)">
		<g
   id="g521">
			<path
   id="path519"
   inkscape:connector-curvature="0"
   d="M609.882,146.497c-1.013,3.139-1.619,6.449-1.535,9.757     c0.008,0.306,0.284,0.493,0.304,0.086c0.152-3.201,0.496-6.269,1.47-9.337C610.176,146.82,609.999,146.135,609.882,146.497     L609.882,146.497z" />
		</g>
	</g>
	<g
   id="g529"
   transform="translate(-22.309859,-206.87324)">
		<g
   id="g527">
			<path
   id="path525"
   inkscape:connector-curvature="0"
   d="M614.621,158.085c-0.535,2.845-1.146,5.7-1.529,8.57     c-0.03,0.224,0.201,0.716,0.303,0.278c0.65-2.799,0.993-5.688,1.484-8.519C614.915,158.209,614.701,157.66,614.621,158.085z" />
		</g>
	</g>
	<g
   id="g535"
   transform="translate(-22.309859,-206.87324)">
		<g
   id="g533">
			<path
   id="path531"
   inkscape:connector-curvature="0"
   d="M625.704,156.692c-0.713,2.958-0.662,6.003-1.038,9.008     c-0.015,0.119,0.12,0.377,0.159,0.146c0.52-2.998,0.342-6.055,0.97-9.039C625.811,156.735,625.74,156.542,625.704,156.692     L625.704,156.692z" />
		</g>
	</g>
	<g
   id="g541"
   transform="translate(-22.309859,-206.87324)">
		<g
   id="g539">
			<path
   id="path537"
   inkscape:connector-curvature="0"
   d="M633.612,163.167c-0.259,3.347-0.573,6.669-1.2,9.971     c-0.025,0.136,0.104,0.512,0.175,0.223c0.82-3.283,1.043-6.665,1.3-10.029C633.909,163.049,633.646,162.73,633.612,163.167z" />
		</g>
	</g>
	<g
   id="g547"
   transform="translate(-22.309859,-206.87324)">
		<g
   id="g545">
			<path
   id="path543"
   inkscape:connector-curvature="0"
   d="M642.889,160.753c0.003,3.828-0.061,7.642-0.464,11.452     c-0.018,0.155,0.12,0.327,0.149,0.09c0.491-3.837,0.531-7.685,0.536-11.548C643.111,160.444,642.889,160.453,642.889,160.753     L642.889,160.753z" />
		</g>
	</g>
	<g
   id="g553"
   transform="translate(-22.309859,-206.87324)">
		<g
   id="g551">
			<path
   id="path549"
   inkscape:connector-curvature="0"
   d="M650.389,168.503c0.25,3.851,0.458,7.705,0.781,11.551     c0.018,0.224,0.175,0.117,0.164-0.056c-0.188-3.836-0.462-7.668-0.723-11.501C650.591,168.199,650.369,168.2,650.389,168.503     L650.389,168.503z" />
		</g>
	</g>
	<g
   id="g559"
   transform="translate(-22.309859,-206.87324)">
		<g
   id="g557">
			<path
   id="path555"
   inkscape:connector-curvature="0"
   d="M659.898,165.817c0.441,4.725,0.574,9.446,0.723,14.186     c0.011,0.351,0.248,0.339,0.256-0.006c0.112-4.783-0.258-9.563-0.775-14.314C660.063,165.35,659.879,165.607,659.898,165.817z" />
		</g>
	</g>
	<g
   id="g565"
   transform="translate(-22.309859,-206.87324)">
		<g
   id="g563">
			<path
   id="path561"
   inkscape:connector-curvature="0"
   d="M664.379,154.67c1.205,4.283,1.988,8.662,3.007,12.99     c0.086,0.362,0.283-0.055,0.244-0.247c-0.896-4.388-1.758-8.78-3.01-13.084C664.5,153.914,664.321,154.464,664.379,154.67     L664.379,154.67z" />
		</g>
	</g>
	<g
   id="g571"
   transform="translate(-22.309859,-206.87324)">
		<g
   id="g569">
			<path
   id="path567"
   inkscape:connector-curvature="0"
   d="M665.906,135.752c-0.055,4.585-0.128,9.167-0.275,13.75     c-0.008,0.245,0.216,0.378,0.236,0.067c0.302-4.602,0.279-9.213,0.227-13.822C666.091,135.491,665.909,135.499,665.906,135.752z" />
		</g>
	</g>
	<g
   id="g577"
   transform="translate(-22.309859,-206.87324)">
		<g
   id="g575">
			<path
   id="path573"
   inkscape:connector-curvature="0"
   d="M653.896,143.938c-0.47,3.308-0.378,6.669-0.5,10     c-0.008,0.208,0.176,0.461,0.209,0.125c0.322-3.328,0.06-6.677,0.5-10C654.133,143.845,653.942,143.61,653.896,143.938z" />
		</g>
	</g>
	<g
   id="g583"
   transform="translate(-22.309859,-206.87324)">
		<g
   id="g581">
			<path
   id="path579"
   inkscape:connector-curvature="0"
   d="M647.333,147.9c-0.252,3.014-0.53,6.025-0.967,9.02     c-0.029,0.193,0.19,0.601,0.256,0.234c0.525-2.999,0.791-6.023,1.045-9.055C647.695,147.755,647.377,147.371,647.333,147.9z" />
		</g>
	</g>
	<g
   id="g589"
   transform="translate(-22.309859,-206.87324)">
		<g
   id="g587">
			<path
   id="path585"
   inkscape:connector-curvature="0"
   d="M622.229,92.343c1.246,1.835,2.18,3.827,2.718,5.982     c0.047,0.187,0.127-0.062,0.107-0.15c-0.495-2.215-1.457-4.182-2.782-6.018C622.222,92.088,622.196,92.295,622.229,92.343z" />
		</g>
	</g>
	<g
   id="g595"
   transform="translate(-22.309859,-206.87324)">
		<g
   id="g593">
			<path
   id="path591"
   inkscape:connector-curvature="0"
   d="M626.494,86.816c2.186,1.072,3.184,3.206,3.728,5.474     c0.023,0.099,0.067-0.032,0.057-0.08c-0.521-2.311-1.531-4.468-3.772-5.526C626.466,86.665,626.457,86.798,626.494,86.816     L626.494,86.816z" />
		</g>
	</g>
	<g
   id="g601"
   transform="translate(-22.309859,-206.87324)">
		<g
   id="g599">
			<path
   id="path597"
   inkscape:connector-curvature="0"
   d="M642.726,92.266c0.228,1.74,0.243,3.483,0.24,5.235     c0,0.093,0.068,0.091,0.068-0.002c-0.003-1.761-0.026-3.517-0.258-5.265C642.764,92.155,642.719,92.215,642.726,92.266z" />
		</g>
	</g>
	<g
   id="g607"
   transform="translate(-22.309859,-206.87324)">
		<g
   id="g605">
			<path
   id="path603"
   inkscape:connector-curvature="0"
   d="M651.518,97.372c1-0.755,2.021-1.49,2.994-2.278     c0.045-0.036,0.023-0.223-0.027-0.188c-1.023,0.708-2.007,1.478-3.004,2.222C651.418,97.176,651.458,97.417,651.518,97.372     L651.518,97.372z" />
		</g>
	</g>
	<g
   id="g613"
   transform="translate(-22.309859,-206.87324)">
		<g
   id="g611">
			<path
   id="path609"
   inkscape:connector-curvature="0"
   d="M657.785,99.494c1.755-1.296,3.557-2.411,5.718-2.877     c0.072-0.016,0.064-0.241-0.006-0.234c-2.146,0.206-4.034,1.441-5.782,2.623C657.578,99.098,657.667,99.582,657.785,99.494     L657.785,99.494z" />
		</g>
	</g>
	<path
   id="path616"
   inkscape:connector-curvature="0"
   fill="#FDC731"
   d="M595.251-80.361c0.044-0.008,0.086-0.015,0.133-0.022   c1.173-0.002,2.34-0.087,3.502-0.235c2.021-0.254,3.991-0.724,5.877-1.511c2.636-1.1,4.805-2.848,6.806-4.842   c0.917-0.917,1.83-1.856,2.957-2.524c1.708-1.012,3.466-1.074,5.229-0.155c1.099,0.571,1.875,1.51,2.665,2.434   c0.845,0.991,1.603,2.051,2.495,3.007c1.788,1.922,3.865,3.435,6.254,4.486c1.84,0.81,3.775,1.357,5.764,1.687   c0.407,0.067,0.804,0.216,1.227,0.191c0.122,0.132,0.342-0.071,0.444,0.128c-1.372,0.618-2.811,1.059-4.227,1.559   c-3.265,1.153-6.204,2.833-8.731,5.224c-2.009,1.907-3.687,4.08-5.152,6.419c-1.607,2.563-2.944,5.268-4.108,8.058   c-0.248,0.6-0.555,1.179-0.7,1.819c-0.081,0.176-0.163,0.352-0.268,0.582c-0.103-0.205-0.224-0.344-0.206-0.547   c0.065-0.144-0.001-0.275-0.039-0.41c-0.459-1.631-0.935-3.255-1.486-4.861c-0.624-1.821-1.32-3.609-2.143-5.347   c-1.229-2.602-2.72-5.044-4.608-7.224c-1.354-1.565-2.901-2.918-4.624-4.068c-1.856-1.238-3.892-2.139-5.874-3.145   C596.023-79.864,595.6-80.053,595.251-80.361z M621.502-80.766c0.063-0.008,0.131-0.01,0.191-0.024   c0.655-0.167,1.161-0.597,1.678-0.996c0.18-0.141,0.036-0.254-0.146-0.307c-0.315-0.089-0.564,0.118-0.847,0.171   c-0.377,0.072-0.758,0.155-1.082,0.383c-0.144,0.102-0.323,0.197-0.258,0.422C621.105-80.892,621.283-80.798,621.502-80.766z    M612.58-81.301c0.199-0.007,0.396-0.077,0.484-0.286c0.083-0.195-0.055-0.318-0.197-0.442c-0.524-0.456-1.195-0.563-1.817-0.785   c-0.116-0.042-0.202,0.006-0.257,0.107c-0.056,0.102,0.02,0.168,0.086,0.228c0.289,0.255,0.572,0.513,0.868,0.761   C611.983-81.518,612.249-81.365,612.58-81.301L612.58-81.301z" />
	<path
   id="path618"
   inkscape:connector-curvature="0"
   d="M590.188-101.851c0.068-0.951,0.128-1.903,0.292-2.843   c0.036-0.209-0.027-0.33-0.188-0.453c-0.539-0.413-1.115-0.538-1.778-0.352c-0.767,0.216-1.543,0.389-2.329,0.523   c-0.159,0.027-0.345,0.099-0.423-0.128c-0.07-0.21,0.086-0.294,0.237-0.381c0.895-0.507,1.72-1.124,2.572-1.7   c1.554-1.055,2.652-0.958,4.253,0.147c1.096,0.756,2.022,1.709,3.008,2.591c1.726,1.543,3.427,3.114,5.31,4.468   c0.802,0.578,1.644,1.09,2.571,1.458c1.43,0.568,2.742,0.367,3.972-0.528c0.563-0.413,1.055-0.902,1.511-1.428   c0.101-0.115,0.188-0.324,0.395-0.202c0.196,0.115,0.104,0.294,0.041,0.448c-0.563,1.487-1.184,2.947-2.161,4.225   c-0.869,1.138-1.94,1.91-3.446,1.868c-0.263-0.007-0.312,0.136-0.396,0.316c-1.06,2.279-2.697,3.921-5.219,4.438   c-2.205,0.451-4.091-0.246-5.611-1.9c-1.405-1.53-2.054-3.414-2.407-5.411C590.092-98.398,590.038-100.122,590.188-101.851   L590.188-101.851z M598.85-96.622c-0.109,0.277-0.19,0.536-0.312,0.776c-0.123,0.254-0.297,0.481-0.509,0.674   c-0.922,0.838-1.895,0.728-2.68,0.188c-0.468-0.321-0.802-0.837-0.984-1.425c-0.397-1.279-0.265-2.432,0.729-3.398   c0.163-0.16,0.068-0.224-0.031-0.329c-0.453-0.476-0.907-0.949-1.355-1.431c-0.545-0.588-1.085-1.184-1.631-1.782   c-0.032,0.048-0.055,0.067-0.057,0.086c-0.164,1.946-0.188,3.887,0.266,5.802c0.347,1.472,0.902,2.846,2.036,3.911   c1.096,1.029,2.626,1.354,3.934,0.527c0.937-0.592,1.485-1.472,1.825-2.504c0.052-0.15-0.025-0.213-0.119-0.283   C599.597-96.075,599.235-96.339,598.85-96.622L598.85-96.622z M595.854-99.327c-0.187,0.364-0.134,0.701,0.112,0.879   c0.178,0.127,0.313,0.051,0.444-0.075c0.133-0.132,0.041-0.222-0.061-0.316C596.183-98.995,596.023-99.159,595.854-99.327z" />
	<path
   id="path620"
   inkscape:connector-curvature="0"
   d="M637.992-86.79c-2.099-0.185-3.709-1.228-4.935-2.916   c-0.563-0.773-0.971-1.629-1.225-2.553c-0.035-0.125-0.076-0.198-0.222-0.211c-1.919-0.159-2.929-1.451-3.689-3.013   c-0.577-1.188-0.947-2.457-1.245-3.744c-0.037-0.153-0.09-0.324,0.087-0.412c0.219-0.11,0.286,0.099,0.375,0.229   c0.666,0.977,1.404,1.878,2.492,2.414c0.861,0.426,1.758,0.434,2.674,0.21c1.302-0.319,2.468-0.941,3.605-1.622   c2.386-1.428,4.613-3.09,6.888-4.685c0.843-0.592,1.715-1.134,2.729-1.39c0.734-0.186,1.426-0.097,2.079,0.299   c0.897,0.546,1.594,1.334,2.408,1.983c0.261,0.208,0.519,0.423,0.782,0.624c0.149,0.111,0.259,0.23,0.154,0.417   c-0.103,0.186-0.269,0.104-0.411,0.055c-0.885-0.303-1.771-0.609-2.655-0.915c-0.576-0.199-1.052,0.065-1.529,0.325   c-0.158,0.085-0.123,0.24-0.12,0.378c0.047,1.521-0.007,3.041-0.189,4.552c-0.289,2.408-0.88,4.725-2.244,6.774   c-1.033,1.55-2.387,2.682-4.254,3.09C639.04-86.789,638.524-86.769,637.992-86.79L637.992-86.79z M644.534-100.22   c-1.046,0.884-2.037,1.72-3.028,2.556c-0.167,0.141-0.414,0.248-0.485,0.425c-0.094,0.234,0.222,0.352,0.329,0.545   c0.692,1.245,0.47,2.917-0.549,3.929c-1.28,1.275-3.11,0.846-3.673-0.864c-0.071-0.227-0.11-0.468-0.164-0.708   c-0.394,0.224-0.754,0.45-1.133,0.636c-0.222,0.109-0.25,0.234-0.201,0.457c0.156,0.701,0.421,1.354,0.862,1.917   c0.781,1,1.788,1.485,3.078,1.255c1.029-0.185,1.813-0.776,2.461-1.552c0.948-1.133,1.483-2.459,1.872-3.884   C644.315-97.039,644.454-98.586,644.534-100.22L644.534-100.22z M640.265-96.659c-0.185,0.139-0.357,0.27-0.529,0.398   c-0.127,0.093-0.271,0.174-0.109,0.358c0.14,0.158,0.295,0.212,0.465,0.063C640.338-96.055,640.419-96.316,640.265-96.659z" />
	<path
   id="path622"
   inkscape:connector-curvature="0"
   d="M638.156-77.845c-0.423,0.025-0.818-0.124-1.227-0.191   c-1.987-0.329-3.923-0.876-5.764-1.687c-2.388-1.051-4.466-2.564-6.254-4.486c-0.894-0.957-1.651-2.016-2.495-3.007   c-0.791-0.924-1.565-1.863-2.665-2.434c-1.762-0.919-3.52-0.857-5.228,0.155c-1.127,0.668-2.039,1.607-2.958,2.524   c-2,1.994-4.169,3.742-6.805,4.842c-1.887,0.787-3.855,1.257-5.876,1.511c-1.163,0.147-2.329,0.233-3.502,0.235   c1.239-0.272,2.484-0.52,3.697-0.912c3.059-0.987,5.716-2.607,7.972-4.896c1.449-1.47,2.654-3.135,3.894-4.772   c0.854-1.128,1.72-2.242,2.853-3.118c1.66-1.28,3.51-1.503,5.481-1.001c1.673,0.424,2.796,1.577,3.745,2.93   c1.17,1.675,2.07,3.517,3.166,5.237c1.205,1.891,2.604,3.613,4.334,5.047c1.759,1.454,3.725,2.552,5.858,3.349   c0.53,0.197,1.066,0.374,1.6,0.558C638.051-77.939,638.14-77.947,638.156-77.845z" />
	<path
   id="path624"
   inkscape:connector-curvature="0"
   d="M595.251-80.361c0.35,0.308,0.772,0.497,1.182,0.704   c1.981,1.006,4.017,1.907,5.875,3.145c1.723,1.15,3.27,2.502,4.622,4.068c1.889,2.18,3.38,4.623,4.608,7.224   c0.822,1.737,1.519,3.525,2.143,5.347c0.551,1.605,1.026,3.23,1.485,4.861c0.039,0.135,0.104,0.266,0.039,0.41   c-0.549-1.252-1.068-2.518-1.654-3.753c-1.17-2.472-2.488-4.861-4.067-7.104c-1.254-1.784-2.644-3.448-4.235-4.942   c-2.498-2.345-5.376-4.018-8.688-4.909c-0.493-0.132-0.71-0.324-0.749-0.852c-0.101-1.346-0.341-2.674-0.608-3.998   C595.195-80.229,595.154-80.312,595.251-80.361L595.251-80.361z" />
	<path
   id="path626"
   inkscape:connector-curvature="0"
   d="M615.682-54.637c0.146-0.64,0.452-1.219,0.702-1.819   c1.164-2.79,2.501-5.496,4.107-8.058c1.465-2.34,3.145-4.512,5.151-6.419c2.525-2.391,5.466-4.071,8.731-5.224   c1.416-0.5,2.853-0.941,4.226-1.559c-0.133,0.732-0.425,1.42-0.604,2.139c-0.188,0.748-0.404,1.49-0.566,2.242   c-0.058,0.254-0.165,0.332-0.399,0.366c-2.182,0.322-4.291,0.902-6.273,1.889c-1.957,0.974-3.73,2.223-5.358,3.676   c-2.608,2.322-4.779,5.014-6.715,7.907c-1,1.492-1.926,3.026-2.799,4.593C615.832-54.807,615.8-54.686,615.682-54.637   L615.682-54.637z" />
	<path
   id="path628"
   inkscape:connector-curvature="0"
   fill="#1B1F25"
   d="M621.502-80.766c-0.216-0.032-0.395-0.126-0.462-0.351   c-0.065-0.226,0.114-0.321,0.258-0.422c0.324-0.228,0.705-0.311,1.082-0.383c0.282-0.053,0.531-0.26,0.848-0.171   c0.181,0.052,0.325,0.166,0.146,0.307c-0.518,0.399-1.022,0.829-1.679,0.996C621.632-80.775,621.565-80.773,621.502-80.766   L621.502-80.766z" />
	<path
   id="path630"
   inkscape:connector-curvature="0"
   fill="#1B1F25"
   d="M612.58-81.301c-0.331-0.064-0.597-0.217-0.833-0.417   c-0.295-0.249-0.579-0.506-0.867-0.761c-0.067-0.06-0.144-0.126-0.087-0.228c0.055-0.101,0.141-0.148,0.257-0.107   c0.622,0.222,1.293,0.329,1.817,0.785c0.143,0.125,0.28,0.247,0.197,0.442C612.976-81.378,612.779-81.308,612.58-81.301   L612.58-81.301z" />
	<path
   id="path632"
   inkscape:connector-curvature="0"
   fill="#FDC731"
   d="M598.85-96.622c0.385,0.282,0.747,0.546,1.111,0.812   c0.094,0.07,0.171,0.133,0.119,0.283c-0.34,1.032-0.89,1.912-1.825,2.504c-1.308,0.827-2.837,0.502-3.934-0.527   c-1.134-1.064-1.689-2.439-2.036-3.911c-0.453-1.915-0.43-3.856-0.266-5.802c0.003-0.02,0.023-0.038,0.057-0.086   c0.545,0.598,1.083,1.193,1.631,1.782c0.447,0.482,0.901,0.955,1.355,1.431c0.1,0.104,0.194,0.169,0.031,0.329   c-0.995,0.966-1.127,2.12-0.729,3.398c0.184,0.588,0.517,1.104,0.984,1.425c0.785,0.54,1.758,0.65,2.68-0.188   c0.211-0.193,0.385-0.42,0.51-0.674C598.659-96.086,598.741-96.344,598.85-96.622L598.85-96.622z" />
	<path
   id="path634"
   inkscape:connector-curvature="0"
   fill="#FFFFFF"
   d="M595.854-99.327c0.169,0.168,0.327,0.332,0.495,0.488   c0.102,0.095,0.192,0.184,0.06,0.316c-0.131,0.125-0.267,0.202-0.444,0.075C595.72-98.626,595.667-98.962,595.854-99.327z" />
	<path
   id="path636"
   inkscape:connector-curvature="0"
   fill="#FDC731"
   d="M644.534-100.22c-0.08,1.634-0.219,3.181-0.633,4.712   c-0.389,1.425-0.924,2.751-1.872,3.884c-0.65,0.776-1.433,1.367-2.462,1.552c-1.288,0.23-2.297-0.254-3.077-1.255   c-0.441-0.563-0.707-1.216-0.863-1.917c-0.049-0.223-0.021-0.348,0.201-0.457c0.379-0.187,0.739-0.413,1.133-0.636   c0.055,0.24,0.092,0.481,0.165,0.708c0.562,1.71,2.394,2.139,3.673,0.864c1.019-1.012,1.24-2.684,0.549-3.929   c-0.107-0.193-0.423-0.312-0.329-0.545c0.071-0.177,0.318-0.284,0.485-0.425C642.497-98.5,643.488-99.336,644.534-100.22   L644.534-100.22z" />
	<path
   id="path638"
   inkscape:connector-curvature="0"
   fill="#FFFFFF"
   d="M640.265-96.659c0.154,0.343,0.076,0.604-0.174,0.819   c-0.171,0.149-0.325,0.095-0.465-0.063c-0.162-0.184-0.018-0.265,0.109-0.358C639.908-96.389,640.079-96.52,640.265-96.659z" />
</g>
</svg>