<?xml version="1.0" encoding="utf-8"?>
<!-- Generator: Adobe Illustrator 16.0.0, SVG Export Plug-In . SVG Version: 6.00 Build 0)  -->
<!DOCTYPE svg PUBLIC "-//W3C//DTD SVG 1.1//EN" "http://www.w3.org/Graphics/SVG/1.1/DTD/svg11.dtd">
<svg version="1.1"
	 id="svg610" xmlns:dc="http://purl.org/dc/elements/1.1/" xmlns:cc="http://creativecommons.org/ns#" xmlns:rdf="http://www.w3.org/1999/02/22-rdf-syntax-ns#" xmlns:svg="http://www.w3.org/2000/svg" xmlns:sodipodi="http://sodipodi.sourceforge.net/DTD/sodipodi-0.dtd" xmlns:inkscape="http://www.inkscape.org/namespaces/inkscape" sodipodi:docname="seagull.svg" inkscape:version="0.92.4 (5da689c313, 2019-01-14)"
	 xmlns="http://www.w3.org/2000/svg" xmlns:xlink="http://www.w3.org/1999/xlink" x="0px" y="0px" width="1152px" height="648px"
	 viewBox="0 0 1152 648" enable-background="new 0 0 1152 648" xml:space="preserve">
<sodipodi:namedview  id="namedview612" borderopacity="1" pagecolor="#ffffff" bordercolor="#666666" objecttolerance="10" gridtolerance="10" guidetolerance="10" showgrid="false" inkscape:zoom="0.69728585" inkscape:cx="576" inkscape:cy="324" inkscape:pageopacity="0" inkscape:window-width="1366" inkscape:window-maximized="1" inkscape:current-layer="svg610" inkscape:pageshadow="2" inkscape:window-height="705" inkscape:window-x="-8" inkscape:window-y="-8">
	</sodipodi:namedview>
<g id="Layer_4">
	<g id="g17">
		
			<linearGradient id="circle15_1_" gradientUnits="userSpaceOnUse" x1="89.604" y1="343.001" x2="702.3965" y2="343.001" gradientTransform="matrix(1 0 0 -1 180 667)">
			<stop  offset="0" style="stop-color:#FFFFFF"/>
			<stop  offset="1" style="stop-color:#155FFF"/>
		</linearGradient>
		<path id="circle15" inkscape:connector-curvature="0" fill="url(#circle15_1_)" d="M882.396,323.999
			c0,169.218-137.18,306.396-306.396,306.396l0,0c-169.218,0-306.396-137.178-306.396-306.396l0,0
			c0-169.218,137.178-306.396,306.396-306.396S882.396,154.781,882.396,323.999z"/>
	</g>
</g>
<path id="path20" inkscape:connector-curvature="0" fill="#0000FF" stroke="#FFFFFF" stroke-width="2" stroke-miterlimit="10" d="
	M464.341,407.071c-1.823,1.06-3.65,2.119-5.613,3.259c-0.059-0.115-0.105-0.242-0.182-0.35c-1.77-2.5-4.284-3.341-7.216-3.192
	c-0.657,0.034-1.322,0.154-1.956,0.333c-2.738,0.778-4.543,2.551-5.373,5.271c-0.604,1.976-0.596,3.982-0.024,5.965
	c0.912,3.162,3.521,5.305,6.812,5.613c1.436,0.136,2.858,0.079,4.239-0.429c1.385-0.508,2.531-1.318,3.396-2.52
	c0.105-0.146,0.225-0.283,0.391-0.49c1.849,1.071,3.675,2.13,5.576,3.232c-0.183,0.288-0.322,0.533-0.485,0.762
	c-1.874,2.625-4.391,4.368-7.466,5.266c-3.588,1.046-7.155,0.882-10.587-0.604c-4.739-2.051-7.539-5.72-8.542-10.748
	c-0.612-3.063-0.367-6.098,0.852-8.98c2.172-5.145,6.104-8.086,11.606-8.902c3.411-0.506,6.658,0.054,9.683,1.75
	c1.786,1.001,3.279,2.336,4.468,4.006c0.107,0.151,0.212,0.305,0.308,0.464C464.268,406.84,464.284,406.918,464.341,407.071
	L464.341,407.071z"/>
<path id="path22" inkscape:connector-curvature="0" fill="#0000FF" stroke="#FFFFFF" stroke-width="2" stroke-miterlimit="10" d="
	M506.905,410.906c0-0.514,0-1.049,0-1.557c0.792-0.193,5.477-0.184,6.125-0.006c0,6.779,0,13.566,0,20.347
	c-0.565,0.174-4.99,0.221-6.074,0.059c-0.025-0.52-0.052-1.053-0.084-1.706c-0.225,0.17-0.353,0.249-0.461,0.349
	c-1.871,1.722-4.132,2.234-6.569,1.976c-3.562-0.377-6.083-2.337-7.701-5.461c-2.132-4.115-1.582-9.358,1.359-12.782
	c2.632-3.063,5.971-4.07,9.891-3.114c1.099,0.268,2.066,0.813,2.908,1.576c0.137,0.123,0.285,0.234,0.43,0.35
	C506.742,410.944,506.777,410.928,506.905,410.906L506.905,410.906z M501.806,414.464c-0.235,0.031-0.718,0.049-1.177,0.161
	c-2.176,0.535-3.541,2.264-3.62,4.642c-0.06,1.751,0.442,3.297,1.902,4.408c2.291,1.745,7.164,1.341,7.917-3.066
	C507.409,417.212,505.432,414.515,501.806,414.464L501.806,414.464z"/>
<path id="path24" inkscape:connector-curvature="0" fill="#0000FF" stroke="#FFFFFF" stroke-width="2" stroke-miterlimit="10" d="
	M473.92,429.809c-2.085,0-4.018,0-6.042,0c-0.026-0.266-0.071-0.518-0.071-0.769c-0.004-9.077-0.004-18.154-0.001-27.231
	c0-0.233,0.032-0.467,0.049-0.683c0.664-0.196,5.177-0.218,6.064-0.017c0,3.242,0,6.512,0,9.933
	c0.242-0.179,0.352-0.235,0.433-0.321c1.174-1.239,2.67-1.801,4.316-1.992c1.109-0.129,2.229-0.114,3.317,0.2
	c3.149,0.907,4.823,3.109,5.415,6.232c0.114,0.596,0.163,1.214,0.165,1.819c0.015,4.034,0.009,8.068,0.007,12.104
	c-0.001,0.209-0.02,0.418-0.034,0.712c-1.998,0.081-3.975,0.021-6.058,0.04c-0.014-0.35-0.035-0.654-0.035-0.96
	c-0.002-3.45,0.009-6.9-0.008-10.351c-0.004-0.604-0.038-1.23-0.196-1.809c-0.371-1.362-1.321-2.152-2.713-2.346
	c-0.542-0.076-1.116-0.062-1.66,0.021c-1.495,0.226-2.562,1.356-2.821,2.949c-0.08,0.495-0.119,1.003-0.12,1.505
	c-0.012,3.317-0.006,6.635-0.006,9.953C473.92,429.11,473.92,429.422,473.92,429.809z"/>
<path id="path26" inkscape:connector-curvature="0" fill="#0000FF" stroke="#FFFFFF" stroke-width="2" stroke-miterlimit="10" d="
	M337.764,401.013c5.829,0,11.58,0,17.39,0c0,2.068,0,4.094,0,6.213c-3.591,0-7.162,0-10.695,0c-0.238,0.626-0.306,4.298-0.121,5.631
	c0.283,0.021,0.588,0.06,0.895,0.06c2.92,0.004,5.84,0.004,8.758,0.004c0.312,0,0.623,0,0.984,0c0,2.113,0,4.117,0,6.218
	c-0.302,0.02-0.606,0.055-0.912,0.055c-2.919,0.005-5.839,0.001-8.758,0.005c-0.311,0-0.621,0.026-1.042,0.047
	c-0.022,3.531,0.003,6.996-0.014,10.444c-0.629,0.183-4.646,0.241-6.39,0.107c-0.014-0.016-0.031-0.034-0.049-0.055
	c-0.017-0.02-0.047-0.039-0.047-0.06c-0.014-9.367-0.026-18.736-0.037-28.104C337.724,401.421,337.746,401.267,337.764,401.013
	L337.764,401.013z"/>
<path id="path28" inkscape:connector-curvature="0" fill="#0000FF" stroke="#FFFFFF" stroke-width="2" stroke-miterlimit="10" d="
	M422.073,429.807c-2.08,0-4.04,0-5.996,0c-0.174-0.561-0.237-27.498-0.07-28.694c0.64-0.191,5.272-0.202,6.056,0.007
	c0,5.594,0,11.209,0,16.887c0.414-0.098,0.511-0.393,0.661-0.613c1.716-2.49,3.438-4.976,5.119-7.49
	c0.354-0.529,0.737-0.721,1.363-0.707c1.777,0.04,3.556,0.013,5.334,0.016c0.253,0.001,0.505,0.025,0.915,0.046
	c-2.541,3.496-4.984,6.854-7.479,10.286c2.528,3.383,5.047,6.754,7.633,10.215c-0.286,0.034-0.478,0.073-0.668,0.073
	c-1.858,0.006-3.716-0.012-5.573,0.013c-0.477,0.008-0.767-0.152-1.043-0.539c-1.835-2.569-3.694-5.121-5.548-7.678
	c-0.163-0.225-0.345-0.436-0.606-0.627C422.066,423.922,422.086,426.821,422.073,429.807L422.073,429.807z"/>
<path id="path30" inkscape:connector-curvature="0" fill="#0000FF" stroke="#FFFFFF" stroke-width="2" stroke-miterlimit="10" d="
	M368.753,419.57c-0.018-6.128,4.75-10.896,10.9-10.902c6.111-0.008,10.903,4.736,10.923,10.807
	c0.02,6.13-4.755,10.945-10.866,10.956C373.565,430.444,368.771,425.691,368.753,419.57z M384.434,419.52
	c0.101-2.633-1.953-5.413-5.765-4.798c-2.319,0.375-3.876,2.461-3.796,4.964c0.071,2.161,1.203,3.812,3.08,4.479
	C381.009,425.25,384.505,423.318,384.434,419.52z"/>
<path id="path32" inkscape:connector-curvature="0" fill="#0000FF" stroke="#FFFFFF" stroke-width="2" stroke-miterlimit="10" d="
	M548.182,429.801c-2.031,0-3.988,0-6.056,0c-0.01-0.309-0.028-0.613-0.028-0.92c-0.002-3.476,0.004-6.952-0.008-10.429
	c-0.004-0.501-0.044-1.011-0.146-1.5c-0.303-1.455-1.375-2.448-2.852-2.587c-0.622-0.059-1.285-0.043-1.889,0.102
	c-1.536,0.367-2.436,1.593-2.613,3.415c-0.03,0.315-0.025,0.636-0.025,0.954c-0.002,3.344,0,6.688,0,10.031c0,0.286,0,0.574,0,0.912
	c-2.053,0-4.03,0-6.011,0c-0.165-0.557-0.238-18.849-0.08-20.406c0.524-0.199,4.976-0.255,6.053-0.063
	c0.024,0.518,0.047,1.054,0.076,1.685c0.167-0.11,0.263-0.149,0.326-0.218c1.202-1.295,2.745-1.873,4.45-2.058
	c1.084-0.118,2.174-0.098,3.238,0.208c2.91,0.83,4.614,2.805,5.298,5.688c0.2,0.843,0.288,1.731,0.295,2.601
	c0.03,3.9,0.015,7.802,0.012,11.703C548.223,429.203,548.197,429.487,548.182,429.801L548.182,429.801z"/>
<path id="path34" inkscape:connector-curvature="0" fill="#0000FF" stroke="#FFFFFF" stroke-width="2" stroke-miterlimit="10" d="
	M413.339,413.919c-1.782,1.033-3.519,2.04-5.305,3.075c-0.883-1.495-2.186-2.212-3.832-2.283c-1.355-0.06-2.57,0.343-3.554,1.31
	c-1.925,1.893-1.798,5.445,0.193,7.237c1.584,1.426,5.345,1.859,7.223-1.154c1.751,1.002,3.506,2.007,5.257,3.01
	c-1.768,3.52-6.484,6.216-11.854,5.031c-4.735-1.044-8.158-5.235-8.324-10.092c-0.18-5.259,2.961-9.675,7.872-11.001
	C405.865,407.74,411.134,409.801,413.339,413.919L413.339,413.919z"/>
<path id="path36" inkscape:connector-curvature="0" fill="#0000FF" stroke="#FFFFFF" stroke-width="2" stroke-miterlimit="10" d="
	M359.131,399.796c2.005,0,3.957,0,5.964,0c0,10.011,0,19.971,0,29.984c-1.994,0-3.945,0-5.913,0
	c-0.005-0.006-0.026-0.021-0.044-0.041c-0.018-0.018-0.045-0.037-0.048-0.059c-0.02-0.131-0.048-0.263-0.048-0.393
	c0.001-9.737,0.005-19.475,0.012-29.212C359.051,400.002,359.092,399.928,359.131,399.796z"/>
<path id="path38" inkscape:connector-curvature="0" fill="#0000FF" stroke="#FFFFFF" stroke-width="2" stroke-miterlimit="10" d="
	M517.77,409.268c1.98,0,3.953,0,5.982,0c0,6.854,0,13.656,0,20.514c-1.995,0-3.947,0-5.914,0c-0.006-0.006-0.026-0.023-0.045-0.042
	c-0.02-0.019-0.045-0.037-0.049-0.059c-0.02-0.131-0.048-0.262-0.048-0.393c-0.002-6.554,0-13.106,0.004-19.659
	C517.701,409.525,517.738,409.424,517.77,409.268z"/>
<path id="path40" inkscape:connector-curvature="0" fill="#0000FF" stroke="#FFFFFF" stroke-width="0.75" stroke-miterlimit="10" d="
	M517.459,387.729c0-1.129,0.013-2.163-0.007-3.198c-0.008-0.449,0.152-0.749,0.55-0.966c0.744-0.408,1.48-0.834,2.205-1.273
	c0.355-0.217,0.668-0.247,1.034-0.022c0.747,0.456,1.507,0.892,2.273,1.315c0.367,0.204,0.523,0.476,0.517,0.899
	c-0.02,1.061-0.007,2.122-0.007,3.17c0.038,0.055,0.059,0.111,0.099,0.138c1.043,0.682,1.044,0.681,2.101,0.071
	c0.436-0.252,0.878-0.494,1.309-0.758c0.301-0.184,0.582-0.205,0.894-0.021c0.8,0.471,1.605,0.933,2.412,1.393
	c0.281,0.16,0.412,0.381,0.408,0.712c-0.011,0.955-0.009,1.911,0,2.867c0.004,0.33-0.124,0.544-0.412,0.702
	c-0.626,0.348-1.246,0.707-1.86,1.076c-0.705,0.424-0.722,1.603-0.026,2.024c0.591,0.357,1.186,0.708,1.793,1.034
	c0.374,0.199,0.524,0.467,0.512,0.893c-0.026,0.876-0.027,1.753,0,2.628c0.014,0.431-0.15,0.687-0.521,0.887
	c-0.723,0.392-1.44,0.797-2.138,1.232c-0.411,0.258-0.768,0.269-1.18,0.009c-0.605-0.38-1.23-0.734-1.857-1.077
	c-0.643-0.35-1.508,0.147-1.526,0.876c-0.018,0.69-0.022,1.381,0.001,2.071c0.017,0.449-0.139,0.747-0.54,0.966
	c-0.77,0.418-1.521,0.865-2.274,1.312c-0.299,0.177-0.572,0.222-0.891,0.03c-0.795-0.479-1.598-0.944-2.411-1.396
	c-0.349-0.194-0.464-0.476-0.458-0.852c0.009-0.663,0.008-1.327,0-1.991c-0.012-0.922-0.822-1.409-1.615-0.968
	c-0.626,0.349-1.248,0.704-1.86,1.075c-0.332,0.199-0.629,0.209-0.966,0.007c-0.774-0.463-1.559-0.91-2.346-1.35
	c-0.314-0.174-0.444-0.409-0.438-0.771c0.018-0.93,0.019-1.859,0-2.788c-0.009-0.372,0.152-0.591,0.458-0.762
	c0.625-0.35,1.25-0.7,1.861-1.072c0.639-0.392,0.64-1.609,0.003-1.999c-0.59-0.358-1.187-0.705-1.795-1.03
	c-0.367-0.196-0.541-0.45-0.529-0.883c0.025-0.901,0.02-1.805,0.003-2.707c-0.007-0.362,0.13-0.598,0.441-0.772
	c0.786-0.441,1.569-0.892,2.344-1.354c0.336-0.2,0.631-0.193,0.963,0.011c0.563,0.347,1.161,0.644,1.717,1.006
	c0.411,0.268,0.77,0.28,1.159-0.014C517.043,387.968,517.254,387.856,517.459,387.729L517.459,387.729z M523.485,392.594
	c1.247-0.583,1.247-0.583,1.247-1.822c0-1.569-0.005-1.561-1.384-2.279c-0.296-0.155-0.53-0.162-0.809,0.013
	c-0.427,0.267-0.876,0.495-1.303,0.76c-0.327,0.203-0.632,0.239-0.96,0.013c-0.151-0.104-0.32-0.183-0.482-0.275
	c-1.369-0.791-1.363-0.782-2.661,0.069c-0.276,0.183-0.397,0.388-0.388,0.716c0.018,0.555-0.011,1.111,0.009,1.668
	c0.026,0.746,1.004,1.273,1.668,0.905c0.532-0.295,1.076-0.576,1.579-0.916c0.503-0.337,0.94-0.357,1.458-0.018
	C522.12,391.861,522.829,392.221,523.485,392.594L523.485,392.594z M520.257,398.979c0.118-0.498-0.114-0.787-0.548-1.006
	c-0.541-0.275-1.044-0.627-1.587-0.897c-0.489-0.243-0.703-0.579-0.672-1.132c0.036-0.659,0.021-1.323,0.003-1.983
	c-0.019-0.719-0.96-1.269-1.59-0.932c-0.489,0.265-0.972,0.541-1.444,0.831c-0.638,0.393-0.633,1.597,0.009,1.989
	c0.588,0.357,1.179,0.71,1.788,1.027c0.407,0.212,0.562,0.506,0.54,0.956c-0.027,0.607-0.011,1.217-0.004,1.825
	c0.011,0.937,0.933,1.488,1.736,1.041c0.415-0.23,0.813-0.499,1.239-0.708C520.17,399.776,520.373,399.468,520.257,398.979
	L520.257,398.979z M527.477,394.813c0.13-0.534-0.119-0.842-0.583-1.065c-0.429-0.206-0.823-0.479-1.241-0.704
	c-0.672-0.364-1.606,0.19-1.624,0.963c-0.014,0.581-0.041,1.168,0.007,1.745c0.055,0.661-0.153,1.1-0.774,1.391
	c-0.573,0.269-1.112,0.611-1.651,0.945c-0.582,0.361-0.589,1.435-0.01,1.798c0.493,0.31,1.001,0.595,1.513,0.871
	c0.627,0.339,1.596-0.202,1.615-0.906c0.02-0.688,0.025-1.378-0.002-2.064c-0.017-0.428,0.146-0.69,0.515-0.889
	c0.537-0.284,1.041-0.636,1.586-0.902C527.345,395.743,527.625,395.406,527.477,394.813L527.477,394.813z M522.543,401.588
	c-0.596-0.346-1.063-0.633-1.547-0.889c-0.123-0.063-0.33-0.082-0.447-0.022c-0.504,0.26-0.992,0.557-1.621,0.918
	c0.63,0.347,1.105,0.624,1.599,0.866c0.122,0.061,0.327,0.057,0.449-0.005C521.466,402.208,521.938,401.928,522.543,401.588
	L522.543,401.588z M529.796,397.508c-0.622-0.364-1.087-0.646-1.564-0.908c-0.103-0.056-0.276-0.086-0.372-0.038
	c-0.527,0.263-1.064,0.521-1.613,0.975c0.588,0.323,1.063,0.596,1.551,0.844c0.101,0.052,0.269,0.066,0.365,0.017
	C528.669,398.14,529.162,397.856,529.796,397.508L529.796,397.508z M526.216,389.019c0.679,0.387,1.236,0.704,1.795,1.022
	c0.586-0.343,1.118-0.652,1.758-1.026c-0.591-0.349-1.031-0.63-1.494-0.868c-0.142-0.073-0.376-0.091-0.513-0.021
	C527.277,388.371,526.816,388.665,526.216,389.019z M515.283,397.496c-0.628-0.361-1.116-0.654-1.618-0.921
	c-0.098-0.052-0.272-0.044-0.372,0.01c-0.498,0.267-0.981,0.559-1.604,0.919c0.701,0.388,1.245,0.689,1.811,1.002
	C514.064,398.187,514.604,397.881,515.283,397.496z M515.26,389.019c-0.577-0.344-1.015-0.634-1.48-0.865
	c-0.158-0.078-0.421-0.075-0.58,0.004c-0.465,0.23-0.903,0.519-1.482,0.86c0.603,0.345,1.092,0.637,1.594,0.903
	c0.096,0.052,0.266,0.051,0.362,0C514.174,389.653,514.661,389.361,515.26,389.019L515.26,389.019z M511.179,389.874
	c0,0.714-0.008,1.211,0.005,1.707c0.004,0.123,0.033,0.298,0.115,0.357c0.495,0.354,0.994,0.714,1.683,0.902
	c0-0.604,0.018-1.101-0.01-1.595c-0.01-0.16-0.095-0.38-0.218-0.461C512.302,390.488,511.82,390.238,511.179,389.874
	L511.179,389.874z M522.508,393.199c-0.604-0.356-1.048-0.633-1.508-0.877c-0.122-0.065-0.33-0.096-0.441-0.036
	c-0.492,0.269-1.014,0.504-1.531,0.949c0.555,0.321,0.996,0.599,1.461,0.832c0.137,0.068,0.367,0.071,0.503,0.001
	C521.455,393.835,521.896,393.556,522.508,393.199L522.508,393.199z M518.471,394.066c0,0.722-0.003,1.266,0.003,1.81
	c0.001,0.075,0.027,0.156,0.064,0.223c0.146,0.257,1.269,0.805,1.732,0.834c0-0.475,0.015-0.949-0.009-1.421
	c-0.008-0.169-0.06-0.408-0.178-0.487C519.613,394.707,519.108,394.438,518.471,394.066z M521.221,397.082
	c0.66-0.237,1.134-0.561,1.612-0.867c0.092-0.059,0.167-0.215,0.171-0.329c0.018-0.545,0.009-1.091,0.009-1.81
	c-0.628,0.362-1.125,0.638-1.606,0.938c-0.094,0.06-0.174,0.216-0.178,0.329C521.211,395.886,521.221,396.429,521.221,397.082z
	 M518.469,402.456c0,0.717-0.01,1.238,0.007,1.759c0.003,0.118,0.055,0.288,0.142,0.344c0.498,0.318,0.971,0.698,1.65,0.834
	c0-0.578,0.02-1.102-0.013-1.622c-0.009-0.153-0.13-0.352-0.261-0.436C519.559,403.053,519.098,402.813,518.469,402.456z
	 M523.015,402.449c-0.646,0.371-1.107,0.621-1.549,0.902c-0.115,0.074-0.229,0.246-0.234,0.378
	c-0.027,0.541-0.011,1.085-0.011,1.798c0.637-0.365,1.121-0.623,1.581-0.919c0.11-0.07,0.197-0.258,0.203-0.396
	C523.029,403.69,523.015,403.167,523.015,402.449z M528.492,392.97c0.64-0.375,1.135-0.653,1.613-0.958
	c0.094-0.059,0.168-0.216,0.171-0.33c0.019-0.539,0.008-1.079,0.008-1.809c-0.647,0.377-1.142,0.652-1.619,0.955
	c-0.091,0.058-0.161,0.218-0.163,0.332C528.482,391.701,528.492,392.244,528.492,392.97z M522.408,384.214
	c-0.454-0.49-1.011-0.682-1.497-0.975c-0.076-0.046-0.223-0.057-0.297-0.014c-0.509,0.293-1.089,0.486-1.527,1.003
	c0.479,0.281,0.896,0.556,1.342,0.775c0.163,0.08,0.426,0.1,0.583,0.022C521.478,384.799,521.913,384.509,522.408,384.214
	L522.408,384.214z M530.247,398.371c-0.589,0.337-1.067,0.595-1.523,0.886c-0.113,0.071-0.214,0.25-0.221,0.384
	c-0.024,0.54-0.01,1.083-0.01,1.653c1.627-0.506,1.83-0.771,1.801-2.254C530.29,398.884,530.272,398.728,530.247,398.371z
	 M512.977,401.372c0-0.674,0.01-1.221-0.009-1.766c-0.004-0.114-0.082-0.27-0.175-0.328c-0.479-0.301-0.951-0.623-1.504-0.828
	c-0.341,1.7-0.251,1.91,1.102,2.646C512.526,401.169,512.67,401.229,512.977,401.372z M520.254,386.135
	c-0.589-0.436-1.083-0.799-1.741-0.964c-0.07,0.646-0.087,1.232,0.023,1.952C519.158,386.765,519.669,386.471,520.254,386.135
	L520.254,386.135z M522.963,387.112c0-0.731,0-1.315,0-1.98c-0.643,0.275-1.194,0.526-1.699,1.029
	C521.842,386.486,522.356,386.772,522.963,387.112z M519.673,387.7c1.014,0.808,1.174,0.807,2.106,0.012
	C520.875,386.883,520.738,386.879,519.673,387.7z M515.35,400.657c-0.52-0.292-0.82-0.623-1.298-0.629c0,0.447,0,0.845,0,1.351
	C514.499,401.13,514.852,400.935,515.35,400.657z M527.014,390.61c-0.508-0.273-0.839-0.451-1.261-0.68c0,0.51,0,0.879,0,1.383
	C526.186,391.071,526.515,390.89,527.014,390.61z M527.413,401.368c0-0.522,0-0.938,0-1.473c-0.456,0.275-0.799,0.481-1.262,0.76
	C526.646,400.935,527,401.135,527.413,401.368L527.413,401.368z M515.756,389.888c-0.474,0.281-0.793,0.471-1.258,0.747
	c0.496,0.256,0.841,0.435,1.258,0.649C515.756,390.786,515.756,390.429,515.756,389.888z M526.23,392.221
	c0.463,0.261,0.799,0.449,1.198,0.675c0-0.506,0-0.876,0-1.366C527.005,391.774,526.684,391.96,526.23,392.221z M514.047,391.517
	c0,0.524,0,0.898,0,1.414c0.434-0.269,0.763-0.472,1.179-0.729C514.793,391.95,514.484,391.771,514.047,391.517L514.047,391.517z
	 M514.599,399.044c0.429,0.233,0.75,0.408,1.133,0.616c0-0.466,0-0.807,0-1.277C515.321,398.621,515.019,398.799,514.599,399.044z
	 M526.91,399.031c-0.469-0.252-0.775-0.417-1.137-0.611c0,0.467,0,0.81,0,1.271C526.176,399.457,526.463,399.29,526.91,399.031z"/>
<g id="g1536" transform="matrix(1.0502624,0,0,1.0502624,-69.403271,-2.216688)">
	<g id="Layer_5" transform="matrix(1.1437147,0,0,1.1437147,-22.118277,-22.740525)">
		<path id="path43" inkscape:connector-curvature="0" fill="#F2B340" d="M560.646,447.959l-5.646-4.1l-2.37-2.061h-1.938
			l-1.938-3.395l-3.655-0.061l-1.598-0.021l-2.159-2.373v-3.086l2.266-2.592l3.728-2.622l6.066-1.725l8.85,0.599
			c0,0,7.271-1.967,8.917-2.293c1.646-0.326,7.491-2.076,7.491-2.076l7.015-4.595l2.748-3.892L593.32,403l0.217-9.441l1.497-6.483
			l0.519-6.074l-0.549-2.376l6.88-16.67l43.94,10.116l4.11,13.234l-1.314,6.9l-2.16,13.822v11.533l1.144,11.19l-1.144,5.822
			l-3.047,5.527l-1.944,4.068l-1.663,6.438l-1.087,4.953l-1.491,5.528l-2.085,3.844l-1.694,2.529l-4.131-0.628L626.251,466
			l-3.001-2.192l-1.997-1.57l-2.615-0.239l-2.696,0.896l-2.789,1.354l-1.65-2.267c-1.75-0.981-3.802-1.481-3.802-1.481l-0.68-0.755
			l2.294-3.604l-0.805-2.166l-1.881-2.782c-1.879-1.193-5.3-0.585-5.3-0.585l-1.079-1.738c0,0-1.738-2.37-1.494-3.12
			c0.244-0.75,0-3.632,0-3.632l5.511-2.973l4.927-1.898l15.185-5.104l4.937-1.871l4.673-3.748l1.152-4.107l1.523-9.989L638.25,395
			l-0.239-12.76l-1.457-3.615l-7.693-2.551l-8.683-1.861l-7.417,4.412l-5.063,2.376l-1.07,1.33l-0.283,4.196l-0.727,5.679
			l-2.39,8.194l-2.922,8.563l-0.481,3.786l0.547,3.869l2.304,4.51l-0.794,3.711l-1.662,1.684l-4.563,3.748l-2.784,1.872
			l-1.633,2.209l-1.964,4.053l-2.084,5.455l-1.69,4.16l-1.332,2.589l-2.18,2.628l-1.888,1.073l-2.489,0.77l-4.116-2.185
			l-2.493-1.402l-2.071-2.252l-3.685-1.219L560.646,447.959z"/>
		<path id="polygon45" inkscape:connector-curvature="0" fill="#FFFFFF" d="M552.526,453.976l8.12-6.017l-4.06-4.1l-3.512,0.039
			l-1.367,2.852L552.526,453.976z"/>
		<path id="polygon47" inkscape:connector-curvature="0" fill="#FFFFFF" d="M545.098,437.675l-7.514,2.081l1.483-3.807l1.53-2.336
			l1.96-2.141l2.541,1.209V437.675L545.098,437.675z"/>
		<path id="polygon49" inkscape:connector-curvature="0" fill="#FFFFFF" d="M577.25,453.976l-3.56,7.114l-1.929-3.558l-1.624-4.639
			l1.728-0.919l2.846,0.919L577.25,453.976z"/>
		<path id="polygon51" inkscape:connector-curvature="0" fill="#FFFFFF" d="M599.342,444.17l-3.317,3.589l-1.379,2.849l-1.328,2.286
			l4.284-0.661l3.727-1.625l0.843-1.689l-0.289-1.712L599.342,444.17z"/>
		<path id="polygon53" inkscape:connector-curvature="0" fill="#FFFFFF" d="M609.195,459.745l-2.465,3.924l-0.101,3.846l0.523,2.606
			l2.043-3.288l2.946-1.901l3.799-2.039l-3.353-1.806L609.195,459.745z"/>
		<path id="polygon55" inkscape:connector-curvature="0" fill="#FFFFFF" d="M624.864,466.513v2.385l0.367,1.522l1.181,3.145
			l0.165,0.441l2.927-3.585l2.842-2.957l-3.743-1.182L624.864,466.513z"/>
		<path id="path57" inkscape:connector-curvature="0" fill="#FFFFFF" d="M708.447,391.886l10.003,7.225l9.816,3.766l8.735,2.022
			l6.498,1.13l5.248-0.286l2.428-1.531l0.55-2.116l-1.887-4.034l-4.339-5.854l-5.769-1.183l-2.179-3.945l-4.081-4.838l-6.392-5.304
			l-6.83-2.724c0,0-5.358-3.36-6.556-3.843c-1.199-0.485-8.585-3.568-8.585-3.568h-6.859c0,0-3.878-0.49-5,1.093s0.5,7.754,1,8.18
			c0.5,0.426,5.5,9.315,5.5,9.315L708.447,391.886z"/>
		<path id="path59" inkscape:connector-curvature="0" fill="#363636" d="M659.247,376.979l14.415,6.866l9.81,4.654l9.391,1.519
			l5.508,1.322l8.019,1.596l4.361-1.913l1.75-1.023l0.498-2l-2.5-4.5c0,0-2.967-2.539-3.358-3.895s-2.619-4.941-2.619-4.941
			L704.5,372.5L703,369l-3.738-3.489l-2.845-3.556v-2.996l-0.826-3.733l-3.556-5.619l-3.066-3.589l-2.846-2.615l-1.188-2.988
			c0,0-2.502-1.896-1.463-2.915c1.039-1.019-0.719-3.332-0.719-3.332s-1.162-2.771-2.445-4.005
			c-1.283-1.234-4.953-3.825-4.953-3.825l-1.69-4.091l-0.14-2.489l-1.138-4.293l-3.338-5.074l-4.456-3.293l-1.806-4.511
			l-1.946-3.337l-4.176-3.502c0,0-2.68-3.771-2.729-3.825c-0.05-0.053-2.393-2.144-2.393-2.144l-9.228,8.718l-3.594,14.861v20.807
			c0,0-0.235,8.284,3.149,17.433c3.383,9.15,4.803,11.649,5.593,13.649c0.79,2,4.08,6.749,4.08,6.749L659.247,376.979z"/>
		<path id="path61" inkscape:connector-curvature="0" fill="#B3B3B3" d="M638.011,366.748l5.912,4.335c0,0,3.341,3.545,4.249,3.13
			c0.908-0.414,5.078,0.533,5.078,0.533l2.55,0.006l2.758-3.669v-3.05l-0.372-1.303l-2.676-5.302l3.276-3.708l-0.039-4.596
			l-0.88-3.519l1.38-3.187l0.753-4.123l-1.253-1.977l-2.085-4.558l-1.647-2.473l1.515-3.271l-0.32-3.68l-1.194-3.096l-1.08-2.567
			v-1.526v-2.9l0.567-4.5l-0.567-2.772l-1.559-3.406l-1.283-2.982l2.159-5.112l0.683-5.552l-3.999-5.965l-2.474-5.21l-3.114-2.515
			l-4.239,2.515l-6.562,5.055l-2.392,28.294V338l1.935,6.002l2.034,11.226L638.011,366.748z"/>
		<path id="path63" inkscape:connector-curvature="0" fill="#E6E6E6" d="M632.587,376.937l5.88,4.064l5.88,4.389l7.194,0.146
			c0,0,4.678,0.728,5.082-0.146c0.404-0.872,5.028-1.77,5.028-1.77l3.597-1.38l-0.489-2.635l-6.914-3.532l-5.813-1.41l-4.573-1.648
			l-5.148-3.115l-2.522-2.006l-4.647-7.733l-5.825-13.122l-2.566-15.628l-41-71.411l-3.669-8.512c0,0-2.741-10.546-2.823-11.301
			c-0.081-0.755-0.294-13.14-0.294-13.14l1.141-10.797l3.25-5.794l5.838-9.481l4.706-6.549l3.103-4.369
			c0,0,8.16-15.249,8.382-15.935c0.222-0.686,1.638-20.977,1.638-20.977l-1.404-10.26l-4.414-10.324l-4.112-5.643L576,113.25
			l-21.937-2.754l-14.524,0.971l-14.472,5.208l-5.289,5.575l-6.088,6.806l-1.106,3.505l-2.589,2.152l-0.991,9.792v10.484
			l0.991,10.723V171l20.979,11.434l9.923,16.511l1.663,13.788l-0.087,6.501l-2.619,7.245c0,0-2.941,7.04-3.219,7.679
			c-0.276,0.639-2.462,5.886-2.462,5.886s-1.023,1.122-1.121,2.239c-0.098,1.117-2.079,1.766-2.079,1.766l-4.965-5.81l-5.38-8.031
			l-3.485-6.161l-1.685-5.563l-6.456-15.233l-6.416-10.5l-30.988-10.608l-4.639-3.278l-4.46-3.627l-4.749-2.036l-5.38,0.841
			l-5.486,7.88l2.04,31.177l2.045,17.108l3.254,11.043v11.601v4.899l6.967,5.75l14.468,11.176L483.25,279l7.75,4.749l5.764,2.845
			l7.6,3.188l8.22,0.631h7.194h5.289l0.543,7.065l8.64,23.199c0,0,6.903,10.31,7.961,10.736
			c1.058,0.426,13.857,12.847,13.857,12.847s22.499,13.992,22.591,14.492c0.093,0.5,2.838,3.389,2.732,5.229
			c-0.107,1.841,3.226,6.328,3.226,6.328l5.384,4.355l5.003,3.961l6.497,0.98l5.205,0.533l3.14-0.533l3.406-2.669l1.402-2.724
			l9.815,2.724h3.032L632.587,376.937L632.587,376.937z"/>
		<path id="path65" inkscape:connector-curvature="0" fill="#E6E6E6" d="M628.666,363.979l4.88,3.955l4.973-1.461l2.474-4.519
			l0.875-1.793c0,0-0.411-3.96-0.389-4.936c0.023-0.976-0.485-2.869-0.485-2.869s2.931-1.893,2.345-2.75
			c-0.586-0.857,0.587-3.187,0.587-3.187l-0.754-4.123l-1.303-2.928L641.5,337.5l0.367-3.332l-0.303-4.15l-1.456-3.523V324v-3.324
			L639.25,317l-2.095-2.9c0,0,1.026-3.169,1.311-3.634c0.285-0.465,1.997-2.486,1.641-2.851c-0.357-0.365,0-2.043,0-2.043
			l-1.389-2.982l-0.2-2.581c0,0,1.697-1.554,1.589-2.531c-0.107-0.977,0.424-4.339,0.659-4.533c0.233-0.193,0.515-1.722,0-2.583
			s0.226-2.187,0.226-2.187s2.854-1.739,2.932-2.832c0.078-1.093,0-4.093,0-4.093l-1.611-1.529l-21.225-17.585l-20.578-8.949
			l-11.01,1.244l-9.396,4.837c0,0-3.854,3.257-4.104,4.62c-0.25,1.363-2.75,5.112-2.75,5.112l-2,7.499l-1.113,6.506l1.113,11.596
			c0,0,5.249,11.898,5.5,12.648c0.25,0.75,6,13.426,6,13.426l7.202,7.212l20.117,19.15l14.146,13.122L628.666,363.979z"/>
		<path id="path67" inkscape:connector-curvature="0" fill="#B3B3B3" d="M455.303,259.71l-4.334-0.787l-3.73-5.737l-4.739-9.138
			l-7.844-12.798l-3.913-22.219l-1.993-23.619l0.75-10.176l4.503-6.847l5.872-2.077l4.439,1.461l5.786,2.366l4.948,3.061
			l-2.677,3.827v4.34v3.546v3.44l-1.401,1.55v4.75l3.254,2.847v3.165v6.223v7.362l1.569,4.983l0.25,4.187l1.708,3.222l-1.185,3.565
			c0,0-1.732,0.871-0.774,1.707c0.959,0.836,1.958,5.652,1.958,5.652l0.85,2.688l-0.85,2.028l-0.91,1.766l0.131,2.988l-0.22,3.119
			l-0.185,2.166l-2.115,3.057L455.303,259.71z"/>
		<path id="path69" inkscape:connector-curvature="0" fill="#363636" d="M425.618,229.156l6.319,6.541l4.68,6.586l4.164,3.97
			l3.533,3.317l1.48,1.918l-1.821-6.238l0.652-4.928l0.469-2.083l-1.418-4.418l-1.789-4.664l-0.137-4.406l0.135-5.277l-0.487-3.215
			l-1.783-3.159l-0.592-4.067v-2.143l-1.772-3.388l-1.544-2.835c0,0-0.178-2.665-0.317-3.415c-0.139-0.75,0.088-3.25,0.088-3.25
			l1.173-2.333c0,0,0.35-1.167,0.1-1.917c-0.25-0.75-1.044-2.969-1.044-2.969s-0.502-0.955-0.229-1.868
			c0.273-0.913,1.604-2.771,1.604-2.771c1.419-1.392-0.105-4.511-0.105-4.511l-1.402-2.594l-0.824-3.288l-0.093-3.592l1.05-2.446
			l-2.956-2.14l-35.272-11.669L385,153.146c0,0-1.369,0.106-3.75,0.451c-2.381,0.345-3.75,4.995-3.75,4.995l1.192,3.432l6.308,5.507
			l5.308,6.51l1.692,3.59c0,0,4.033,3.23,4.392,3.174c0.359-0.056-0.358,0.056-0.358,0.056l2.048,5.92l2.617,4.512
			c0,0,3.802,5.457,4.552,5.957c0.75,0.5,4.033,3.415,4.033,3.415c0.967,1.335,0.732,2.782,1.001,3.879
			c0.269,1.097,0.509,2.845,1.363,3.4c0.853,0.555,3.431,3.391,3.392,4.098c-0.039,0.707,2.71,4.215,2.71,4.215H421
			c1.25,1.992,1.603,5.709,1.603,5.709l1.2,4.065L425.618,229.156z"/>
		<path id="path71" inkscape:connector-curvature="0" fill="#FFFFFF" d="M370.397,154.792l-8.147-1.195l-5.5,1.195l-2.766,1.245
			l1.634,3.424l4.1,4.112l4.032,4.202l6.647,3.726l8.295,3.847l9.896,1.782l3.412,0.502l-2.378-4.431l-1.034-4.811l-1.391-2.775
			l-4.647-4.473c0,0-2.269-3.894-3.3-4.142c-1.031-0.248-3.519-0.996-3.519-0.996L370.397,154.792z"/>
		<path id="path73" inkscape:connector-curvature="0" fill="#FFFFFF" d="M507.588,161.142l-2.747-6.152l-0.479-8.947
			c0,0,1.918-5.082,2.258-5.756s3.373-5.573,3.373-5.573l5.465-2.112l4.072,2.112c0,0,0.023,3.486,0.245,4.761
			c0.224,1.275,0,5.03,0,5.03l0.655,6.608l-1.683,1.387l-3.291,1.378l-2.876,4.714L507.588,161.142z"/>
		<path id="polygon75" inkscape:connector-curvature="0" fill="#FFFFFF" d="M550.903,165.712L544.969,157l-2.385-5.887l0.77-6.608
			L546.5,137l4.401-4.399l6.927-1.352h5.221l5.151,3.404l4.007,6.596l0.967,6.358L571.25,156l-1.169,5.142l-1.879,2.43h-3.189
			l-4.47,0.156l-2.898,0.493l-4.899,1.491H550.903z"/>
		<path id="path77" inkscape:connector-curvature="0" fill="#F5C242" d="M548.832,168.542l-10.615-2.831l-6.458-7.7l-6.149-6.108
			l-5.177,0.085l-6,2.66l-6.118,7.376l-3.855,5.172L496.764,172l-4.494,3.236l-20.087,6.685l-13.227,7.273l-5.593,6.784
			l-1.711,4.707l-1.551,6.203v8.163l0.87,6.671l4.334-4.043l7.466-4.668L476,208.25l11-3.75l9.764-2.805l5.823-1.03l-3.119,3.762
			l-2.702,5.608l-1.264,7.714l-1.5,7l-1.066,5.457c0,0-0.434,4.928-0.684,5.61c-0.25,0.682-0.143,4.226-0.143,4.226
			s-1.107,3.053-0.607,4.005c0.5,0.952,1.25,1.952,1.25,1.952l3.063,0.252l3.651-3.97l5.958-8.125l6.619-7.679l4.839-7.006
			l9.299-6.253c0,0,5.571-4.215,6.872-4.188c1.302,0.027,6.098-4.674,6.098-4.674l4.96-8.222c0,0,4.431-8.573,4.536-9.354
			c0.106-0.781,3.867-7.917,3.867-7.917s0.011-4.463,0-5.664C552.5,171.998,548.832,168.542,548.832,168.542L548.832,168.542z"/>
		<path id="polygon79" inkscape:connector-curvature="0" fill="#C1272D" d="M530.973,190l-18.087,6.136l-5.926,3.107l-2.721,2.452
			l-3.063,5.193l-1.722,9.37l-1.746,10.221l-0.944,7.678l7.055-10.737l5.843-7.642l7.48-10.202l13.831-12.198V190z"/>
		<path id="polygon81" inkscape:connector-curvature="0" fill="#EE8699" d="M530.973,186.781l-14.622,9.198l-6.357,1.673
			l-3.034,1.591l-0.857,6.333l-1.387,6.466l-0.353,3.255v3.936l0.661,2.49l4.638-5.945l6.688-7.492l6.007-7.311l5.604-3.697
			l3.011-3.9l0.786-3.378L530.973,186.781z"/>
	</g>
	<g id="Layer_2" transform="matrix(1.1437147,0,0,1.1437147,-22.118277,-22.740525)">
		<path id="ellipse84" inkscape:connector-curvature="0" fill="#0071BC" d="M519.692,147.734c-0.432,4.275-2.944,7.523-5.61,7.253
			l0,0c-2.667-0.27-4.478-3.954-4.045-8.229l0,0c0.432-4.276,2.944-7.523,5.61-7.253l0,0
			C518.313,139.774,520.125,143.458,519.692,147.734L519.692,147.734z"/>
		<path id="ellipse86" inkscape:connector-curvature="0" d="M516.826,148.955c-0.237,2.342-1.372,4.146-2.534,4.028l0,0
			c-1.163-0.117-1.913-2.112-1.676-4.454l0,0c0.237-2.342,1.372-4.146,2.534-4.028l0,0
			C516.312,144.618,517.063,146.612,516.826,148.955L516.826,148.955z"/>
		<path id="ellipse88" inkscape:connector-curvature="0" fill="#FFFFFF" d="M515.462,145.84c-0.159,1.56-0.913,2.761-1.687,2.683
			c-0.774-0.078-1.275-1.406-1.117-2.966c0.157-1.56,0.912-2.761,1.686-2.683C515.119,142.952,515.619,144.28,515.462,145.84z"/>
		<path id="ellipse90" inkscape:connector-curvature="0" fill="#FFFFFF" d="M517.904,147.667c-0.087,0.863-0.505,1.527-0.934,1.484
			l0,0c-0.428-0.043-0.705-0.778-0.618-1.64l0,0c0.087-0.863,0.505-1.527,0.932-1.484l0,0
			C517.715,146.07,517.991,146.805,517.904,147.667L517.904,147.667z"/>
		<g id="g96">
			<g id="g94">
				<path id="path92" inkscape:connector-curvature="0" d="M508.421,161.553c-5.364-8.657-4.332-20.456,4.95-25.787
					c7.808-4.483,7.229,9.398,6.325,13.395c-0.346,1.528,1.185,5.46,1.882,2.395c1.284-5.644,2.079-25.943-8.881-20.425
					c-9.71,4.889-12.781,24.21-4.433,31.417C508.542,162.789,508.52,161.712,508.421,161.553L508.421,161.553z"/>
			</g>
		</g>
		<g id="g102">
			<g id="g100">
				<path id="path98" inkscape:connector-curvature="0" d="M510.073,136.492c3.976-8.283,9.153-14.758,17.437-19.011
					c7.65-3.928,16.548-5.036,25.042-4.934c15.943,0.192,34.972,5.018,45.418,17.867c8.288,10.194,9.802,24.438,7.76,36.999
					c-1.927,11.854-10.022,21.294-16.765,30.785c-6.038,8.5-10.263,17.197-11.089,27.691c-0.795,10.078-0.307,21.979,5.311,30.729
					c1.05,1.637,1.689-3.233,1.004-4.377c-6.611-11.025-5.612-28.229-0.234-39.49c5.019-10.507,13.689-18.813,18.984-29.178
					c9.472-18.541,7.872-44.766-6.91-60.168c-10.74-11.191-29.815-14.91-44.648-15.063c-16.787-0.173-34.055,6.514-40.988,22.825
					c-0.527,1.24-0.867,2.521-1.219,3.819C509.028,135.514,509.481,137.725,510.073,136.492L510.073,136.492z"/>
			</g>
		</g>
		<g id="g108">
			<g id="g106">
				<path id="path104" inkscape:connector-curvature="0" d="M581.533,198.353c-9.969,6.682-22.425,5.546-33.846,7.728
					c-2.185,0.417-17.357,3.277-16.939,6.159c0.624,4.292,16.103-1.446,18.672-1.984c11.096-2.322,22.809-3.917,32.296-10.635
					C582.046,199.387,581.875,198.124,581.533,198.353L581.533,198.353z"/>
			</g>
		</g>
		<g id="g114">
			<g id="g112">
				<path id="path110" inkscape:connector-curvature="0" d="M451.206,223.928c5.002-6.404,12.33-9.782,19.759-12.639
					c8.507-3.271,17.374-5.819,26.031-8.675c9.479-3.126,19.187-5.441,28.395-9.356c4.795-2.039,9.193-4.706,13.234-7.988
					c1.007-0.818,2.729-2.284,3.254-3.572c1.038-2.546,0.399-2.342-0.754-0.532c0.065-0.103-0.023-0.482-0.099-0.352
					c-0.098,0.168-0.196,0.336-0.293,0.504c-0.034,0.058-0.021,0.427,0.071,0.341c0.771-0.722,1.297-1.802,1.784-2.733
					c0.015-0.029,0.018-0.172-0.042-0.149c-3.455,1.322-6.306,4.074-9.551,6.092c-4.385,2.728-9.146,4.752-13.979,6.534
					c-9.41,3.469-19.156,5.957-28.593,9.38c-7.88,2.859-15.935,5.128-23.641,8.465c-6.22,2.693-13.466,6.508-16.133,13.151
					C450.521,222.718,450.667,224.619,451.206,223.928L451.206,223.928z"/>
			</g>
		</g>
		<g id="g120">
			<g id="g118">
				<path id="path116" inkscape:connector-curvature="0" d="M501.093,198.929c-4.672,7.824-6.41,17.269-8.245,26.089
					c-1.492,7.167-2.814,15.225-0.573,22.368c0.122,0.39,0.511,1.393,1.112,0.987c4.778-3.226,8.542-7.544,12.235-11.919
					c4.396-5.206,9.049-10.04,13.708-15.001c2.601-2.771,5.263-5.118,8.603-6.942c2.776-1.517,5.619-2.551,8.188-4.45
					c4.481-3.311,7.136-9.354,9.575-14.188c3.12-6.184,11.313-17.858,6.449-25.07c-2.635-3.906-6.71-4.169-10.892-5.363
					c-4.701-1.343-7.239-6.408-9.879-10.086c-5.318-7.409-14.048-6.351-19.799-0.042c-3.418,3.749-5.581,8.381-9.348,11.849
					c-4.541,4.183-10.609,6.436-16.368,8.341c-9.955,3.294-21.187,5.466-28.764,13.332c-7.181,7.454-8.677,18.549-7.65,28.439
					c0.207,1.986,0.45,3.968,0.68,5.951c0.31,2.654,1.827,0.632,1.627-1.084c-1.136-9.753-1.625-19.27,4.28-27.808
					c6.076-8.789,19.139-11.393,28.623-14.323c8.205-2.535,16.296-5.919,21.712-12.869c5.028-6.451,11.209-17.952,21.156-11.77
					c5.997,3.727,6.949,12.389,14.74,14.11c2.358,0.521,4.605,0.976,6.727,2.184c4.116,2.343,2.129,7.207,0.494,10.483
					c-2.648,5.306-5.007,10.744-7.94,15.905c-2.818,4.956-6.188,8.549-11.396,10.972c-5.247,2.442-9.052,5.689-12.989,9.865
					c-3.923,4.162-7.887,8.141-11.57,12.536c-3.882,4.63-7.798,9.268-12.819,12.705c0.371,0.329,0.742,0.658,1.112,0.987
					c-2.064-6.495-0.228-14.089,1.163-20.564c1.75-8.154,4.113-16.005,6.662-23.938
					C501.816,200.282,501.574,198.124,501.093,198.929z"/>
			</g>
		</g>
		<g id="g126">
			<g id="g124">
				<path id="path122" inkscape:connector-curvature="0" d="M536.838,178.628c3.244-0.432,7.684,1.046,7.457,4.974
					c-0.03,0.522-0.041,1.488,0.496,1.808c0.534,0.319,0.741-0.764,0.769-1.052c0.521-5.188-3.832-9.368-8.82-6.907
					C536.469,177.584,536.486,178.675,536.838,178.628L536.838,178.628z"/>
			</g>
		</g>
		<g id="g132">
			<g id="g130">
				<path id="path128" inkscape:connector-curvature="0" d="M508.144,197.628c-5.829,1.326-7.606,9.964-8.824,14.836
					c-0.979,3.916-1.617,7.914-2.23,11.899c-0.32,2.083-0.611,4.171-0.915,6.257c-0.167,1.151-0.062,3.806-0.846,4.702
					c-0.746,0.853-0.126,4.695,0.969,3.443c1.419-1.621,2.315-4.493,3.345-6.351c1.322-2.385,2.816-4.671,4.343-6.929
					c3.381-4.999,7.33-9.599,11.405-14.039c6.458-7.04,15.812-12.378,18.35-22.148c0.288-1.109-0.715-3.986-1.38-1.756
					c-2.718,9.103-12.822,15.082-19.037,21.854c-3.703,4.036-7.123,8.312-10.264,12.796c-1.565,2.234-2.978,4.569-4.343,6.929
					c-1.13,1.954-1.912,4.514-3.388,6.201c-0.746,0.853-0.126,4.695,0.969,3.443c1.256-1.435,1.178-4.368,1.454-6.186
					c0.629-4.146,1.196-8.297,1.914-12.429c1.18-6.792,2.571-16.31,8.637-20.627C508.665,199.267,508.722,197.497,508.144,197.628z"
					/>
			</g>
		</g>
		<g id="g138">
			<g id="g136">
				<path id="path134" inkscape:connector-curvature="0" d="M508.805,198.241c-5.058,6.014-5.971,16.688-5.037,24.179
					c0.279,2.244,1.483,0.497,1.359-0.906c-0.663-7.511,0.947-15.2,4.144-21.995C509.403,199.236,509.27,197.688,508.805,198.241z"
					/>
			</g>
		</g>
		<g id="g144">
			<g id="g142">
				<path id="path140" inkscape:connector-curvature="0" d="M502.641,236.884c5.779-10.392,13.735-18.769,21.891-27.326
					c4.003-4.2,7.836-8.593,11.138-13.372c3.196-4.623,4.406-9.415,5.964-14.66c0.085-0.288-0.193-0.72-0.263-0.242
					c-1.628,11.338-12.049,22.48-19.946,30.064c-7.341,7.049-15.148,15.611-18.909,25.193
					C502.484,236.623,502.554,237.039,502.641,236.884z"/>
			</g>
		</g>
		<g id="g150">
			<g id="g148">
				<path id="path146" inkscape:connector-curvature="0" d="M547.548,168.639c3.415-1.06,6.522-2.733,10.047-3.581
					c4.662-1.121,8.059-0.311,12.435,1.141c0.393,0.13,0.298-0.822,0.159-0.995c-4.648-5.741-18.449-1.555-22.708,2.972
					C547.422,168.24,547.41,168.681,547.548,168.639z"/>
			</g>
		</g>
		<g id="g156">
			<g id="g154">
				<path id="path152" inkscape:connector-curvature="0" d="M551.358,165.101c-4.199-5.563-9.279-10.52-7.671-18.291
					c1.467-7.087,5.932-13.437,13.357-14.513c5.758-0.835,10.913,3.109,13.574,7.851c4.254,7.573-0.564,15.375-3.806,22.244
					c-0.268,0.567,0.219,3.317,0.84,2.304c4.465-7.294,7.532-14.465,5.652-23.093c-1.793-8.234-9.343-14.128-17.755-12.909
					c-8.863,1.285-13.041,12.053-13.833,19.812c-0.533,5.215,3.144,17.628,9.521,17.91
					C551.695,166.435,551.509,165.301,551.358,165.101z"/>
			</g>
		</g>
		<g id="g162">
			<g id="g160">
				<path id="path158" inkscape:connector-curvature="0" d="M513.845,129.609c1.053-1.192,1.967-2.378,3.23-3.378
					c1.232-0.976,2.859-1.101,4.34-1.467c1.415-0.35,2.868-0.558,4.298-0.835c1.696-0.33,1.958-0.535,2.645-2.071
					c0.224-0.502,0.237-1.47-0.154-1.906c-0.191-0.212-0.382-0.424-0.572-0.637c-0.253-0.281-0.415-0.333-0.763-0.208
					c-5.176,1.862-10.779,4.304-13.39,9.5C513.366,128.831,513.471,130.033,513.845,129.609z"/>
			</g>
		</g>
		<g id="g168">
			<g id="g166">
				<path id="path164" inkscape:connector-curvature="0" d="M572.314,130.995c-3.021-4.449-5.06-7.925-9.794-10.674
					c-4.489-2.606-8.347-3.327-13.592-2.882c-1.635,0.138-1.417,5.271,0.128,5.154c4.271-0.32,9.062-0.207,13.112,1.419
					c4.075,1.637,6.615,5.093,10.061,7.521C572.401,131.654,572.371,131.079,572.314,130.995z"/>
			</g>
		</g>
		<path id="ellipse170" inkscape:connector-curvature="0" fill="#0071BC" d="M568.177,150.621
			c0.365,5.484-3.201,10.187-7.964,10.503l0,0c-4.763,0.317-8.919-3.873-9.284-9.357l0,0c-0.363-5.484,3.202-10.187,7.964-10.503
			l0,0C563.657,140.947,567.813,145.136,568.177,150.621L568.177,150.621z"/>
		<path id="ellipse172" inkscape:connector-curvature="0" d="M563.446,152.883c0.198,3.005-1.323,5.553-3.398,5.691l0,0
			c-2.076,0.138-3.922-2.186-4.121-5.191l0,0c-0.2-3.005,1.321-5.553,3.398-5.691l0,0
			C561.401,147.553,563.246,149.878,563.446,152.883L563.446,152.883z"/>
		<path id="ellipse174" inkscape:connector-curvature="0" fill="#FFFFFF" d="M560.15,149.356c0.133,2.001-0.88,3.698-2.263,3.79l0,0
			c-1.383,0.092-2.612-1.455-2.745-3.456l0,0c-0.133-2.001,0.88-3.697,2.263-3.79l0,0
			C558.787,145.808,560.016,147.355,560.15,149.356L560.15,149.356z"/>
		<path id="ellipse176" inkscape:connector-curvature="0" fill="#FFFFFF" d="M565.007,151.02c0.074,1.106-0.487,2.045-1.252,2.095
			c-0.764,0.051-1.444-0.805-1.518-1.912c-0.073-1.106,0.487-2.045,1.252-2.095C564.255,149.057,564.934,149.913,565.007,151.02z"/>
		<g id="g182">
			<g id="g180">
				<path id="path178" inkscape:connector-curvature="0" d="M542.462,210.592c0.182,10.715-6.104,20.34-9.757,30.081
					c-3.853,10.272-6.829,21.209-8.179,32.096c-2.576,20.761,4.726,42.759,16.965,59.456c5.428,7.405,12.628,13.269,20.118,18.464
					c3.763,2.61,7.673,4.871,11.159,7.854c2.761,2.363,6.013,5.548,9.685,6.362c4.2,0.933,6.84,3.812,10.752,5.677
					c3.872,1.846,8.369,2.632,12.536,3.495c5.393,1.118,10.64,2.286,15.889,3.998c4.37,1.424,9.231,3.253,13.642,1.313
					c0.41-0.18,0.406-1.646-0.046-1.779c-4.904-1.437-9.96-1.854-14.895-3.445c-3.902-1.258-7.828-2.274-11.831-3.154
					c-4.642-1.02-9.219-2.054-13.629-3.863c-1.732-0.711-3.354-1.598-4.94-2.583c-1.034-0.641-3.731-3.851-4.56-3.742
					c-3.999,0.524-7.34-2.355-10.229-4.748c-3.069-2.541-5.966-4.932-9.291-7.149c-8.328-5.556-16.154-11.783-22.47-19.602
					c-14.764-18.278-20.095-42.873-15.104-65.57c2.27-10.321,5.666-20.357,9.803-30.062c3.161-7.413,6.332-15.276,5.514-23.481
					C543.442,208.668,542.442,209.435,542.462,210.592L542.462,210.592z"/>
			</g>
		</g>
		<g id="g188">
			<g id="g186">
				<path id="path184" inkscape:connector-curvature="0" d="M621.084,363.743c-0.323,0.004-0.635-0.044-0.924,0.109
					c-0.059,0.031-0.059,0.229,0.007,0.255c0.304,0.115,0.605,0.024,0.925-0.013C621.202,364.082,621.191,363.742,621.084,363.743z"
					/>
			</g>
		</g>
		<g id="g194">
			<g id="g192">
				<path id="path190" inkscape:connector-curvature="0" d="M620.732,363.75c-1.216,1.941,0.986,4.528,2.138,5.888
					c3.842,4.534,8.905,8.606,13.729,12.032c5.833,4.142,12.358,6.671,19.514,5.132c4.636-0.998,10.777-0.531,14.76-3.115
					c0.523-0.34,0.39-1.28,0.271-1.782c-0.059-0.246-0.195-0.54-0.47-0.587c-6.538-1.115-12.876,1.822-19.325,2.05
					c-4.852,0.172-9.679-2.506-13.712-4.956c-3.086-1.874-6.176-3.761-9.149-5.81c-1.909-1.317-8.018-5.684-7.609-8.608
					C620.886,363.946,620.825,363.602,620.732,363.75L620.732,363.75z"/>
			</g>
		</g>
		<g id="g200">
			<g id="g198">
				<path id="path196" inkscape:connector-curvature="0" d="M578.304,362.74c4.01,7.605,9.741,15.367,18.109,18.357
					c5.9,2.107,18.455,2.28,20.664-5.128c0.077-0.261,0.108-1.575-0.418-1.512c-1.295,0.159-1.886,0.959-2.964,1.698
					c-1.783,1.224-4.08,1.605-6.169,1.948c-4.011,0.66-8.188,0.157-11.988-1.211c-7.743-2.789-11.709-10.101-16.635-16.078
					C578.235,360.009,578.085,362.324,578.304,362.74L578.304,362.74z"/>
			</g>
		</g>
		<g id="g206">
			<g id="g204">
				<path id="path202" inkscape:connector-curvature="0" d="M635.108,366.547c-3.089,0.374-8.387-6-10.396-7.782
					c-5.141-4.557-10.07-9.35-15.079-14.047c-13.321-12.49-26.519-23.897-33.539-41.349c-4.504-11.196-7.604-23.732-1.372-34.895
					c4.845-8.677,13.596-13.769,23.46-13.337c9.726,0.426,18.947,6.663,26.854,11.796c4.605,2.991,8.803,6.501,12.536,10.528
					c2.662,2.871,7.4,5.814,2.26,9.209c-1.034,0.683-0.661,4.769,0.594,4.083c18.757-10.26-23.811-33.984-30.89-37.144
					c-9.457-4.22-19.919-4.043-28.319,2.299c-8.954,6.761-12.507,17.983-11.959,28.786c1.215,23.96,17.794,44.596,35.376,59.297
					c5.72,4.782,10.945,10.192,16.458,15.211c2.948,2.684,5.941,5.297,9.149,7.667c1.163,0.859,3.31,2.764,4.936,2.369
					C636.007,369.04,635.906,366.451,635.108,366.547L635.108,366.547z"/>
			</g>
		</g>
		<g id="g212">
			<g id="g210">
				<path id="path208" inkscape:connector-curvature="0" d="M639.998,288.176c-0.082,0.182-0.117,0.341-0.118,0.541
					c-0.001,0.139,0.046,0.567,0.262,0.563c0.265-0.007,0.244-0.571,0.222-0.725c-0.025-0.174-0.084-0.298-0.188-0.436
					C640.106,288.029,640.031,288.1,639.998,288.176L639.998,288.176z"/>
			</g>
		</g>
		<g id="g218">
			<g id="g216">
				<path id="path214" inkscape:connector-curvature="0" d="M633.467,286.626c4.558,2.488,8.632,6.792,4.498,11.734
					c-0.688,0.823-0.236,4.685,0.969,3.443c2.767-2.849,3.238-7.022,2.108-10.709c-0.948-3.094-4.098-6.349-7.518-6.141
					C632.986,284.989,633.094,286.423,633.467,286.626L633.467,286.626z"/>
			</g>
		</g>
		<g id="g224">
			<g id="g222">
				<path id="path220" inkscape:connector-curvature="0" d="M631.801,297.846c1.519,1.853,4.15,2.528,5.868,4.406
					c2.95,3.228,2.841,6.867-0.028,9.988c-0.772,0.84-0.015,4.768,0.826,3.943c3.315-3.254,4.25-7.871,2.75-12.258
					c-0.901-2.641-6.196-9.334-9.392-6.856C631.635,297.217,631.66,297.674,631.801,297.846L631.801,297.846z"/>
			</g>
		</g>
		<g id="g230">
			<g id="g228">
				<path id="path226" inkscape:connector-curvature="0" d="M629.334,314.493c2.869,0.008,5.323,0.442,7.623,2.258
					c2.56,2.021,3.661,4.88,2.2,7.858c-0.537,1.096,0.352,5.249,1.441,3.094c1.894-3.745,1.609-8.167-0.592-11.703
					c-2.192-3.523-7.198-4.98-10.792-2.915C628.903,313.266,628.885,314.492,629.334,314.493L629.334,314.493z"/>
			</g>
		</g>
		<g id="g236">
			<g id="g234">
				<path id="path232" inkscape:connector-curvature="0" d="M631.174,328.484c2.064-0.257,4.167-0.776,6.25-0.454
					c2.53,0.392,3.761,3.194,3.827,5.458c0.107,3.708-2.734,7.72-6.732,6.082c-0.285-0.115-0.409-0.009-0.603,0.198
					c-0.165,0.154-0.329,0.308-0.494,0.462c0.659-1.728-1.324-1.305-0.406,0.133c1.159,1.815,0.532,3.01,2.948,3.502
					c1.347,0.273,2.51,0.027,3.648-0.735c2.426-1.624,3.193-5.33,3.44-8.002c0.272-2.937-0.166-7.04-2.58-9.082
					c-2.842-2.402-6.709-1.054-9.436,0.803C630.714,327.066,630.648,328.55,631.174,328.484z"/>
			</g>
		</g>
		<g id="g242">
			<g id="g240">
				<path id="path238" inkscape:connector-curvature="0" d="M640.284,341.445c1.126,1.367,2.57,2.074,3.096,3.897
					c0.361,1.256-0.838,2.885-1.547,3.786c-0.947,1.206-2.468,2.283-3.986,2.568c-0.862,0.162-1.972,0.132-2.802-0.137
					c-0.847-0.274-1.256-0.791-2.102-0.38c-0.491,0.239-0.317,1.349-0.155,1.718c1.115,2.537,3.969,2.634,6.346,2.521
					c2.312-0.11,4.169-2.741,5.086-4.554c1.102-2.18,1.348-4.967,0.791-7.325c-0.419-1.772-2.247-4.982-4.521-4.313
					C639.766,339.443,639.907,340.987,640.284,341.445z"/>
			</g>
		</g>
		<g id="g248">
			<g id="g246">
				<path id="path244" inkscape:connector-curvature="0" d="M639.921,354.629c1.525,2.146,1.82,4.433,0.861,6.872
					c-0.906,2.308-3.102,3.677-5.501,2.726c-0.342-0.135-0.486-0.014-0.721,0.235c-0.1,0.107-0.199,0.212-0.299,0.32
					c-0.521,0.55-0.302,1.732-0.076,2.349c0.715,1.949,2.719,2.182,4.523,1.551c1.865-0.652,3.027-2.832,3.688-4.543
					c1.321-3.419,1.629-9.767-2.104-11.849C639.453,351.821,639.662,354.264,639.921,354.629z"/>
			</g>
		</g>
		<g id="g254">
			<g id="g252">
				<path id="path250" inkscape:connector-curvature="0" d="M637.851,367.448c4.22,3.974,11.518,11.177,17.914,8.55
					c6.466-2.654,2.632-11.979-0.345-15.571c-0.402-0.484-0.439,0.895-0.346,1.112c0.971,2.224,2.235,4.23,2.949,6.582
					c1.659,5.465-5.722,4.985-8.143,4.176c-4.28-1.432-7.488-5.093-11.797-6.328C637.526,365.809,637.584,367.196,637.851,367.448
					L637.851,367.448z"/>
			</g>
		</g>
		<g id="g260">
			<g id="g258">
				<path id="path256" inkscape:connector-curvature="0" d="M648.082,359.601c2.06,3.46,7.106,3.084,9.54,0.307
					c1.284-1.471,1.737-3.615,1.81-5.507c0.05-1.342,0.098-5.233-1.467-5.799c-0.494-0.179-0.552,0.73-0.55,1.017
					c0.011,1.518,0.657,2.897,0.716,4.414c0.063,1.593-0.772,3.127-1.909,4.18c-1.016,0.941-2.36,1.308-3.711,1.354
					c-1.446,0.05-3.004-0.909-4.345-0.491C647.994,359.126,648.01,359.479,648.082,359.601L648.082,359.601z"/>
			</g>
		</g>
		<g id="g266">
			<g id="g264">
				<path id="path262" inkscape:connector-curvature="0" d="M648.538,348.637c2.446,1.597,8.479,4.176,10.297,0.508
					c2.636-5.323,0.353-11.965-2.847-16.472c-0.807-1.137-1.303,2.305-0.717,3.131c1.466,2.065,2.711,4.099,3.202,6.622
					c0.379,1.95,0.091,4.995-2.208,5.575c-2.558,0.643-5.11-1.512-7.666-1.093C648.028,347.002,648.157,348.389,648.538,348.637z"/>
			</g>
		</g>
		<g id="g272">
			<g id="g270">
				<path id="path268" inkscape:connector-curvature="0" d="M646.482,334.582c3.271,0.904,7.68,2.686,9.753-0.983
					c2.369-4.192,0.741-9.755-1.717-13.534c-0.783-1.205-1.076,2.145-0.84,2.713c1.135,2.722,4.213,8.239-0.246,9.684
					c-2.302,0.746-4.73-0.589-7.106,0.254C645.793,332.903,645.975,334.441,646.482,334.582z"/>
			</g>
		</g>
		<g id="g278">
			<g id="g276">
				<path id="path274" inkscape:connector-curvature="0" d="M646.958,320.542c6.951,4.986,9.345-2.804,8.593-8.54
					c-0.472-3.604-1.945-7.167-4.121-10.067c-0.92-1.227-2.143-2.249-3.497-2.954c-1.741-0.908-2.213,1.022-3.092,0.818
					c-0.28-0.065-0.257,1.015,0.023,0.938c0.294-0.082,1.426,1.363,1.785,1.566c0.928,0.523,1.819,0.883,2.667,1.56
					c2.183,1.741,3.519,4.596,4.325,7.196c0.651,2.098,1.115,4.809-0.159,6.762c-1.377,2.111-4.496,1.232-6.458,0.793
					C646.435,318.48,646.606,320.29,646.958,320.542L646.958,320.542z"/>
			</g>
		</g>
		<g id="g284">
			<g id="g282">
				<path id="path280" inkscape:connector-curvature="0" d="M641.712,278.928c0.692,0.83,1.308,0.768,2.276,1.271
					c1.311,0.681,2.283,1.989,3.151,3.141c2.219,2.941,3.626,6.674,4.554,10.201c0.484,1.838,0.84,4.028,0.216,5.871
					c-0.321,0.948-1.029,1.303-1.185,2.337c-0.415,2.81,1.968,1.717,2.638-0.294c1.694-5.08-0.402-11.267-2.454-15.91
					c-0.816-1.845-6.536-11.499-9.229-7.958C641.438,277.904,641.457,278.623,641.712,278.928z"/>
			</g>
		</g>
		<g id="g290">
			<g id="g288">
				<path id="path286" inkscape:connector-curvature="0" d="M649.296,285.573c1.536,8.601,13.199,12.257,13.386,21.08
					c0.011,0.506,0.105,1.602,0.67,1.861c7.021,3.228,9.3,8.727,9.028,16.144c-0.136,3.682,1.989,0.565,2.154-1.522
					c0.616-7.797-3.73-15.211-10.824-18.387c0.224,0.619,0.446,1.241,0.67,1.861c-0.257-9.921-10.092-14.01-14.496-21.865
					C649.47,284.007,649.236,285.247,649.296,285.573L649.296,285.573z"/>
			</g>
		</g>
		<g id="g296">
			<g id="g294">
				<path id="path292" inkscape:connector-curvature="0" d="M656.585,318.545c7.271,5.201,30.131,10.407,26.44,22.742
					c-0.267,0.898,0.689,4.411,1.451,2.424c6.594-17.155-17.026-21.443-27.737-26.78
					C656.219,316.672,656.212,318.279,656.585,318.545L656.585,318.545z"/>
			</g>
		</g>
		<g id="g302">
			<g id="g300">
				<path id="path298" inkscape:connector-curvature="0" d="M661.448,332.219c9.749,5.084,20.608,8.275,28.153,16.766
					c2.55,2.868,6.282,6.739,5.359,10.754c-0.471,2.052,1.331,4.035,2.032,1.336c1.676-6.453-3.603-12.452-7.611-16.857
					c-6.875-7.554-18.156-11.483-27.877-13.641C661.047,330.475,661.078,332.025,661.448,332.219z"/>
			</g>
		</g>
		<g id="g308">
			<g id="g306">
				<path id="path304" inkscape:connector-curvature="0" d="M660.79,339.878c4.961,3.25,10.19,5.882,14.93,9.495
					c3.488,2.663,6.689,5.706,10.133,8.432c2.84,2.248,5.977,4.08,8.921,6.184c1.884,1.347,10.116,6.986,8.769,10.024
					c-0.457,1.03,0.446,4.854,1.327,2.847c3.548-8.072-7.118-15.214-12.772-18.734c-10.195-6.347-19.421-16.083-31.271-19.283
					C660.531,338.762,660.582,339.742,660.79,339.878L660.79,339.878z"/>
			</g>
		</g>
		<g id="g314">
			<g id="g312">
				<path id="path310" inkscape:connector-curvature="0" d="M662.279,356.781c9.423,1.193,16.909,5.91,24.631,11.179
					c8.077,5.512,17.242,9.555,23.314,17.479c2.278,2.974,3.376,3.597-0.422,4.175c-2.726,0.414-5.343,0.563-8.091,0.324
					c-5.988-0.52-12.402-2.808-18.106-4.556c-5.302-1.625-10.415-3.663-15.313-6.258c-4.13-2.188-10.323-6.33-15.069-5.447
					c-0.743,0.139-0.47,1.75-0.072,2.104c2.841,2.525,6.797,3.542,10.249,5.126c2.926,1.343,5.7,2.981,8.623,4.32
					c6.318,2.893,13.065,4.825,19.773,6.576c4.089,1.067,25.034,6.767,22.643-3.35c-2.545-10.77-14.144-15.867-22.604-21.073
					c-5.102-3.141-10.195-6.266-15.64-8.788c-4.089-1.895-9.405-4.053-13.94-2.75C661.977,355.924,661.974,356.742,662.279,356.781
					L662.279,356.781z"/>
			</g>
		</g>
		<g id="g320">
			<g id="g318">
				<path id="path316" inkscape:connector-curvature="0" d="M706.308,393.786c6.845,5.243,15.569,9.379,23.914,11.551
					c5.5,1.431,12.602,3.313,18.333,2.369c3.39-0.559,4.793-4.462,3.755-7.507c-1.843-5.407-7.518-8.67-12.402-11.017
					c-1.127-0.542-1.395,3.18-0.352,3.682c2.194,1.054,12.994,6.51,11.066,9.862c-1.594,2.769-8.336,1.124-10.712,0.729
					c-5.514-0.918-10.836-2.074-16.118-3.965c-5.919-2.117-11.403-5.362-17.322-7.404
					C705.837,391.868,705.95,393.512,706.308,393.786L706.308,393.786z"/>
			</g>
		</g>
		<g id="g326">
			<g id="g324">
				<path id="path322" inkscape:connector-curvature="0" d="M713.211,388.393c3.862,2.275,8.423,3.299,12.784,4.191
					c3.093,0.633,8.052,1.996,11.103,0.589c3.37-1.556,1.977-5.667,0.497-8.115c-8.649-14.318-28.206-15.879-41.034-24.603
					c-0.761-0.519-1.089,2.452-0.287,3.002c10.883,7.469,24.538,9.553,34.651,18.318c1.73,1.5,3.33,3.138,4.835,4.861
					c2.507,2.873,1.401,3.521-2.115,3.604c-6.971,0.166-13.667-2.639-20.356-4.066C712.644,386.036,712.746,388.118,713.211,388.393
					L713.211,388.393z"/>
			</g>
		</g>
		<g id="g332">
			<g id="g330">
				<path id="path328" inkscape:connector-curvature="0" d="M595.082,379.262c-1.862,14.205-1.325,34.001-16.235,41.274
					c-6.009,2.932-13.122,3.211-19.674,3.631c-6.937,0.444-11.84,1.182-17.157,6.015c-0.45,0.409-0.737,2.841,0.231,2.764
					c1.858-0.454,2.572,0.793,2.142,3.741c-0.478,0.616-0.568,2.771,0.426,2.976c5.211,1.08,10.154-1.947,14.543-4.363
					c6.186-3.405,13.1-6.253,19.991-7.701c0.478-0.102,0.294-1.477-0.108-1.293c-5.74,2.608-12.137,2.428-17.901,4.945
					c-5.132,2.241-10.757,6.268-16.603,5.209c0.141,0.993,0.285,1.985,0.426,2.976c2.134-2.921,1.925-9.754-2.984-9.31
					c0.077,0.92,0.154,1.842,0.232,2.763c3.263-3.019,6.507-5.097,11.025-5.617c3.592-0.414,7.223-0.522,10.827-0.837
					c6.57-0.576,13.5-1.56,19.178-5.136c5.507-3.467,7.932-10.918,9.577-16.809c2.228-7.978,3.033-16.646,3.232-24.902
					C596.276,378.368,595.281,377.751,595.082,379.262L595.082,379.262z"/>
			</g>
		</g>
		<g id="g338">
			<g id="g336">
				<path id="path334" inkscape:connector-curvature="0" d="M570.41,429.7c-7.141,1.553-19.23,5.351-17.989,14.634
					c0.049,0.367,0.209,1.107,0.691,1.141c2.172,0.146,5.621-0.011,5.909,3.023c0.032,0.333,0.25,1.296,0.758,1.25
					c4.393-0.393,7.915-3.776,11.02-6.623c1.535-1.407,3.807-2.758,5.011-4.461c1.895-2.677,3.689-5.444,5.602-8.134
					c0.026-0.038,0.004-0.208-0.043-0.15c-1.552,1.928-3.265,5.388-5.888,5.979c-1.387,0.313-3.021,1.997-4.104,2.866
					c-3.384,2.716-7.173,6.573-11.682,7.066c0.253,0.417,0.506,0.834,0.758,1.25c-0.46-4.431-3.346-5.196-7.418-5.219
					c0.228,0.38,0.459,0.76,0.689,1.141c-1.163-7.188,12.023-10.601,16.779-12.643C570.778,430.703,570.719,429.633,570.41,429.7
					L570.41,429.7z"/>
			</g>
		</g>
		<g id="g344">
			<g id="g342">
				<path id="path340" inkscape:connector-curvature="0" d="M577.106,435.667c-4.433,3.812-8.228,10.331-7.41,16.325
					c0.042,0.308,0.207,1.105,0.659,1.087c3.484-0.145,5.812,1.932,9.029,2.642c2.632,0.58,4.717-2.816,5.665-4.662
					c4.008-7.795,4.925-16.225,12.903-21.22c2.005-1.254,4.794-2.952,5.295-5.523c1.063-5.451-3.392-8.115-2.358-14.039
					c0.884-5.065,3.488-9.97,4.932-14.925c1.33-4.558,1.646-9.653,1.254-14.36c-0.039-0.464-0.504-1.326-0.702-0.412
					c-0.932,4.295-0.967,8.694-1.95,12.992c-1.063,4.636-3.202,8.979-4.555,13.531c-0.822,2.771-1.163,6.107-0.477,8.946
					c0.416,1.719,0.98,3.184,1.793,4.77c1.632,3.185-2.756,5.223-4.617,6.407c-5.641,3.593-7.703,9.577-9.894,15.56
					c-1.233,3.369-3.002,9.584-7.369,9.697c-3.241,0.083-5.397-2.895-9.023-2.407c0.22,0.362,0.439,0.725,0.659,1.087
					c-0.924-5.141,3.919-9.979,6.5-13.896C577.627,436.984,577.556,435.281,577.106,435.667L577.106,435.667z"/>
			</g>
		</g>
		<g id="g350">
			<g id="g348">
				<path id="path346" inkscape:connector-curvature="0" d="M638.002,381.982c-0.333,8.34-0.569,16.617-1.48,24.923
					c-0.808,7.359-0.488,18.24-7.148,22.922c-4.71,3.312-11.331,3.236-16.736,4.623c-5.341,1.371-10.687,4.593-14.235,8.805
					c-0.461,0.547-0.502,2.546,0.391,2.728c0.828,1.396,1.656,2.793,2.484,4.191c-0.109,0.497-0.157,2.841,0.88,2.424
					c4.644-1.87,9.674-2.78,14.472-4.184c1.87-0.546,3.735-1.189,5.397-2.211c2.193-1.345,2.739-3.458,4.549-5.044
					c0.52-0.456-0.138-1.771-0.341-0.938c-0.938,3.854-10.107,5.446-13.153,6.166c-3.81,0.898-7.787,1.415-11.388,3.011
					c0.293,0.808,0.587,1.616,0.88,2.424c0.669-3.462,0.23-7.984-3.853-8.775c0.13,0.909,0.261,1.818,0.391,2.727
					c5.325-6.397,12.301-7.445,19.969-8.814c5.489-0.98,11.027-2.332,14.436-7.102c4.021-5.623,3.799-15.487,4.506-22.055
					c0.911-8.476,1.749-17.334,0.831-25.841C638.756,381.079,638.036,381.083,638.002,381.982L638.002,381.982z"/>
			</g>
		</g>
		<g id="g356">
			<g id="g354">
				<path id="path352" inkscape:connector-curvature="0" d="M619.391,444.871c-5.689,2.945-10.141,7.929-12.232,14.013
					c-0.27,0.785-0.372,2.198,0.389,2.771c1.02,0.767,4.817,0.479,4.771,2.006c-0.014,0.461,0.15,1.794,0.839,1.799
					c4.578,0.028,7.787-5.372,10.135-8.613c1.521-2.099,3.012-3.898,4.808-5.776c2.107-2.203,3.688-7.334,6.72-8.308
					c0.668-0.215,0.016-1.898-0.267-0.964c-1.028,3.406-4.663,4.373-7.021,6.562c-1.328,1.232-2.52,2.523-3.636,3.948
					c-2.586,3.302-6.096,9.514-10.83,9.514c0.279,0.601,0.56,1.199,0.839,1.799c0.042-1.563-0.025-2.919-1.034-4.169
					c-1.102-1.363-3.613-0.152-5.019-1.015c0.165,0.811,0.329,1.621,0.493,2.432c1.736-5.938,6.35-10.572,11.335-14
					C620.168,446.535,620.027,444.541,619.391,444.871L619.391,444.871z"/>
			</g>
		</g>
		<g id="g362">
			<g id="g360">
				<path id="path358" inkscape:connector-curvature="0" d="M630.194,446.492c-1.641,6.818-8.197,13.511-5.936,20.874
					c0.063,0.209,0.291,0.896,0.646,0.808c3.328-0.823,6.51,1.959,9.542,0.578c2.267-1.032,2.948-5.187,3.489-7.274
					c1.141-4.407,2.2-8.813,3.263-13.241c1.349-5.615,5.396-9.833,6.769-15.451c0.899-3.686,0.418-7.654,0.048-11.37
					c-0.66-6.638-0.676-13.127-0.201-19.779c0.375-5.249,3.232-12.39,1.131-17.474c-0.777-1.88-1.513,1.785-1.117,2.742
					c0.856,2.075-0.823,7.094-1.147,9.283c-0.582,3.935-0.826,7.923-0.917,11.896c-0.123,5.367,0.281,10.609,0.833,15.939
					c0.384,3.697,0.151,7.134-1.289,10.597c-1.037,2.495-2.843,4.651-3.979,7.124c-1.988,4.326-2.318,9.353-3.474,13.929
					c-0.941,3.728-1.687,11.501-7.004,9.653c-1.658-0.575-2.869-0.95-4.649-0.859c-1.996,0.102,1.16-6.901,1.504-7.658
					c1.398-3.08,3.032-6.175,3.267-9.603C631.009,446.666,630.47,445.346,630.194,446.492L630.194,446.492z"/>
			</g>
		</g>
		<g id="g368">
			<g id="g366">
				<path id="path364" inkscape:connector-curvature="0" d="M604.182,449.763c1.115,0.864,1.971,1.827,2.738,3.01
					c0.685,1.054,1.164,2.427,2.039,3.336c0.746,0.775,0.756-1.501,0.582-1.878c-0.562-1.216-1.404-2.373-2.158-3.479
					c-0.744-1.091-1.719-2.378-3.031-2.774C603.67,447.772,603.808,449.473,604.182,449.763z"/>
			</g>
		</g>
		<g id="g374">
			<g id="g372">
				<path id="path370" inkscape:connector-curvature="0" d="M616.984,462.826c1.301-0.119,2.503,0.163,3.779,0.397
					c1.351,0.248,2.296,1.093,3.525,1.533c0.715,0.255,0.516-1.495,0.286-1.802c-0.698-0.935-1.848-1.493-2.977-1.749
					c-1.671-0.376-3.006-0.067-4.647,0.302C616.545,461.6,616.587,462.862,616.984,462.826L616.984,462.826z"/>
			</g>
		</g>
		<g id="g380">
			<g id="g378">
				<path id="path376" inkscape:connector-curvature="0" d="M599.325,443.511c-3.673,1.078-5.276,6.969-6.312,10.139
					c-0.085,0.26-0.202,1.873,0.438,1.564c2.83-1.361,5.629-2.781,8.564-3.907c0.514-0.197,0.357-2.07-0.267-1.83
					c-2.936,1.133-5.732,2.559-8.562,3.928c0.146,0.52,0.293,1.043,0.437,1.563c1.281-3.934,2.724-7.316,5.807-10.164
					C599.631,444.621,599.731,443.392,599.325,443.511z"/>
			</g>
		</g>
		<g id="g386">
			<g id="g384">
				<path id="path382" inkscape:connector-curvature="0" d="M607.382,459.368c-0.889,3.91-1.784,7.488-0.731,11.462
					c0.158,0.599,0.622,0.924,0.951,0.256c0.669-1.358,1.733-2.383,2.863-3.365c0.985-0.857,2.202-1.434,2.959-2.506
					c0.245-0.348,0.435-2.128-0.3-2.097c-1.291,0.059-2.596,1.448-3.546,2.246c-1.237,1.043-2.197,2.328-2.875,3.793
					c0.317,0.085,0.635,0.171,0.951,0.255c-0.952-3.167-0.131-6.301,0.35-9.475C608.074,459.475,607.585,458.476,607.382,459.368
					L607.382,459.368z"/>
			</g>
		</g>
		<g id="g392">
			<g id="g390">
				<path id="path388" inkscape:connector-curvature="0" d="M624.196,466.845c0.118,2.941,0.841,5.485,1.955,8.21
					c0.075,0.183,0.385,0.6,0.633,0.362c1.124-1.08,2.02-2.39,3.032-3.572c1.052-1.228,2.793-2.063,3.593-3.415
					c0.266-0.45,0.415-1.693-0.163-2.006c-2.133-1.145-5.995,4.901-7.021,6.324c0.259,0.07,0.52,0.141,0.781,0.211
					c-0.94-1.976-1.763-4.184-2.063-6.364C624.807,465.59,624.165,466.068,624.196,466.845L624.196,466.845z"/>
			</g>
		</g>
		<g id="g398">
			<g id="g396">
				<path id="path394" inkscape:connector-curvature="0" d="M542.137,431.354c-2.939,1.341-3.93,4.709-4.97,7.505
					c-0.147,0.396-0.286,2.479,0.597,2.127c1.505-0.602,3.112-0.778,4.715-0.932c1.176-0.115,2.343,0.089,2.931-1.046
					c0.202-0.391,0.161-1.146-0.121-1.493c-0.699-0.859-2.316-0.226-3.317-0.104c-1.568,0.192-3.109,0.479-4.564,1.111
					c0.199,0.709,0.398,1.418,0.598,2.128c0.445-1.263,0.863-2.53,1.413-3.754c0.704-1.565,1.854-2.832,3.036-4.052
					C542.7,432.588,542.67,431.11,542.137,431.354z"/>
			</g>
		</g>
		<g id="g404">
			<g id="g402">
				<path id="path400" inkscape:connector-curvature="0" d="M553.566,443.085c-3.66,2.304-2.384,8.145-1.54,11.594
					c0.05,0.204,0.353,0.907,0.689,0.612c1.438-1.259,3.019-2.324,4.615-3.367c1.616-1.056,3.021-1.737,3.541-3.675
					c0.064-0.242,0.058-0.693-0.174-0.856c-1.193-0.846-2.802,1.005-3.784,1.669c-1.682,1.137-3.305,2.276-4.721,3.739
					c0.276,0.157,0.553,0.314,0.83,0.472c-0.785-2.776-1.593-6.388,0.767-8.639C554.092,444.348,554.048,442.782,553.566,443.085z"
					/>
			</g>
		</g>
		<g id="g410">
			<g id="g408">
				<path id="path406" inkscape:connector-curvature="0" d="M571.157,450.436c-1.924,3.782-0.063,8.777,2.233,11.964
					c0.419,0.582,0.784-0.223,0.887-0.563c0.735-2.44,2.452-4.417,4.341-6.058c0.672-0.583,0.249-3.323-0.404-2.787
					c-2.434,1.994-4.225,4.305-5.111,7.351c0.296-0.188,0.591-0.375,0.887-0.563c-1.567-2.117-2.994-5.161-2.126-7.829
					C572.019,451.476,571.724,449.322,571.157,450.436L571.157,450.436z"/>
			</g>
		</g>
		<g id="g416">
			<g id="g414">
				<path id="path412" inkscape:connector-curvature="0" d="M548.584,439.143c0.466,0.522,1.108,0.864,1.658,1.301
					c0.808,0.643,1.463,1.338,2.097,2.146c0.218,0.278,0.463,0.07,0.568-0.183c0.189-0.462,0.169-1.077-0.037-1.528
					c-0.432-0.943-1.298-1.672-2.106-2.29c-0.479-0.368-1.387-1.142-2.03-1.034C548.203,437.644,548.329,438.856,548.584,439.143
					L548.584,439.143z"/>
			</g>
		</g>
		<g id="g422">
			<g id="g420">
				<path id="path418" inkscape:connector-curvature="0" d="M563.391,448.556c2.811,0.473,5.434,0.911,7.563,2.981
					c0.64,0.623,0.865-1.439,0.426-1.857c-2.037-1.937-5.191-3.398-8.027-2.677C562.875,447.125,562.896,448.472,563.391,448.556
					L563.391,448.556z"/>
			</g>
		</g>
		<g id="g428">
			<g id="g426">
				<path id="path424" inkscape:connector-curvature="0" d="M584.833,303.398c14.309,14.38,28.571,28.808,43.018,43.049
					c0.1,0.098,0.131-0.223,0.066-0.289c-14.235-14.439-28.656-28.696-43.029-42.998
					C584.807,303.08,584.779,303.344,584.833,303.398L584.833,303.398z"/>
			</g>
		</g>
		<g id="g434">
			<g id="g432">
				<path id="path430" inkscape:connector-curvature="0" d="M594.134,294.104c11.599,11.665,23.102,23.439,34.873,34.93
					c0.12,0.118,0.157-0.269,0.08-0.348c-11.481-11.758-23.241-23.25-34.895-34.837
					C594.105,293.763,594.076,294.045,594.134,294.104z"/>
			</g>
		</g>
		<g id="g440">
			<g id="g438">
				<path id="path436" inkscape:connector-curvature="0" d="M594.152,277.745c12.714,12.895,25.373,25.861,38.343,38.499
					c0.121,0.118,0.157-0.269,0.08-0.348c-12.609-12.934-25.538-25.564-38.401-38.245
					C594.142,277.62,594.131,277.723,594.152,277.745z"/>
			</g>
		</g>
		<g id="g446">
			<g id="g444">
				<path id="path442" inkscape:connector-curvature="0" d="M597.63,267.326c8.871,8.978,17.644,18.076,26.721,26.847
					c0.137,0.132,0.176-0.302,0.089-0.391c-8.748-9.047-17.816-17.797-26.768-26.642
					C597.608,267.076,597.588,267.283,597.63,267.326L597.63,267.326z"/>
			</g>
		</g>
		<g id="g452">
			<g id="g450">
				<path id="path448" inkscape:connector-curvature="0" d="M611.575,268.527c5.027,5.055,10.014,10.152,15.109,15.138
					c0.107,0.104,0.141-0.237,0.072-0.306c-4.98-5.09-10.071-10.074-15.122-15.095C611.545,268.175,611.515,268.467,611.575,268.527
					L611.575,268.527z"/>
			</g>
		</g>
		<g id="g458">
			<g id="g456">
				<path id="path454" inkscape:connector-curvature="0" d="M468.565,253.352c5.449,6.04,12.08,10.778,19.097,14.834
					c7.116,4.114,15.599,8.037,23.945,8.451c0.063,0.003,0.06-0.195-0.005-0.205c-16.043-2.517-31.957-11.308-43.004-23.225
					C468.551,253.157,468.534,253.317,468.565,253.352z"/>
			</g>
		</g>
		<g id="g464">
			<g id="g462">
				<path id="path460" inkscape:connector-curvature="0" d="M466.25,235.894c13.443,9.877,26.344,21.677,43.03,25.563
					c0.02,0.004,0.024-0.072-0.002-0.078c-16.673-3.883-29.568-15.755-43.017-25.599
					C466.234,235.761,466.221,235.872,466.25,235.894z"/>
			</g>
		</g>
		<g id="g470">
			<g id="g468">
				<path id="path466" inkscape:connector-curvature="0" d="M470.888,216.15c5.858,5.853,12.257,11.564,19.769,15.187
					c0.094,0.045,0.111-0.257,0.029-0.302c-7.341-4.072-13.77-9.181-19.764-15.046C470.871,215.935,470.852,216.114,470.888,216.15z
					"/>
			</g>
		</g>
		<g id="g476">
			<g id="g474">
				<path id="path472" inkscape:connector-curvature="0" d="M503.445,240.573c4.81,5.809,11.468,9.478,18.613,11.666
					c0.085,0.026,0.092-0.219,0.023-0.245c-7.01-2.656-13.648-5.757-18.596-11.59C503.433,240.343,503.411,240.531,503.445,240.573z
					"/>
			</g>
		</g>
	</g>
	<g id="Layer_3" transform="matrix(1.1437147,0,0,1.1437147,-22.118277,-22.740525)">
		<g id="g483">
			<g id="g481">
				<path id="path479" inkscape:connector-curvature="0" d="M472.588,175.464c0.311-0.028,0.624-0.02,0.914-0.144
					c0.045-0.02,0.036-0.163-0.015-0.172c-0.298-0.054-0.605,0.034-0.905,0.082C472.507,175.242,472.518,175.471,472.588,175.464z"
					/>
			</g>
		</g>
		<g id="g489">
			<g id="g487">
				<path id="path485" inkscape:connector-curvature="0" d="M525.573,288.52c-6.682,0.559-13.271,0.407-19.876-0.798
					c-7.923-1.445-14.218-5.166-20.84-9.466c-5.776-3.75-12.177-6.424-17.971-10.157c-2.645-1.705-4.902-3.837-7.246-5.916
					c-3.098-2.746-6.362-6.013-1.715-9.334c0.692-0.495,0.361-3.213-0.398-2.722c-13.134,8.528,9.533,21.48,15.888,24.911
					c8.05,4.345,15.697,10.07,24.209,13.394c8.841,3.452,18.674,3.836,28.022,3.056C526.591,291.409,526.458,288.446,525.573,288.52
					L525.573,288.52z"/>
			</g>
		</g>
		<g id="g495">
			<g id="g493">
				<path id="path491" inkscape:connector-curvature="0" d="M515.361,222.809c2.535,3.787,4.239,8.052,6.736,11.816
					c2.624,3.956,6.001,7.345,9.381,10.653c0.846,0.828,1.097-1.974,0.413-2.599c-3.593-3.283-7.194-6.734-9.701-10.952
					c-2.189-3.683-3.926-7.511-6.332-11.09C515.325,219.844,514.972,222.228,515.361,222.809z"/>
			</g>
		</g>
		<g id="g501">
			<g id="g499">
				<path id="path497" inkscape:connector-curvature="0" d="M457.772,174.999c1.511-0.313,3.667,1.391,4.862,2.118
					c3.07,1.87,5.964,4.038,8.855,6.168c0.537,0.396,0.837-1.846,0.219-2.285c-2.899-2.054-5.83-4.065-8.883-5.883
					c-1.248-0.743-3.506-2.381-5.097-1.914C457.168,173.368,457.276,175.102,457.772,174.999z"/>
			</g>
		</g>
		<g id="g507">
			<g id="g505">
				<path id="path503" inkscape:connector-curvature="0" d="M464.512,253.481c-5.144-1.95-9.472-7.004-5.415-12.29
					c0.439-0.572,0.083-3.153-0.646-2.295c-4.391,5.167-1.792,15.836,6.023,15.699C464.812,254.589,464.784,253.584,464.512,253.481
					z"/>
			</g>
		</g>
		<g id="g513">
			<g id="g511">
				<path id="path509" inkscape:connector-curvature="0" d="M465.498,242.009c-2.185-1.691-4.636-2.123-6.654-4.31
					c-2.934-3.178-2.932-7.174-0.209-10.427c0.51-0.609,0.114-3.386-0.698-2.479c-2.911,3.249-3.419,7.447-1.854,11.452
					c1.122,2.87,6.05,7.913,9.429,6.31C465.665,242.482,465.607,242.094,465.498,242.009z"/>
			</g>
		</g>
		<g id="g519">
			<g id="g517">
				<path id="path515" inkscape:connector-curvature="0" d="M467.136,225.49c-2.645,0.049-5.013,0.119-7.535-0.848
					c-0.839-0.321-1.59-0.766-2.301-1.31c-1.209-0.926-1.263-1.667-0.408-2.834c0.486-0.663,0.004-3.484-0.712-2.53
					c-1.706,2.271-1.795,5.541,0.363,7.562c2.691,2.522,7.558,2.435,10.67,0.898C467.434,226.321,467.427,225.485,467.136,225.49
					L467.136,225.49z"/>
			</g>
		</g>
		<g id="g525">
			<g id="g523">
				<path id="path521" inkscape:connector-curvature="0" d="M454.094,195.371c-1.132-0.852-2.824-1.166-3.343-2.68
					c-0.298-0.869,1.067-2.204,1.602-2.709c1.062-1.001,2.403-1.584,3.76-2.044c0.82-0.278,1.732-0.221,2.583-0.25
					c0.93-0.031,1.702,0.556,2.589,0.199c0.359-0.146,0.209-1.027,0.041-1.251c-1.318-1.753-4.604-1.671-6.512-1.102
					c-1.881,0.561-3.43,1.777-4.428,3.473c-0.911,1.547-1.128,3.412-0.667,5.137c0.454,1.701,2.529,3.301,4.32,2.783
					C454.549,196.779,454.444,195.634,454.094,195.371z"/>
			</g>
		</g>
		<g id="g531">
			<g id="g529">
				<path id="path527" inkscape:connector-curvature="0" d="M454.27,186.043c-2.166-2.443-2.494-5.599-1.176-8.542
					c0.541-1.205,1.572-2.214,2.85-2.577c1.135-0.321,2.135,0.478,3.151-0.014c0.537-0.26,0.29-1.456,0.059-1.823
					c-0.983-1.563-3.061-1.44-4.553-0.64c-1.623,0.87-2.613,2.94-3.073,4.628c-0.919,3.375-0.889,8.489,2.495,10.526
					C454.53,187.908,454.5,186.302,454.27,186.043z"/>
			</g>
		</g>
		<g id="g537">
			<g id="g535">
				<path id="path533" inkscape:connector-curvature="0" d="M455.581,172.935c-4.686-3.489-12.693-10.629-18.844-6.717
					c-5.278,3.357-0.985,10.993,1.773,14.301c0.256,0.308,0.319-0.58,0.23-0.742c-1.032-1.879-2.211-3.645-3.093-5.609
					c-2.569-5.721,3.18-7.129,6.951-6.39c4.761,0.932,8.354,4.723,12.884,6.196C455.87,174.1,455.804,173.101,455.581,172.935
					L455.581,172.935z"/>
			</g>
		</g>
		<g id="g543">
			<g id="g541">
				<path id="path539" inkscape:connector-curvature="0" d="M445.835,181.194c-2.633-3.007-7.495-2.205-9.582,0.952
					c-1.632,2.468-1.995,8.058,0.333,10.192c0.303,0.277,0.369-0.766,0.351-0.862c-0.324-1.751-1.101-3.317-1.004-5.147
					c0.085-1.603,0.905-3.048,2.096-4.084c1.004-0.873,2.316-1.184,3.61-1.25c1.45-0.074,2.746,0.647,4.16,0.583
					C445.93,181.572,445.889,181.256,445.835,181.194L445.835,181.194z"/>
			</g>
		</g>
		<g id="g549">
			<g id="g547">
				<path id="path545" inkscape:connector-curvature="0" d="M446.04,192.407c-3.06-1.372-8.501-3.441-10.29,0.541
					c-2.212,4.926,0.709,11.173,3.745,14.984c0.596,0.748,0.902-1.557,0.479-2.087c-2.265-2.844-6.853-10.198-2.25-12.975
					c2.226-1.342,5.89,0.885,8.276,0.689C446.358,193.529,446.316,192.531,446.04,192.407z"/>
			</g>
		</g>
		<g id="g555">
			<g id="g553">
				<path id="path551" inkscape:connector-curvature="0" d="M448.908,206.354c-2.859-0.342-7.642-2.06-9.331,1.282
					c-2.179,4.31-0.468,9.063,2.08,12.83c0.515,0.763,0.779-1.387,0.561-1.809c-1.478-2.853-5.033-9.166-0.138-10.714
					c2.195-0.694,4.594,0.366,6.86-0.319C449.315,207.51,449.325,206.404,448.908,206.354L448.908,206.354z"/>
			</g>
		</g>
		<g id="g561">
			<g id="g559">
				<path id="path557" inkscape:connector-curvature="0" d="M449.171,220.403c-6.526-3.664-8.901,2.245-8.024,7.906
					c0.507,3.275,1.924,6.434,3.854,9.108c0.915,1.268,2.082,2.339,3.404,3.166c0.624,0.39,1.303,0.624,2.019,0.765
					c0.854,0.169,1.281-0.885,1.956-0.822c0.204,0.019,0.159-0.668-0.015-0.625c-0.33,0.082-2.376-1.198-2.802-1.355
					c-1.11-0.407-2.077-1.209-2.91-2.021c-1.906-1.855-3.176-4.34-4.012-6.835c-0.758-2.256-1.324-5.226,0.172-7.296
					c1.402-1.941,4.425-1.162,6.317-0.703C449.485,221.777,449.452,220.562,449.171,220.403z"/>
			</g>
		</g>
		<g id="g567">
			<g id="g565">
				<path id="path563" inkscape:connector-curvature="0" d="M456.615,261.528c-1.202-0.843-2.657-0.993-3.891-1.975
					c-2.23-1.772-3.727-4.557-5.014-7.024c-1.241-2.378-2.132-4.957-2.636-7.59c-0.499-2.607,0.518-4.084,1.213-6.354
					c0.076-0.25,0.076-0.88-0.209-1.028c-0.124-0.064-0.247-0.128-0.37-0.192c-0.182-0.094-0.311-0.001-0.428,0.139
					c-5.136,6.241,6.333,29.544,11.358,25.021C456.861,262.326,456.873,261.709,456.615,261.528L456.615,261.528z"/>
			</g>
		</g>
		<g id="g573">
			<g id="g571">
				<path id="path569" inkscape:connector-curvature="0" d="M448.616,255.091c-2.336-8.339-13.987-11.247-14.681-20.216
					c-0.024-0.322-0.058-1.089-0.447-1.241c-7.021-2.757-11.57-9.393-10.125-17.091c0.046-0.239,0.076-0.78-0.237-0.861
					c-0.173-0.044-0.346-0.089-0.518-0.133c-0.282-0.072-0.463,0.525-0.498,0.685c-0.771,3.778-0.044,7.581,1.441,11.092
					c0.777,1.836,2.116,3.68,3.574,5.012c0.982,0.897,5.624,3.199,5.794,4.038c1.793,8.835,11.254,11.965,15.329,19.4
					C448.546,256.313,448.678,255.312,448.616,255.091L448.616,255.091z"/>
			</g>
		</g>
		<g id="g579">
			<g id="g577">
				<path id="path575" inkscape:connector-curvature="0" d="M439.666,222.882c-4.6-2.771-9.653-4.32-14.632-6.241
					c-6.202-2.393-15.4-7.793-14.524-15.729c-0.089,0.805,0.833,2.593,1.094,1.006c0.118-0.72,0.35-1.788-0.241-2.381
					c-0.324-0.325-0.539-0.106-0.718,0.231c-2.687,5.079,0.685,10.447,4.549,13.857c6.808,6.009,16.375,6.626,24.37,10.333
					C439.909,224.118,439.94,223.047,439.666,222.882z"/>
			</g>
		</g>
		<g id="g585">
			<g id="g583">
				<path id="path581" inkscape:connector-curvature="0" d="M434.054,209.498c-7.882-3.203-15.976-5.516-23.236-10.101
					c-5.255-3.318-13.435-10.33-11.838-17.19c0.054-0.229,0.071-0.791-0.238-0.861c-0.198-0.044-0.396-0.089-0.593-0.134
					c-0.205-0.046-0.363,0.297-0.421,0.419c-2.812,5.933,3.511,12.248,7.282,16.032c7.504,7.53,18.869,10.785,29.007,12.93
					C434.311,210.654,434.326,209.608,434.054,209.498L434.054,209.498z"/>
			</g>
		</g>
		<g id="g591">
			<g id="g589">
				<path id="path587" inkscape:connector-curvature="0" d="M434.284,201.713c-5.623-2.922-11.275-5.463-16.479-9.132
					c-3.833-2.702-7.465-5.667-11.402-8.223c-3.312-2.15-6.816-3.913-10.047-6.207c-2.03-1.441-3.903-3.082-5.533-4.965
					c-1.517-1.753-1.366-3.201-1.224-5.281c0.011-0.16,0.017-0.536-0.17-0.621c-0.115-0.053-0.229-0.105-0.344-0.158
					c-0.281-0.129-0.477,0.121-0.568,0.363c-2.911,7.739,8.049,13.932,13.443,16.931c10.723,5.961,20.234,14.719,32.3,17.985
					C434.443,202.454,434.444,201.796,434.284,201.713z"/>
			</g>
		</g>
		<g id="g597">
			<g id="g595">
				<path id="path593" inkscape:connector-curvature="0" d="M431.879,184.901c-8.827-0.029-16.535-4.287-23.972-8.654
					c-8.292-4.871-17.809-8.583-24.508-15.638c-1.575-1.658-5.728-5.475-2.133-6.46c2.446-0.671,5.035-0.967,7.558-1.078
					c5.707-0.25,12.105,1.768,17.634,3.027c6.236,1.42,12.3,3.32,18.104,5.996c4.519,2.083,10.276,5.255,15.328,4.932
					c0.465-0.03,0.343-1.216,0.05-1.402c-3.158-1.993-7.014-2.854-10.496-4.225c-3.028-1.192-5.92-2.69-8.947-3.876
					c-6.84-2.681-14.11-4.279-21.297-5.703c-4.156-0.823-23.515-4.77-20.748,4.61c3.031,10.276,16.075,14.792,24.413,19.395
					c7.816,4.316,19.569,12.297,29.028,9.701C432.08,185.476,432.08,184.902,431.879,184.901L431.879,184.901z"/>
			</g>
		</g>
		<g id="g603">
			<g id="g601">
				<path id="path599" inkscape:connector-curvature="0" d="M379.276,156.362c-4.524-2.075-32.809-8.831-24.156,3.783
					c9.458,13.787,28.974,14.31,42.262,22.323c0.547,0.33,0.741-1.668,0.191-2.002c-11.269-6.84-25.033-8.128-35.604-16.298
					c-1.834-1.417-3.557-2.972-5.169-4.637c-0.765-0.79-1.435-1.668-1.992-2.617c-1.184-2.017,2.965-2.121,3.832-2.188
					c6.905-0.536,13.927,1.687,20.584,3.116C379.63,157.927,379.628,156.523,379.276,156.362z"/>
			</g>
		</g>
	</g>
</g>
<path id="path4" inkscape:connector-curvature="0" d="M865.668,322.456c-0.201,89.194-40.794,173.696-109.646,230.244
	c-69.003,56.668-162.979,78.274-249.996,59.403c-85.793-18.605-159.551-75.908-200.131-153.536
	c-41.423-79.24-43.823-176.542-6.964-257.931c36.114-79.75,107.023-140.469,191.333-163.928
	c86.951-24.194,181.44-6.229,254.279,46.639c70.996,51.53,115.733,134.856,120.67,222.251
	C865.528,311.213,865.654,316.834,865.668,322.456c0.028,12.896,20.028,12.897,19.999,0
	c-0.206-91.362-40.333-179.519-109.479-239.326c-70.46-60.944-164.833-87.081-256.703-73.109
	c-89.233,13.571-169.326,67.56-217.694,143.372c-49.766,78.003-61.999,176.938-34.103,264.996
	c27.073,85.458,91.357,157.057,173.305,193.31c85.476,37.813,184.728,35.489,268.579-5.604
	c80.595-39.496,141.458-114.204,165.089-200.61c7.376-26.971,10.942-55.084,11.006-83.026
	C885.696,309.558,865.696,309.56,865.668,322.456L865.668,322.456z"/>
</svg>
